<?xml version="1.0" encoding="utf-8"?>
<!-- Generator: Adobe Illustrator 22.0.1, SVG Export Plug-In . SVG Version: 6.00 Build 0)  -->
<svg version="1.1" id="Слой_1" xmlns="http://www.w3.org/2000/svg" xmlns:xlink="http://www.w3.org/1999/xlink" x="0px" y="0px"
	 viewBox="0 0 95.3 80.7" style="enable-background:new 0 0 95.3 80.7;" xml:space="preserve">
<style type="text/css">
	.st0{fill:#8591F9;}
</style>
<path class="st0" d="M70.3,1.4H25l-22.7,39l22.7,39h45.3l22.7-39L70.3,1.4z M35.4,44.2c-2.1,0-3.8-1.7-3.8-3.8
	c0-2.1,1.7-3.8,3.8-3.8s3.8,1.7,3.8,3.8C39.3,42.5,37.6,44.2,35.4,44.2z M47.6,44.2c-2.1,0-3.8-1.7-3.8-3.8c0-2.1,1.7-3.8,3.8-3.8
	c2.1,0,3.8,1.7,3.8,3.8C51.5,42.5,49.8,44.2,47.6,44.2z M59.8,44.2c-2.1,0-3.8-1.7-3.8-3.8c0-2.1,1.7-3.8,3.8-3.8
	c2.1,0,3.8,1.7,3.8,3.8C63.7,42.5,62,44.2,59.8,44.2z"/>
</svg>
