<?xml version="1.0" encoding="utf-8"?>
<!-- Generator: Adobe Illustrator 22.0.1, SVG Export Plug-In . SVG Version: 6.00 Build 0)  -->
<svg version="1.1" id="Слой_1" xmlns="http://www.w3.org/2000/svg" xmlns:xlink="http://www.w3.org/1999/xlink" x="0px" y="0px"
	 viewBox="0 0 838.6 754.1" style="enable-background:new 0 0 838.6 754.1;" xml:space="preserve">
<style type="text/css">
	.st0{fill:url(#SVGID_1_);}
	.st1{fill:url(#SVGID_2_);}
	.st2{fill:url(#SVGID_3_);}
	.st3{fill:url(#SVGID_4_);}
	.st4{fill:url(#SVGID_5_);}
	.st5{fill:url(#SVGID_6_);}
	.st6{fill:url(#SVGID_7_);}
	.st7{fill:#009EE2;}
	.st8{fill:#312782;}
</style>
<g>
	<g>
		<linearGradient id="SVGID_1_" gradientUnits="userSpaceOnUse" x1="833.7625" y1="181.9575" x2="46.5368" y2="308.6124">
			<stop  offset="0" style="stop-color:#53BFD5"/>
			<stop  offset="0.2434" style="stop-color:#5FA2C5"/>
			<stop  offset="0.7676" style="stop-color:#7F599E"/>
			<stop  offset="1" style="stop-color:#8E378B"/>
		</linearGradient>
		<path class="st0" d="M342.7,16.4h-76L14.8,504.8h65.1l77.8-153.7h173l25,153.7h67.4L342.7,16.4z M177.2,310.9L291.6,81.2
			l32.6,229.7H177.2z"/>
		<g>
			<linearGradient id="SVGID_2_" gradientUnits="userSpaceOnUse" x1="849.6575" y1="280.7527" x2="62.4318" y2="407.4076">
				<stop  offset="0" style="stop-color:#53BFD5"/>
				<stop  offset="0.2434" style="stop-color:#5FA2C5"/>
				<stop  offset="0.7676" style="stop-color:#7F599E"/>
				<stop  offset="1" style="stop-color:#8E378B"/>
			</linearGradient>
			<polygon class="st1" points="694.3,320.9 748.2,320.9 741.3,283.1 687.4,283.1 			"/>
			<linearGradient id="SVGID_3_" gradientUnits="userSpaceOnUse" x1="837.5557" y1="205.5338" x2="50.33" y2="332.1887">
				<stop  offset="0" style="stop-color:#53BFD5"/>
				<stop  offset="0.2434" style="stop-color:#5FA2C5"/>
				<stop  offset="0.7676" style="stop-color:#7F599E"/>
				<stop  offset="1" style="stop-color:#8E378B"/>
			</linearGradient>
			<polygon class="st2" points="680.6,245.9 734.5,245.9 727.7,208.1 673.8,208.1 			"/>
			<linearGradient id="SVGID_4_" gradientUnits="userSpaceOnUse" x1="839.3221" y1="216.5131" x2="52.0964" y2="343.168">
				<stop  offset="0" style="stop-color:#53BFD5"/>
				<stop  offset="0.2434" style="stop-color:#5FA2C5"/>
				<stop  offset="0.7676" style="stop-color:#7F599E"/>
				<stop  offset="1" style="stop-color:#8E378B"/>
			</linearGradient>
			<polygon class="st3" points="772.4,358 718.5,358 730.1,422 500,422 445.6,92 670.1,92 684.5,170.9 738.4,170.9 709.6,12.7 
				377.3,12.7 457.7,501.2 798.4,501.2 			"/>
			<linearGradient id="SVGID_5_" gradientUnits="userSpaceOnUse" x1="845.5901" y1="255.472" x2="58.3644" y2="382.1269">
				<stop  offset="0" style="stop-color:#53BFD5"/>
				<stop  offset="0.2434" style="stop-color:#5FA2C5"/>
				<stop  offset="0.7676" style="stop-color:#7F599E"/>
				<stop  offset="1" style="stop-color:#8E378B"/>
			</linearGradient>
			<polygon class="st4" points="766,283.1 759.2,245.9 813.2,245.9 819.9,283.1 			"/>
			<linearGradient id="SVGID_6_" gradientUnits="userSpaceOnUse" x1="857.691" y1="330.6856" x2="70.4654" y2="457.3405">
				<stop  offset="0" style="stop-color:#53BFD5"/>
				<stop  offset="0.2434" style="stop-color:#5FA2C5"/>
				<stop  offset="0.7676" style="stop-color:#7F599E"/>
				<stop  offset="1" style="stop-color:#8E378B"/>
			</linearGradient>
			<polygon class="st5" points="779.6,358 772.8,320.9 826.7,320.9 833.5,358 			"/>
			<linearGradient id="SVGID_7_" gradientUnits="userSpaceOnUse" x1="833.4877" y1="180.2494" x2="46.262" y2="306.9043">
				<stop  offset="0" style="stop-color:#53BFD5"/>
				<stop  offset="0.2434" style="stop-color:#5FA2C5"/>
				<stop  offset="0.7676" style="stop-color:#7F599E"/>
				<stop  offset="1" style="stop-color:#8E378B"/>
			</linearGradient>
			<polygon class="st6" points="752.3,208.1 745.6,170.9 799.5,170.9 806.3,208.1 			"/>
		</g>
	</g>
	<g>
		<g>
			<path class="st7" d="M35,628.8l-9.6,29.1H13l31.4-92.5h14.4l31.6,92.5H77.6l-9.9-29.1H35z M65.3,619.4l-9.1-26.6
				c-2.1-6-3.4-11.5-4.8-16.9h-0.3c-1.4,5.5-2.9,11.1-4.7,16.7l-9.1,26.8H65.3z"/>
			<path class="st7" d="M103.2,609.4c0-6.9-0.1-12.5-0.5-18h10.6l0.5,10.7h0.4c3.7-6.3,9.9-12.2,20.9-12.2c9.1,0,15.9,5.5,18.8,13.3
				h0.3c2.1-3.7,4.7-6.6,7.4-8.6c4-3,8.4-4.7,14.7-4.7c8.8,0,21.8,5.8,21.8,28.8v39.1h-11.8v-37.6c0-12.8-4.7-20.4-14.4-20.4
				c-6.9,0-12.2,5.1-14.3,11c-0.5,1.6-1,3.8-1,6v41h-11.8v-39.8c0-10.6-4.7-18.2-13.9-18.2c-7.5,0-13,6-15,12.1
				c-0.7,1.8-1,3.8-1,5.9v40.1h-11.8V609.4z"/>
			<path class="st7" d="M231,572.8c0.1,4.1-2.9,7.4-7.7,7.4c-4.3,0-7.3-3.3-7.3-7.4c0-4.3,3.2-7.5,7.5-7.5
				C228.1,565.2,231,568.5,231,572.8z M217.6,657.9v-66.4h12.1v66.4H217.6z"/>
			<path class="st7" d="M297,655.4c-3.2,1.6-10.2,3.8-19.1,3.8c-20,0-33.1-13.6-33.1-33.9c0-20.4,14-35.3,35.7-35.3
				c7.1,0,13.4,1.8,16.7,3.4l-2.7,9.3c-2.9-1.6-7.4-3.2-14-3.2c-15.2,0-23.5,11.3-23.5,25.1c0,15.4,9.9,24.8,23.1,24.8
				c6.9,0,11.4-1.8,14.8-3.3L297,655.4z"/>
			<path class="st7" d="M366.7,639.7c0,6.9,0.1,12.9,0.5,18.1h-10.7l-0.7-10.8h-0.3c-3.2,5.4-10.2,12.4-22,12.4
				c-10.4,0-22.9-5.8-22.9-29.1v-38.8h12.1v36.8c0,12.6,3.8,21.1,14.8,21.1c8.1,0,13.7-5.6,15.9-11c0.7-1.8,1.1-4,1.1-6.2v-40.8
				h12.1V639.7z"/>
			<path class="st7" d="M385.1,645.5c3.6,2.3,9.9,4.8,15.9,4.8c8.8,0,12.9-4.4,12.9-9.9c0-5.8-3.4-8.9-12.4-12.2
				c-11.9-4.3-17.6-10.8-17.6-18.8c0-10.7,8.6-19.5,22.9-19.5c6.7,0,12.6,1.9,16.3,4.1l-3,8.8c-2.6-1.6-7.4-3.8-13.6-3.8
				c-7.1,0-11.1,4.1-11.1,9.1c0,5.5,4,8,12.6,11.3c11.5,4.4,17.4,10.2,17.4,20c0,11.7-9.1,19.9-24.8,19.9c-7.3,0-14-1.8-18.7-4.5
				L385.1,645.5z"/>
			<path class="st7" d="M549.6,610.7c0,31.8-19.3,48.7-42.9,48.7c-24.4,0-41.6-18.9-41.6-46.9c0-29.4,18.2-48.6,42.9-48.6
				C533.3,563.9,549.6,583.2,549.6,610.7z M477.9,612.2c0,19.8,10.7,37.5,29.5,37.5c18.9,0,29.6-17.4,29.6-38.4
				c0-18.4-9.6-37.6-29.5-37.6C487.7,573.6,477.9,591.9,477.9,612.2z"/>
			<path class="st7" d="M564.7,609.4c0-6.9-0.1-12.5-0.5-18h10.7l0.7,11h0.3c3.3-6.3,11-12.5,22-12.5c9.2,0,23.5,5.5,23.5,28.3v39.7
				h-12.1v-38.3c0-10.7-4-19.6-15.4-19.6c-8,0-14.1,5.6-16.2,12.3c-0.5,1.5-0.8,3.6-0.8,5.6v39.9h-12.1V609.4z"/>
			<path class="st7" d="M640.9,560.4h12.1v97.4h-12.1V560.4z"/>
			<path class="st7" d="M686.7,572.8c0.1,4.1-2.9,7.4-7.7,7.4c-4.3,0-7.3-3.3-7.3-7.4c0-4.3,3.2-7.5,7.5-7.5
				C683.8,565.2,686.7,568.5,686.7,572.8z M673.2,657.9v-66.4h12.1v66.4H673.2z"/>
			<path class="st7" d="M705.3,609.4c0-6.9-0.1-12.5-0.5-18h10.7l0.7,11h0.3c3.3-6.3,11-12.5,22-12.5c9.2,0,23.5,5.5,23.5,28.3v39.7
				h-12.1v-38.3c0-10.7-4-19.6-15.4-19.6c-8,0-14.1,5.6-16.2,12.3c-0.5,1.5-0.8,3.6-0.8,5.6v39.9h-12.1V609.4z"/>
			<path class="st7" d="M788.2,626.8c0.3,16.3,10.7,23.1,22.8,23.1c8.6,0,13.9-1.5,18.4-3.4l2.1,8.6c-4.3,1.9-11.5,4.1-22.1,4.1
				c-20.4,0-32.7-13.4-32.7-33.5c0-20,11.8-35.8,31.1-35.8c21.7,0,27.4,19.1,27.4,31.3c0,2.5-0.3,4.4-0.4,5.6H788.2z M823.6,618.2
				c0.1-7.7-3.2-19.6-16.7-19.6c-12.2,0-17.6,11.3-18.5,19.6H823.6z"/>
		</g>
		<g>
			<path class="st8" d="M103.7,703.7c2.6-0.4,6-0.8,10.3-0.8c5.3,0,9.2,1.2,11.7,3.5c2.3,2,3.6,5,3.6,8.7c0,3.8-1.1,6.7-3.2,8.9
				c-2.8,3-7.5,4.6-12.7,4.6c-1.6,0-3.1-0.1-4.3-0.4v16.7h-5.4V703.7z M109.1,723.8c1.2,0.3,2.7,0.4,4.4,0.4
				c6.5,0,10.4-3.1,10.4-8.9c0-5.5-3.9-8.2-9.8-8.2c-2.3,0-4.1,0.2-5.1,0.4V723.8z"/>
			<path class="st8" d="M136.1,701h5.4v43.9h-5.4V701z"/>
			<path class="st8" d="M167.3,744.8l-0.4-3.8h-0.2c-1.7,2.3-4.9,4.4-9.1,4.4c-6.1,0-9.1-4.3-9.1-8.6c0-7.2,6.4-11.2,18-11.1v-0.6
				c0-2.5-0.7-6.9-6.8-6.9c-2.8,0-5.7,0.9-7.8,2.2l-1.2-3.6c2.5-1.6,6.1-2.7,9.8-2.7c9.1,0,11.4,6.2,11.4,12.2v11.2
				c0,2.6,0.1,5.1,0.5,7.2H167.3z M166.5,729.6c-5.9-0.1-12.7,0.9-12.7,6.7c0,3.5,2.3,5.2,5.1,5.2c3.9,0,6.4-2.5,7.2-5
				c0.2-0.6,0.3-1.2,0.3-1.7V729.6z"/>
			<path class="st8" d="M186.8,706.3v8.6h7.8v4.1h-7.8v16.1c0,3.7,1.1,5.8,4.1,5.8c1.4,0,2.5-0.2,3.1-0.4l0.2,4.1
				c-1.1,0.4-2.7,0.7-4.8,0.7c-2.5,0-4.6-0.8-5.9-2.3c-1.5-1.6-2.1-4.3-2.1-7.8v-16.3h-4.6v-4.1h4.6v-7.2L186.8,706.3z"/>
			<path class="st8" d="M201.2,744.8v-25.8H197v-4.1h4.2v-1.4c0-4.2,0.9-8,3.5-10.4c2-2,4.8-2.8,7.3-2.8c1.9,0,3.6,0.4,4.6,0.9
				l-0.7,4.2c-0.8-0.4-1.9-0.7-3.5-0.7c-4.6,0-5.8,4.1-5.8,8.6v1.6h7.2v4.1h-7.2v25.8H201.2z"/>
			<path class="st8" d="M245,729.6c0,11.1-7.7,15.9-14.9,15.9c-8.1,0-14.3-5.9-14.3-15.4c0-10,6.6-15.9,14.8-15.9
				C239.2,714.2,245,720.5,245,729.6z M221.3,729.9c0,6.5,3.8,11.5,9.1,11.5c5.2,0,9.1-4.9,9.1-11.6c0-5.1-2.5-11.5-9-11.5
				S221.3,724.2,221.3,729.9z"/>
			<path class="st8" d="M251.9,724.2c0-3.5-0.1-6.5-0.2-9.3h4.8l0.2,5.9h0.2c1.4-4,4.6-6.5,8.3-6.5c0.6,0,1,0.1,1.5,0.2v5.1
				c-0.6-0.1-1.1-0.2-1.9-0.2c-3.8,0-6.6,2.9-7.3,7c-0.1,0.7-0.2,1.6-0.2,2.5v15.9h-5.4V724.2z"/>
			<path class="st8" d="M272.3,723c0-3.1-0.1-5.6-0.2-8.1h4.8l0.2,4.8h0.2c1.7-2.8,4.4-5.5,9.4-5.5c4.1,0,7.2,2.5,8.5,6h0.1
				c0.9-1.7,2.1-3,3.3-3.9c1.8-1.4,3.8-2.1,6.6-2.1c4,0,9.8,2.6,9.8,13v17.6h-5.3v-16.9c0-5.7-2.1-9.2-6.5-9.2
				c-3.1,0-5.5,2.3-6.4,4.9c-0.2,0.7-0.4,1.7-0.4,2.7v18.5H291v-17.9c0-4.8-2.1-8.2-6.2-8.2c-3.4,0-5.9,2.7-6.7,5.4
				c-0.3,0.8-0.4,1.7-0.4,2.7v18h-5.3V723z"/>
			<path class="st8" d="M337.1,703.2h22.4v4.5h-17.1v13.8h15.8v4.4h-15.8v18.8h-5.4V703.2z"/>
			<path class="st8" d="M392.2,729.6c0,11.1-7.7,15.9-14.9,15.9c-8.1,0-14.3-5.9-14.3-15.4c0-10,6.6-15.9,14.8-15.9
				C386.4,714.2,392.2,720.5,392.2,729.6z M368.5,729.9c0,6.5,3.8,11.5,9.1,11.5c5.2,0,9.1-4.9,9.1-11.6c0-5.1-2.5-11.5-9-11.5
				S368.5,724.2,368.5,729.9z"/>
			<path class="st8" d="M399.1,724.2c0-3.5-0.1-6.5-0.2-9.3h4.8l0.2,5.9h0.2c1.4-4,4.6-6.5,8.3-6.5c0.6,0,1,0.1,1.5,0.2v5.1
				c-0.6-0.1-1.1-0.2-1.9-0.2c-3.8,0-6.6,2.9-7.3,7c-0.1,0.7-0.2,1.6-0.2,2.5v15.9h-5.4V724.2z"/>
			<path class="st8" d="M461.6,743.5c-2,1-5.9,2-11,2c-11.7,0-20.6-7.4-20.6-21.1c0-13,8.8-21.9,21.7-21.9c5.2,0,8.5,1.1,9.9,1.9
				l-1.3,4.4c-2-1-4.9-1.7-8.4-1.7c-9.8,0-16.2,6.2-16.2,17.2c0,10.2,5.9,16.7,16,16.7c3.3,0,6.6-0.7,8.8-1.7L461.6,743.5z"/>
			<path class="st8" d="M494.6,729.6c0,11.1-7.7,15.9-14.9,15.9c-8.1,0-14.3-5.9-14.3-15.4c0-10,6.5-15.9,14.8-15.9
				C488.8,714.2,494.6,720.5,494.6,729.6z M470.9,729.9c0,6.5,3.8,11.5,9.1,11.5c5.2,0,9.1-4.9,9.1-11.6c0-5.1-2.5-11.5-9-11.5
				S470.9,724.2,470.9,729.9z"/>
			<path class="st8" d="M501.4,723c0-3.1-0.1-5.6-0.2-8.1h4.8l0.3,4.9h0.1c1.5-2.8,4.9-5.6,9.9-5.6c4.1,0,10.6,2.5,10.6,12.7v17.9
				h-5.4v-17.2c0-4.8-1.8-8.8-6.9-8.8c-3.6,0-6.4,2.5-7.3,5.6c-0.2,0.7-0.4,1.6-0.4,2.5v18h-5.4V723z"/>
			<path class="st8" d="M536.3,744.8v-25.8h-4.2v-4.1h4.2v-1.4c0-4.2,0.9-8,3.5-10.4c2-2,4.8-2.8,7.3-2.8c1.9,0,3.6,0.4,4.6,0.9
				l-0.7,4.2c-0.8-0.4-1.9-0.7-3.5-0.7c-4.6,0-5.8,4.1-5.8,8.6v1.6h7.2v4.1h-7.2v25.8H536.3z"/>
			<path class="st8" d="M556,730.9c0.1,7.4,4.8,10.4,10.3,10.4c3.9,0,6.2-0.7,8.3-1.5l0.9,3.9c-1.9,0.9-5.2,1.9-9.9,1.9
				c-9.2,0-14.7-6.1-14.7-15.1s5.3-16.1,14-16.1c9.8,0,12.4,8.6,12.4,14.1c0,1.1-0.1,2-0.2,2.5H556z M571.9,727
				c0.1-3.5-1.4-8.8-7.5-8.8c-5.5,0-7.9,5.1-8.3,8.8H571.9z"/>
			<path class="st8" d="M583.9,724.2c0-3.5-0.1-6.5-0.2-9.3h4.8l0.2,5.9h0.2c1.4-4,4.6-6.5,8.3-6.5c0.6,0,1,0.1,1.5,0.2v5.1
				c-0.6-0.1-1.1-0.2-1.9-0.2c-3.8,0-6.6,2.9-7.3,7c-0.1,0.7-0.2,1.6-0.2,2.5v15.9h-5.4V724.2z"/>
			<path class="st8" d="M606.6,730.9c0.1,7.4,4.8,10.4,10.3,10.4c3.9,0,6.2-0.7,8.3-1.5l0.9,3.9c-1.9,0.9-5.2,1.9-9.9,1.9
				c-9.2,0-14.7-6.1-14.7-15.1s5.3-16.1,14-16.1c9.8,0,12.4,8.6,12.4,14.1c0,1.1-0.1,2-0.2,2.5H606.6z M622.5,727
				c0.1-3.5-1.4-8.8-7.5-8.8c-5.5,0-7.9,5.1-8.3,8.8H622.5z"/>
			<path class="st8" d="M634.5,723c0-3.1-0.1-5.6-0.2-8.1h4.8l0.3,4.9h0.1c1.5-2.8,4.9-5.6,9.9-5.6c4.1,0,10.6,2.5,10.6,12.7v17.9
				h-5.4v-17.2c0-4.8-1.8-8.8-6.9-8.8c-3.6,0-6.4,2.5-7.3,5.6c-0.2,0.7-0.4,1.6-0.4,2.5v18h-5.4V723z"/>
			<path class="st8" d="M690.1,743.7c-1.4,0.7-4.6,1.7-8.6,1.7c-9,0-14.9-6.1-14.9-15.3c0-9.2,6.3-15.9,16.1-15.9
				c3.2,0,6.1,0.8,7.5,1.5L689,720c-1.3-0.7-3.3-1.4-6.3-1.4c-6.9,0-10.6,5.1-10.6,11.3c0,6.9,4.4,11.2,10.4,11.2
				c3.1,0,5.1-0.8,6.7-1.5L690.1,743.7z"/>
			<path class="st8" d="M699.1,730.9c0.1,7.4,4.8,10.4,10.3,10.4c3.9,0,6.2-0.7,8.3-1.5l0.9,3.9c-1.9,0.9-5.2,1.9-9.9,1.9
				c-9.2,0-14.7-6.1-14.7-15.1s5.3-16.1,14-16.1c9.8,0,12.4,8.6,12.4,14.1c0,1.1-0.1,2-0.2,2.5H699.1z M715.1,727
				c0.1-3.5-1.4-8.8-7.5-8.8c-5.5,0-7.9,5.1-8.3,8.8H715.1z"/>
			<path class="st8" d="M726.3,739.3c1.6,1.1,4.4,2.2,7.2,2.2c4,0,5.8-2,5.8-4.4c0-2.6-1.5-4-5.6-5.5c-5.4-1.9-7.9-4.9-7.9-8.5
				c0-4.8,3.9-8.8,10.3-8.8c3,0,5.7,0.9,7.4,1.9l-1.4,4c-1.2-0.7-3.3-1.7-6.1-1.7c-3.2,0-5,1.9-5,4.1c0,2.5,1.8,3.6,5.7,5.1
				c5.2,2,7.8,4.6,7.8,9c0,5.3-4.1,9-11.2,9c-3.3,0-6.3-0.8-8.4-2L726.3,739.3z"/>
		</g>
	</g>
</g>
</svg>
