<?xml version="1.0" encoding="utf-8"?>
<!-- Generator: Adobe Illustrator 22.0.1, SVG Export Plug-In . SVG Version: 6.00 Build 0)  -->
<svg version="1.1" id="Слой_1" xmlns="http://www.w3.org/2000/svg" xmlns:xlink="http://www.w3.org/1999/xlink" x="0px" y="0px"
	 viewBox="0 0 95.3 80.7" style="enable-background:new 0 0 95.3 80.7;" xml:space="preserve">
<style type="text/css">
	.st0{fill:#00E373;}
</style>
<path class="st0" d="M70.4,1.4H24.9l-22.8,39l22.8,39h45.6l22.8-39L70.4,1.4z M50.8,25.8c0.2-2.1,0.4-4.2,0.7-6.3
	c0.1-0.8,0.2-1.7,0.3-2.5c0.2-1.3,0.8-1.8,1.7-1.9c0.9-0.2,1.9-0.4,2.9-0.7c-0.7,5.4-1.3,10.8-2,16.3c-0.6-0.6-1.1-1-1.6-1.5
	c-0.4-0.3-0.7-0.7-1.1-1C50.9,27.6,50.7,26.7,50.8,25.8z M28.6,59.2c-0.6-0.7-0.7-1.5-0.7-2.4c0-0.4,0-0.8,0.1-1.3
	c0.1-0.5,0.3-0.9,0.8-1.2c2.7-1.6,5.3-3.2,8-4.8c0.2-0.1,0.5-0.2,0.8-0.2c1,0.1,1.9,0.5,2.7,1.1c0.2,0.1,0.3,0.3,0.4,0.5
	c0.2,0.3,0.2,0.5-0.1,0.7c-0.6,0.4-1.2,0.9-1.8,1.3c-3.3,2-6.5,4-9.8,6C28.8,59.1,28.7,59.2,28.6,59.2z M67.1,32.3
	c-0.6,4.1-2,7.9-3.7,11.7c-0.8,1.7-1.5,3.4-2.4,5c-1.5,2.8-3.6,5.1-5.9,7.2c-3.6,3.4-7.6,6.3-11.9,8.8c-2.5,1.4-5.1,1.7-7.8,0.7
	c-2.1-0.8-3.8-2.3-5.2-4c-0.3-0.4-0.6-0.8-0.9-1.2c0.3-0.2,0.6-0.4,0.9-0.6c3.8-2.4,7.5-4.7,11.3-7.1c0.2-0.1,0.4-0.2,0.6-0.1
	c2.6,1.7,5.2,0.4,6.5-1.5c2.9-4.6,5.7-9.4,8.6-14.1c0.3-0.6,0.6-1.2,0.9-1.8c0.8-1.7,0.3-3.3-1.3-4.7c-0.1-0.1-0.2-0.2-0.3-0.3
	c-0.6-0.3-0.6-0.7-0.6-1.3c0.6-4.6,1.2-9.1,1.8-13.7c0,0,0-0.1,0-0.2c0.1,0.1,0.2,0.1,0.3,0.2c2.6,1.4,4.8,3.2,6.8,5.2
	c1.3,1.3,1.9,3,2.3,4.8C67.6,27.7,67.5,30,67.1,32.3z"/>
</svg>
