<?xml version="1.0" encoding="utf-8"?>
<!-- Generator: Adobe Illustrator 22.0.1, SVG Export Plug-In . SVG Version: 6.00 Build 0)  -->
<svg version="1.1" id="Слой_1" xmlns="http://www.w3.org/2000/svg" xmlns:xlink="http://www.w3.org/1999/xlink" x="0px" y="0px"
	 viewBox="0 0 95.3 80.7" style="enable-background:new 0 0 95.3 80.7;" xml:space="preserve">
<style type="text/css">
	.st0{fill:#DE000B;}
</style>
<path class="st0" d="M25.2,79.3h44.9l22.4-39l-22.4-39H25.2l-22.4,39L25.2,79.3z M44.5,54.9c-0.2,2.1-0.4,4.2-0.7,6.3
	c-0.1,0.8-0.2,1.7-0.3,2.5c-0.2,1.3-0.8,1.8-1.7,1.9C41,65.8,40,66,39.1,66.3c0.6-5.4,1.3-10.8,1.9-16.3c0.6,0.6,1.1,1,1.6,1.5
	c0.4,0.3,0.7,0.7,1.1,1C44.4,53.1,44.6,54,44.5,54.9z M66.4,21.5c0.6,0.7,0.7,1.5,0.7,2.4c0,0.4,0,0.8-0.1,1.3
	c-0.1,0.5-0.3,0.9-0.8,1.2c-2.6,1.6-5.2,3.2-7.8,4.8c-0.2,0.1-0.5,0.2-0.8,0.2c-1-0.1-1.9-0.5-2.7-1.1c-0.2-0.1-0.3-0.3-0.4-0.5
	c-0.2-0.3-0.2-0.5,0.1-0.7c0.6-0.4,1.2-0.9,1.8-1.3c3.2-2,6.4-4,9.7-6C66.2,21.6,66.3,21.5,66.4,21.5z M28.4,48.4
	c0.6-4.1,2-7.9,3.6-11.7c0.7-1.7,1.5-3.4,2.4-5c1.5-2.8,3.6-5.1,5.8-7.2c3.5-3.4,7.5-6.3,11.7-8.8c2.4-1.4,5-1.7,7.7-0.7
	c2.1,0.8,3.8,2.3,5.2,4c0.3,0.4,0.6,0.8,0.9,1.2c-0.3,0.2-0.6,0.4-0.9,0.6c-3.7,2.4-7.4,4.7-11.1,7.1c-0.2,0.1-0.4,0.2-0.6,0.1
	c-2.5-1.7-5.1-0.4-6.4,1.5c-2.9,4.6-5.7,9.4-8.5,14.1c-0.3,0.6-0.6,1.2-0.9,1.8c-0.8,1.7-0.3,3.3,1.2,4.7c0.1,0.1,0.2,0.2,0.3,0.3
	c0.6,0.3,0.6,0.7,0.5,1.3c-0.6,4.6-1.2,9.1-1.7,13.7c0,0,0,0.1,0,0.2c-0.1-0.1-0.2-0.1-0.3-0.2c-2.5-1.4-4.7-3.2-6.7-5.2
	c-1.2-1.3-1.9-3-2.2-4.8C28,53,28.1,50.7,28.4,48.4z"/>
</svg>
