<?xml version="1.0" encoding="utf-8"?>
<!-- Generator: Adobe Illustrator 22.0.1, SVG Export Plug-In . SVG Version: 6.00 Build 0)  -->
<svg version="1.1" id="Слой_1" xmlns="http://www.w3.org/2000/svg" xmlns:xlink="http://www.w3.org/1999/xlink" x="0px" y="0px"
	 viewBox="0 0 95.3 80.7" style="enable-background:new 0 0 95.3 80.7;" xml:space="preserve">
<style type="text/css">
	.st0{fill:#8591F9;}
</style>
<g>
	<path class="st0" d="M47.7,38c-1.5,0-2.7,1.2-2.7,2.7c0,1.5,1.2,2.7,2.7,2.7c1.5,0,2.7-1.1,2.7-2.6C50.5,39.3,49.3,38,47.7,38z
		 M47.8,42.3c-1,0-1.6-0.6-1.6-1.5c0-0.9,0.6-1.6,1.5-1.6c0.9,0,1.5,0.6,1.6,1.4C49.3,41.6,48.7,42.2,47.8,42.3z"/>
	<path class="st0" d="M72.7,26.2c0-2.3-1-3.3-3.3-3.3c-8.1,0-16.2,0-24.3,0c-6.5,0-13,0-19.5,0.1c-1.8,0-3,1-3,2.7c0,10,0,20,0,30
		c0,1.5,1.1,2.6,2.6,2.6c0.4,0,0.8,0,1.2,0c1.6,0,3.1,0,4.7,0c1.6,0,3.3,0.1,4.9,0.1c5.3,0,10.6,0,15.9-0.1c0.5,0,1.1,0,1.6,0
		c0.3,0,0.7,0,1,0c2,0,4.1,0,6.1,0c0.3,0,0.7,0,1,0c1.7,0,3.4,0,5.1,0c0.1,0,0.1,0,0.2,0c0.6,0,1.2,0,1.8,0c2.6,0.4,3.9-0.7,3.9-3.5
		C72.6,45.2,72.7,35.7,72.7,26.2z M53.6,42.4c-1.5,1.2-3.1,2.3-5.1,2.7c-0.3,0.1-0.7,0.1-0.9,0.1c-3.1-0.2-5.3-1.9-7.2-4
		c-0.2-0.2-0.3-0.5-0.1-0.7c2-2.1,4.2-4,7.4-4c2.4,0,4.2,1.4,5.9,2.7C55.6,40.7,55.6,40.8,53.6,42.4z"/>
	<path class="st0" d="M70.3,1.4H25l-22.7,39l22.7,39h45.3l22.7-39L70.3,1.4z M69.9,61c-4.4,0-8.9,0-13.3,0c-0.8,0-1.2,0.3-1.1,1.1
		c0.1,0.7,0,1.3,0,2c0,0.7,0.2,1.2,1,1c0.3,0,0.7,0,1,0c1.2,0,1.9,0.5,1.9,1.3c0,0.9-0.6,1.4-1.8,1.4c-3.8,0-7.6,0-11.3,0
		c-3,0-5.9,0-8.9,0c-0.6,0-1.1-0.2-1.4-0.8c-0.3-0.5-0.1-1,0.2-1.4c0.3-0.4,0.8-0.5,1.3-0.5c2.3-0.1,2.3-0.1,2.3-2.3
		c0-2,0.1-1.7-1.7-1.7c-4.2,0-8.4,0-12.6,0c-3.1,0-5.4-2.2-5.4-5.3c0-9.9,0-19.8,0-29.7c0-3.3,2.3-5.4,5.6-5.4c7.4,0,14.7,0,22.1,0
		c0,0,0,0,0,0c7.4,0,14.8,0,22.2,0c2.9,0,5.3,2.3,5.3,5.2c0,10,0,20,0,30C75.2,58.8,73,61,69.9,61z"/>
</g>
</svg>
