<?xml version="1.0" encoding="utf-8"?>
<!-- Generator: Adobe Illustrator 22.0.1, SVG Export Plug-In . SVG Version: 6.00 Build 0)  -->
<svg version="1.1" id="Слой_1" xmlns="http://www.w3.org/2000/svg" xmlns:xlink="http://www.w3.org/1999/xlink" x="0px" y="0px"
	 viewBox="0 0 405.2 68.1" style="enable-background:new 0 0 405.2 68.1;" xml:space="preserve">
<style type="text/css">
	.st0{fill:url(#SVGID_1_);}
	.st1{fill:url(#SVGID_2_);}
	.st2{fill:url(#SVGID_3_);}
	.st3{fill:url(#SVGID_4_);}
	.st4{fill:url(#SVGID_5_);}
	.st5{fill:url(#SVGID_6_);}
	.st6{fill:url(#SVGID_7_);}
	.st7{fill:#009FE3;}
	.st8{font-family:'MyriadPro-Regular';}
	.st9{font-size:47.0935px;}
	.st10{fill:#312783;}
	.st11{font-size:21.2099px;}
	.st12{clip-path:url(#SVGID_9_);}
	.st13{clip-path:url(#SVGID_11_);}
	.st14{opacity:5.000310e-02;clip-path:url(#SVGID_13_);}
	.st15{clip-path:url(#SVGID_15_);fill:#616160;}
	.st16{opacity:0.3;clip-path:url(#SVGID_17_);}
	.st17{clip-path:url(#SVGID_19_);fill:#818BC5;}
	.st18{opacity:0.3;clip-path:url(#SVGID_21_);}
	.st19{clip-path:url(#SVGID_23_);fill:#818BC5;}
	.st20{clip-path:url(#SVGID_21_);fill:#818BC5;}
	.st21{clip-path:url(#SVGID_21_);fill:#DE0A14;}
	.st22{clip-path:url(#SVGID_21_);fill:none;stroke:#818BC5;stroke-width:5;stroke-linecap:round;stroke-miterlimit:10;}
	.st23{clip-path:url(#SVGID_21_);fill:#5CB568;}
	.st24{clip-path:url(#SVGID_25_);fill:#818BC5;}
	.st25{clip-path:url(#SVGID_25_);fill:none;stroke:#818BC5;stroke-width:2;stroke-linecap:round;stroke-miterlimit:10;}
	.st26{clip-path:url(#SVGID_27_);fill:none;stroke:#818BC5;stroke-width:2;stroke-linecap:round;stroke-miterlimit:10;}
	.st27{clip-path:url(#SVGID_27_);fill:#818BC5;}
	.st28{opacity:0.5;clip-path:url(#SVGID_27_);}
	.st29{clip-path:url(#SVGID_29_);fill:none;stroke:#818BC5;stroke-width:3;stroke-linecap:round;stroke-miterlimit:10;}
	.st30{clip-path:url(#SVGID_31_);fill:#818BC5;}
	.st31{opacity:0.7;clip-path:url(#SVGID_27_);}
	.st32{opacity:0.3;clip-path:url(#SVGID_27_);}
	.st33{clip-path:url(#SVGID_35_);fill:#818BC5;}
	.st34{clip-path:url(#SVGID_37_);fill:#818BC5;}
	.st35{clip-path:url(#SVGID_39_);fill:#818BC5;}
	.st36{clip-path:url(#SVGID_41_);fill:#818BC5;}
	.st37{clip-path:url(#SVGID_43_);fill:#818BC5;}
	.st38{clip-path:url(#SVGID_45_);fill:#818BC5;}
	.st39{clip-path:url(#SVGID_47_);fill:#818BC5;}
	.st40{clip-path:url(#SVGID_27_);fill:none;stroke:#818BC5;stroke-width:5;stroke-linecap:round;stroke-miterlimit:10;}
	.st41{clip-path:url(#SVGID_27_);fill:#616160;}
	.st42{clip-path:url(#SVGID_49_);fill:#818BC5;}
	.st43{clip-path:url(#SVGID_51_);fill:#616160;}
	.st44{opacity:0.5;clip-path:url(#SVGID_51_);}
	.st45{clip-path:url(#SVGID_53_);fill:#818BC5;}
	.st46{opacity:0.3;clip-path:url(#SVGID_51_);}
	.st47{clip-path:url(#SVGID_55_);fill:#818BC5;}
	.st48{clip-path:url(#SVGID_57_);fill:url(#SVGID_58_);}
	.st49{clip-path:url(#SVGID_60_);fill:url(#SVGID_61_);}
	.st50{clip-path:url(#SVGID_63_);fill:url(#SVGID_64_);}
	.st51{clip-path:url(#SVGID_66_);fill:url(#SVGID_67_);}
	.st52{clip-path:url(#SVGID_69_);fill:url(#SVGID_70_);}
	.st53{clip-path:url(#SVGID_72_);fill:url(#SVGID_73_);}
	.st54{clip-path:url(#SVGID_75_);fill:url(#SVGID_76_);}
	.st55{clip-path:url(#SVGID_78_);fill:#169CD8;}
	.st56{clip-path:url(#SVGID_78_);fill:#2E2C7D;}
</style>
<g>
	<g>
		<linearGradient id="SVGID_1_" gradientUnits="userSpaceOnUse" x1="106.3404" y1="24.9678" x2="4.4438" y2="41.3617">
			<stop  offset="0" style="stop-color:#53C0D6"/>
			<stop  offset="0.1524" style="stop-color:#60B4D1"/>
			<stop  offset="0.4837" style="stop-color:#798FBD"/>
			<stop  offset="0.9657" style="stop-color:#8F3E8F"/>
			<stop  offset="1" style="stop-color:#8F378C"/>
		</linearGradient>
		<path class="st0" d="M42.8,3.5h-9.8L0.3,66.8h8.4l10.1-19.9h22.4l3.2,19.9h8.7L42.8,3.5z M21.4,41.7l14.8-29.7l4.2,29.7H21.4z"/>
		<g>
			<linearGradient id="SVGID_2_" gradientUnits="userSpaceOnUse" x1="108.3978" y1="37.7556" x2="6.5012" y2="54.1495">
				<stop  offset="0" style="stop-color:#53C0D6"/>
				<stop  offset="0.1524" style="stop-color:#60B4D1"/>
				<stop  offset="0.4837" style="stop-color:#798FBD"/>
				<stop  offset="0.9657" style="stop-color:#8F3E8F"/>
				<stop  offset="1" style="stop-color:#8F378C"/>
			</linearGradient>
			<polygon class="st1" points="88.3,43 95.3,43 94.4,38.1 87.4,38.1 			"/>
			<linearGradient id="SVGID_3_" gradientUnits="userSpaceOnUse" x1="106.8314" y1="28.0195" x2="4.9348" y2="44.4134">
				<stop  offset="0" style="stop-color:#53C0D6"/>
				<stop  offset="0.1524" style="stop-color:#60B4D1"/>
				<stop  offset="0.4837" style="stop-color:#798FBD"/>
				<stop  offset="0.9657" style="stop-color:#8F3E8F"/>
				<stop  offset="1" style="stop-color:#8F378C"/>
			</linearGradient>
			<polygon class="st2" points="86.5,33.2 93.5,33.2 92.6,28.3 85.6,28.3 			"/>
			<linearGradient id="SVGID_4_" gradientUnits="userSpaceOnUse" x1="107.06" y1="29.4406" x2="5.1634" y2="45.8345">
				<stop  offset="0" style="stop-color:#53C0D6"/>
				<stop  offset="0.1524" style="stop-color:#60B4D1"/>
				<stop  offset="0.4837" style="stop-color:#798FBD"/>
				<stop  offset="0.9657" style="stop-color:#8F3E8F"/>
				<stop  offset="1" style="stop-color:#8F378C"/>
			</linearGradient>
			<polygon class="st3" points="98.4,47.8 91.4,47.8 92.9,56 63.1,56 56.1,13.3 85.2,13.3 87,23.5 94,23.5 90.3,3.1 47.3,3.1 
				57.7,66.3 101.8,66.3 			"/>
			<linearGradient id="SVGID_5_" gradientUnits="userSpaceOnUse" x1="107.8713" y1="34.4833" x2="5.9747" y2="50.8773">
				<stop  offset="0" style="stop-color:#53C0D6"/>
				<stop  offset="0.1524" style="stop-color:#60B4D1"/>
				<stop  offset="0.4837" style="stop-color:#798FBD"/>
				<stop  offset="0.9657" style="stop-color:#8F3E8F"/>
				<stop  offset="1" style="stop-color:#8F378C"/>
			</linearGradient>
			<polygon class="st4" points="97.6,38.1 96.7,33.2 103.7,33.2 104.5,38.1 			"/>
			<linearGradient id="SVGID_6_" gradientUnits="userSpaceOnUse" x1="109.4377" y1="44.2188" x2="7.541" y2="60.6127">
				<stop  offset="0" style="stop-color:#53C0D6"/>
				<stop  offset="0.1524" style="stop-color:#60B4D1"/>
				<stop  offset="0.4837" style="stop-color:#798FBD"/>
				<stop  offset="0.9657" style="stop-color:#8F3E8F"/>
				<stop  offset="1" style="stop-color:#8F378C"/>
			</linearGradient>
			<polygon class="st5" points="99.3,47.8 98.5,43 105.4,43 106.3,47.8 			"/>
			<linearGradient id="SVGID_7_" gradientUnits="userSpaceOnUse" x1="106.3048" y1="24.7467" x2="4.4082" y2="41.1406">
				<stop  offset="0" style="stop-color:#53C0D6"/>
				<stop  offset="0.1524" style="stop-color:#60B4D1"/>
				<stop  offset="0.4837" style="stop-color:#798FBD"/>
				<stop  offset="0.9657" style="stop-color:#8F3E8F"/>
				<stop  offset="1" style="stop-color:#8F378C"/>
			</linearGradient>
			<polygon class="st6" points="95.8,28.3 94.9,23.5 101.9,23.5 102.8,28.3 			"/>
		</g>
	</g>
	<g>
		<text transform="matrix(1 0 0 1 119.6896 35.9971)" class="st7 st8 st9">Amicus Online</text>
		<text transform="matrix(1 0 0 1 119.6866 65.8477)" class="st10 st8 st11">Platform For Conferences</text>
	</g>
</g>
<g>
	<g>
		<defs>
			<rect id="SVGID_8_" x="-933" y="-576" width="1930" height="1090"/>
		</defs>
		<clipPath id="SVGID_9_">
			<use xlink:href="#SVGID_8_"  style="overflow:visible;"/>
		</clipPath>
		<g class="st12">
			<defs>
				<rect id="SVGID_10_" x="-933" y="-576" width="1930" height="1090"/>
			</defs>
			<clipPath id="SVGID_11_">
				<use xlink:href="#SVGID_10_"  style="overflow:visible;"/>
			</clipPath>
			<g class="st13">
				<defs>
					<rect id="SVGID_12_" x="-933" y="-576" width="1930" height="1090"/>
				</defs>
				<clipPath id="SVGID_13_">
					<use xlink:href="#SVGID_12_"  style="overflow:visible;"/>
				</clipPath>
				<g class="st14">
					<g>
						<defs>
							<rect id="SVGID_14_" x="-928" y="-571" width="1920" height="1080"/>
						</defs>
						<clipPath id="SVGID_15_">
							<use xlink:href="#SVGID_14_"  style="overflow:visible;"/>
						</clipPath>
						<rect x="-928" y="-571" class="st15" width="1920" height="1080"/>
					</g>
				</g>
			</g>
			<g class="st13">
				<defs>
					<rect id="SVGID_16_" x="-933" y="-576" width="1930" height="1090"/>
				</defs>
				<clipPath id="SVGID_17_">
					<use xlink:href="#SVGID_16_"  style="overflow:visible;"/>
				</clipPath>
				<g class="st16">
					<g>
						<defs>
							<rect id="SVGID_18_" x="-928" y="-571" width="1920" height="78"/>
						</defs>
						<clipPath id="SVGID_19_">
							<use xlink:href="#SVGID_18_"  style="overflow:visible;"/>
						</clipPath>
						<rect x="-928" y="-571" class="st17" width="1920" height="78"/>
					</g>
				</g>
			</g>
			<g class="st13">
				<defs>
					<rect id="SVGID_20_" x="-933" y="-576" width="1930" height="1090"/>
				</defs>
				<clipPath id="SVGID_21_">
					<use xlink:href="#SVGID_20_"  style="overflow:visible;"/>
				</clipPath>
				<g class="st18">
					<g>
						<defs>
							<rect id="SVGID_22_" x="-920" y="-475" width="104" height="944"/>
						</defs>
						<clipPath id="SVGID_23_">
							<use xlink:href="#SVGID_22_"  style="overflow:visible;"/>
						</clipPath>
						<path class="st19" d="M-828,469h-80c-6.6,0-12-5.4-12-12v-920c0-6.6,5.4-12,12-12h80c6.6,0,12,5.4,12,12v920
							C-816,463.6-821.4,469-828,469"/>
					</g>
				</g>
				<path class="st20" d="M193.7,378h-45.3l-22.7,39l22.7,39h45.3l22.7-39L193.7,378z M158.9,420.8c-2.1,0-3.8-1.7-3.8-3.8
					c0-2.1,1.7-3.8,3.8-3.8c2.1,0,3.8,1.7,3.8,3.8C162.7,419.1,161,420.8,158.9,420.8 M171.1,420.8c-2.1,0-3.8-1.7-3.8-3.8
					c0-2.1,1.7-3.8,3.8-3.8s3.8,1.7,3.8,3.8C174.9,419.1,173.2,420.8,171.1,420.8 M183.3,420.8c-2.1,0-3.8-1.7-3.8-3.8
					c0-2.1,1.7-3.8,3.8-3.8c2.1,0,3.8,1.7,3.8,3.8C187.1,419.1,185.4,420.8,183.3,420.8"/>
				<path class="st21" d="M78.4,417h44.9l22.4-39l-22.4-39H78.4L56,378L78.4,417z M97.8,392.6c-0.2,2.1-0.4,4.2-0.7,6.3
					c-0.1,0.8-0.2,1.7-0.3,2.5c-0.2,1.3-0.8,1.8-1.7,1.9c-0.9,0.2-1.8,0.4-2.8,0.7c0.6-5.4,1.3-10.8,1.9-16.3c0.6,0.6,1.1,1,1.6,1.5
					c0.4,0.3,0.7,0.7,1.1,1C97.6,390.7,97.8,391.6,97.8,392.6 M119.6,359.1c0.6,0.7,0.7,1.5,0.7,2.4c0,0.4,0,0.8-0.1,1.3
					c-0.1,0.5-0.3,0.9-0.8,1.2c-2.6,1.6-5.2,3.2-7.8,4.8c-0.2,0.1-0.5,0.2-0.8,0.2c-1-0.1-1.9-0.5-2.7-1.1c-0.2-0.1-0.3-0.3-0.4-0.5
					c-0.2-0.3-0.2-0.5,0.1-0.7c0.6-0.4,1.2-0.9,1.8-1.3c3.2-2,6.4-4,9.7-6C119.4,359.2,119.5,359.2,119.6,359.1 M81.7,386
					c0.6-4.1,2-7.9,3.6-11.7c0.7-1.7,1.5-3.4,2.4-5c1.5-2.8,3.6-5.1,5.8-7.2c3.5-3.4,7.5-6.3,11.7-8.8c2.4-1.4,5-1.7,7.7-0.7
					c2.1,0.8,3.8,2.3,5.2,4c0.3,0.4,0.6,0.8,0.9,1.2c-0.3,0.2-0.6,0.4-0.9,0.6c-3.7,2.4-7.4,4.7-11.1,7.1c-0.2,0.1-0.4,0.2-0.6,0.1
					c-2.5-1.7-5.1-0.4-6.4,1.5c-2.9,4.6-5.7,9.4-8.5,14.1c-0.3,0.6-0.6,1.2-0.9,1.8c-0.8,1.7-0.3,3.3,1.2,4.7
					c0.1,0.1,0.2,0.2,0.3,0.3c0.6,0.3,0.6,0.7,0.5,1.3c-0.6,4.6-1.2,9.1-1.7,13.7c0,0,0,0.1,0,0.2c-0.1-0.1-0.2-0.1-0.3-0.2
					c-2.5-1.4-4.7-3.2-6.7-5.2c-1.2-1.3-1.9-3-2.2-4.8C81.2,390.6,81.3,388.3,81.7,386"/>
				<path class="st20" d="M30.8,414.7c-1.5,0-2.7,1.2-2.7,2.7c0,1.5,1.2,2.7,2.7,2.7c1.5,0,2.7-1.1,2.7-2.6
					C33.5,415.9,32.3,414.7,30.8,414.7 M30.9,418.9c-1,0-1.6-0.6-1.6-1.5c0-0.9,0.6-1.6,1.5-1.6c0.9,0,1.5,0.6,1.6,1.4
					C32.4,418.3,31.8,418.9,30.9,418.9"/>
				<path class="st20" d="M55.7,402.9c0-2.3-1-3.3-3.3-3.3c-8.1,0-16.2,0-24.3,0c-6.5,0-13,0-19.5,0.1c-1.8,0-3,1-3,2.7
					c0,10,0,20,0,30c0,1.5,1.1,2.6,2.6,2.6c0.4,0,0.8,0,1.2,0c1.6,0,3.1,0,4.7,0c1.6,0,3.3,0.1,4.9,0.1c5.3,0,10.6,0,15.9-0.1
					c0.5,0,1.1,0,1.6,0l1,0c2,0,4.1,0,6.1,0c0.3,0,0.7,0,1,0c1.7,0,3.4,0,5.1,0c0.1,0,0.1,0,0.2,0c0.6,0,1.2,0,1.8,0
					c2.6,0.4,3.9-0.7,3.9-3.5C55.7,421.8,55.7,412.3,55.7,402.9 M36.7,419c-1.5,1.2-3.1,2.3-5.1,2.7c-0.3,0.1-0.7,0.1-0.9,0.1
					c-3.1-0.2-5.3-1.9-7.2-4c-0.2-0.2-0.3-0.4-0.1-0.7c2-2.1,4.2-4,7.4-4c2.4,0,4.2,1.4,5.9,2.7C38.7,417.4,38.7,417.4,36.7,419"/>
				<path class="st20" d="M53.4,378H8l-22.7,39L8,456h45.3L76,417L53.4,378z M53,437.6c-4.4,0-8.9,0-13.3,0c-0.8,0-1.2,0.3-1.1,1.1
					c0.1,0.7,0,1.3,0,2c0,0.7,0.2,1.2,1,1c0.3,0,0.7,0,1,0c1.2,0,1.9,0.5,1.9,1.3c0,0.9-0.6,1.4-1.8,1.4c-3.8,0-7.6,0-11.3,0
					c-3,0-5.9,0-8.9,0c-0.6,0-1.1-0.2-1.4-0.8c-0.3-0.5-0.1-1,0.2-1.4c0.3-0.4,0.8-0.5,1.3-0.5c2.3-0.1,2.3-0.1,2.3-2.3
					c0-2,0.1-1.7-1.7-1.7c-4.2,0-8.4,0-12.6,0c-3.1,0-5.4-2.2-5.4-5.3c0-9.9,0-19.8,0-29.7c0-3.3,2.3-5.4,5.6-5.4
					c7.4,0,14.7,0,22.1,0v0c7.4,0,14.8,0,22.2,0c2.9,0,5.3,2.3,5.3,5.2c0,10,0,20,0,30C58.3,435.4,56,437.6,53,437.6"/>
				<path class="st20" d="M-88.4,378h-45.3l-22.7,39l22.7,39h45.3l22.7-39L-88.4,378z M-85.6,429.1c0,2.6-1.9,4.5-4.5,4.5
					c-7.9,0-15.7,0-23.6,0c-1,0-1.8,0.3-2.5,1.1c-2,2.3-4.1,4.6-6.2,6.9c-0.2,0.2-0.4,0.5-0.7,0.7l-0.2-0.1c0-1.6,0-3.2,0-4.9
					c0-0.6,0-1.3,0-1.9c-0.1-1.2-0.9-1.9-2-1.9c-2.1,0-4.3,0-6.4,0c-2.9,0-4.7-1.8-4.7-4.6c0-8.4,0-16.8,0-25.1
					c0-2.7,1.9-4.5,4.7-4.5c13.1,0,26.2,0,39.3,0c0.7,0,1.4,0,2.1,0c2.7,0,4.6,1.9,4.6,4.6c0,6.9,0,13.9,0,20.8
					C-85.6,426.1-85.6,427.6-85.6,429.1"/>
				<line class="st22" x1="-128.1" y1="407.2" x2="-94.5" y2="407.2"/>
				<line class="st22" x1="-127.8" y1="415.6" x2="-110.8" y2="415.6"/>
				<line class="st22" x1="-127.8" y1="423.8" x2="-94.3" y2="423.8"/>
				<path class="st23" d="M-17.4,339h-45.6l-22.8,39l22.8,39h45.6l22.8-39L-17.4,339z M-37,363.4c0.2-2.1,0.4-4.2,0.7-6.3
					c0.1-0.8,0.2-1.7,0.3-2.5c0.2-1.3,0.8-1.8,1.7-1.9c0.9-0.2,1.8-0.4,2.9-0.7c-0.7,5.4-1.3,10.8-2,16.3c-0.6-0.6-1.1-1-1.6-1.5
					c-0.4-0.3-0.7-0.7-1.1-1C-36.9,365.2-37.1,364.3-37,363.4 M-59.2,396.9c-0.6-0.7-0.7-1.5-0.7-2.4c0-0.4,0-0.8,0.1-1.3
					c0.1-0.5,0.3-0.9,0.8-1.2c2.7-1.6,5.3-3.2,8-4.8c0.2-0.1,0.5-0.2,0.8-0.2c1,0.1,1.9,0.5,2.7,1.1c0.2,0.1,0.3,0.3,0.4,0.5
					c0.2,0.3,0.2,0.5-0.1,0.7c-0.6,0.4-1.2,0.9-1.8,1.3c-3.3,2-6.5,4-9.8,6C-59,396.8-59.1,396.8-59.2,396.9 M-20.7,369.9
					c-0.6,4.1-2,7.9-3.7,11.7c-0.8,1.7-1.5,3.4-2.4,5c-1.5,2.8-3.6,5.1-5.9,7.2c-3.6,3.4-7.6,6.3-11.9,8.8c-2.5,1.4-5.1,1.7-7.8,0.7
					c-2.1-0.8-3.8-2.3-5.2-4c-0.3-0.4-0.6-0.8-0.9-1.2c0.3-0.2,0.6-0.4,0.9-0.6c3.8-2.4,7.5-4.7,11.3-7.1c0.2-0.1,0.4-0.2,0.6-0.1
					c2.6,1.7,5.2,0.4,6.5-1.5c2.9-4.6,5.7-9.4,8.6-14.1c0.3-0.6,0.6-1.2,0.9-1.8c0.8-1.7,0.3-3.3-1.3-4.7c-0.1-0.1-0.2-0.2-0.3-0.3
					c-0.6-0.3-0.6-0.7-0.6-1.3c0.6-4.6,1.2-9.1,1.8-13.7c0,0,0-0.1,0-0.2c0.1,0.1,0.2,0.1,0.3,0.2c2.6,1.4,4.8,3.2,6.8,5.2
					c1.3,1.3,1.9,3,2.3,4.8C-20.2,365.4-20.3,367.6-20.7,369.9"/>
			</g>
			<g class="st13">
				<defs>
					<path id="SVGID_24_" d="M864.5,434.8c0,12.6,10.2,22.8,22.8,22.8c12.6,0,22.8-10.2,22.8-22.8c0-12.6-10.2-22.8-22.8-22.8
						C874.7,412,864.5,422.2,864.5,434.8"/>
				</defs>
				<clipPath id="SVGID_25_">
					<use xlink:href="#SVGID_24_"  style="overflow:visible;"/>
				</clipPath>
				<path class="st24" d="M901.6,410h-28.8l-14.4,24.8l14.4,24.8h28.8l14.4-24.8L901.6,410z M903.4,442.4c0,1.7-1.2,2.9-2.9,2.9
					c-5,0-10,0-15,0c-0.7,0-1.1,0.2-1.6,0.7c-1.3,1.5-2.6,2.9-3.9,4.4c-0.1,0.2-0.3,0.3-0.4,0.5c0,0-0.1,0-0.1,0c0-1,0-2.1,0-3.1
					c0-0.4,0-0.8,0-1.2c0-0.7-0.6-1.2-1.3-1.2c-1.4,0-2.7,0-4.1,0c-1.8,0-3-1.1-3-3c0-5.3,0-10.7,0-16c0-1.7,1.2-2.9,3-2.9
					c8.3,0,16.7,0,25,0c0.5,0,0.9,0,1.4,0c1.7,0,2.9,1.2,2.9,2.9c0,4.4,0,8.8,0,13.2C903.4,440.6,903.4,441.5,903.4,442.4"/>
				<line class="st25" x1="876.4" y1="428.5" x2="897.7" y2="428.5"/>
				<line class="st25" x1="876.6" y1="433.9" x2="887.4" y2="433.9"/>
				<line class="st25" x1="876.6" y1="439.1" x2="897.9" y2="439.1"/>
			</g>
			<g class="st13">
				<defs>
					<rect id="SVGID_26_" x="-933" y="-576" width="1930" height="1090"/>
				</defs>
				<clipPath id="SVGID_27_">
					<use xlink:href="#SVGID_26_"  style="overflow:visible;"/>
				</clipPath>
				<line class="st26" x1="626" y1="455" x2="864" y2="455"/>
				<path class="st27" d="M-821-411.5c0,25.7-20.8,46.5-46.5,46.5s-46.5-20.8-46.5-46.5c0-25.7,20.8-46.5,46.5-46.5
					S-821-437.2-821-411.5"/>
				<path class="st27" d="M-821-306.5c0,25.7-20.8,46.5-46.5,46.5s-46.5-20.8-46.5-46.5c0-25.7,20.8-46.5,46.5-46.5
					S-821-332.2-821-306.5"/>
				<path class="st27" d="M-821-201.5c0,25.7-20.8,46.5-46.5,46.5s-46.5-20.8-46.5-46.5c0-25.7,20.8-46.5,46.5-46.5
					S-821-227.2-821-201.5"/>
				<path class="st27" d="M-821-96.5c0,25.7-20.8,46.5-46.5,46.5S-914-70.8-914-96.5c0-25.7,20.8-46.5,46.5-46.5
					S-821-122.2-821-96.5"/>
				<path class="st27" d="M-821,8.5c0,25.7-20.8,46.5-46.5,46.5S-914,34.2-914,8.5c0-25.7,20.8-46.5,46.5-46.5S-821-17.2-821,8.5"/>
				<path class="st27" d="M-821,113.5c0,25.7-20.8,46.5-46.5,46.5s-46.5-20.8-46.5-46.5c0-25.7,20.8-46.5,46.5-46.5
					S-821,87.8-821,113.5"/>
				<path class="st27" d="M-821,218.5c0,25.7-20.8,46.5-46.5,46.5s-46.5-20.8-46.5-46.5c0-25.7,20.8-46.5,46.5-46.5
					S-821,192.8-821,218.5"/>
				<path class="st27" d="M-821,323.5c0,25.7-20.8,46.5-46.5,46.5s-46.5-20.8-46.5-46.5s20.8-46.5,46.5-46.5S-821,297.8-821,323.5"
					/>
				<polygon class="st27" points="-868.5,454.6 -905.6,433 -915,433 -868.5,460 -822,433 -831.4,433 				"/>
				<g class="st28">
					<g>
						<defs>
							<rect id="SVGID_28_" x="-916" y="410.9" width="96" height="3"/>
						</defs>
						<clipPath id="SVGID_29_">
							<use xlink:href="#SVGID_28_"  style="overflow:visible;"/>
						</clipPath>
						<line class="st29" x1="-914.5" y1="412.4" x2="-821.5" y2="412.4"/>
					</g>
				</g>
				<g class="st28">
					<g>
						<defs>
							<rect id="SVGID_30_" x="608" y="-473" width="362" height="942"/>
						</defs>
						<clipPath id="SVGID_31_">
							<use xlink:href="#SVGID_30_"  style="overflow:visible;"/>
						</clipPath>
						<path class="st30" d="M958-473H620c-6.6,0-12,5.4-12,12v918c0,6.6,5.4,12,12,12h338c6.6,0,12-5.4,12-12v-918
							C970-467.6,964.6-473,958-473 M964.9,252c0.1,31.5,0.1,63.1,0,94.6c0,10.9-7.9,17.4-20.6,17.5c-9.3,0-18.6,0-27.9,0
							c-5.1,0-8.6,2.8-8.9,7.2c-0.2,2.4-0.1,4.8-0.1,7.2c0,6.1,0,12.2,0,18.3c-0.3,0.1-0.5,0.1-0.8,0.2c-1-0.9-1.9-1.8-2.9-2.7
							c-9-8.7-18-17.3-26.9-26.1c-2.9-2.9-6.3-4.2-10.8-4.2c-34.3,0.1-68.6,0.1-102.9,0c-11.5,0-19.6-7.1-19.7-17c0-5.5,0-11,0-16.5
							c0-26.1-0.1-52.3,0-78.4c0-10.2,8.2-17.2,20.1-17.2c3.1,0,6.2,0,9.3,0c57.1,0,114.2,0,171.4,0
							C956.8,235,964.9,241.7,964.9,252 M612.7,104c0-10.4,8.1-17,20.5-17c57.1,0,114.2,0,171.4,0c3.1,0,6.2,0,9.3,0
							c11.9,0.1,20.1,7,20.1,17.2c0,26.1,0,52.3,0,78.4c0,5.5,0,11,0,16.5c0,9.9-8.2,17-19.7,17c-34.3,0-68.6,0.1-102.9,0
							c-4.5,0-7.8,1.3-10.8,4.2c-8.9,8.8-17.9,17.4-26.9,26.1c-0.9,0.9-1.9,1.8-2.9,2.7c-0.3-0.1-0.5-0.1-0.8-0.2
							c0-6.1,0-12.2,0-18.3c0-2.4,0.1-4.8-0.1-7.2c-0.3-4.4-3.8-7.2-8.9-7.2c-9.3-0.1-18.6,0-27.9,0c-12.7,0-20.6-6.6-20.6-17.5
							C612.6,167.1,612.6,135.6,612.7,104 M965,450c0,6.6-5.4,12-12,12H625c-6.6,0-12-5.4-12-12v-30c0-6.6,5.4-12,12-12h328
							c6.6,0,12,5.4,12,12V450z"/>
					</g>
				</g>
				<line class="st26" x1="942.5" y1="425" x2="942.5" y2="433"/>
				<line class="st26" x1="932.5" y1="425" x2="932.5" y2="433"/>
				<path class="st26" d="M937.5,412c-12.4,0-22.5,10.1-22.5,22.5s10.1,22.5,22.5,22.5c12.4,0,22.5-10.1,22.5-22.5
					S949.9,412,937.5,412z M939,450.5c-6.7,0.7-13.3-3.9-15-11h27C949.6,445.5,944.7,449.9,939,450.5z"/>
				<path class="st26" d="M-586-438h-197c-6.6,0-12-5.4-12-12v-12c0-6.6,5.4-12,12-12h197c6.6,0,12,5.4,12,12v12
					C-574-443.4-579.4-438-586-438z"/>
				<path class="st27" d="M-769.8-459c0,3.5-2.9,6.4-6.4,6.4c-3.5,0-6.4-2.9-6.4-6.4c0-3.6,2.9-6.4,6.4-6.4
					C-772.7-465.4-769.8-462.5-769.8-459 M-776.2-453.7c2.9,0,5.2-2.3,5.2-5.2c0-2.9-2.3-5.2-5.2-5.2c-2.9,0-5.2,2.3-5.2,5.2
					C-781.4-456.1-779.1-453.7-776.2-453.7"/>
				<path class="st27" d="M-769.8-453.8c0.3,0,0.6,0.1,0.9,0.4c1,1,1.9,1.9,2.9,2.9c0.5,0.5,1,1,1.5,1.5c0.4,0.4,0.4,0.9,0.3,1.3
					c-0.2,0.5-0.7,0.7-1.2,0.7c-0.3,0-0.6-0.1-0.8-0.4c-1.1-1.1-2.1-2.1-3.2-3.2c-0.4-0.4-0.8-0.8-1.1-1.1c-0.4-0.4-0.4-0.8-0.3-1.3
					C-770.8-453.5-770.3-453.8-769.8-453.8"/>
				<path class="st27" d="M-770.9-454.8c0.3,0.3,0.5,0.5,0.8,0.8c-0.3,0-0.6,0.1-0.9,0.4c-0.2,0.2-0.4,0.5-0.4,0.9
					c-0.3-0.3-0.5-0.5-0.8-0.8C-771.6-454-771.2-454.4-770.9-454.8"/>
				<path class="st27" d="M-776.8-463.2c-1.5,0.8-2.5,2-2.8,3.7c-0.3,1.7,0.2,3.2,1.4,4.4c-1.1-0.5-2.5-2-2.4-4
					C-780.4-461.4-778.7-463-776.8-463.2"/>
				<g class="st31">
					<g>
						<defs>
							<rect id="SVGID_32_" x="-755.7" y="-464.5" width="67.6" height="19.9"/>
						</defs>
						<clipPath id="SVGID_33_">
							<use xlink:href="#SVGID_32_"  style="overflow:visible;"/>
						</clipPath>
						<g style="clip-path:url(#SVGID_33_);">
							
								<text transform="matrix(1 0 0 1 -755.6904 -449.6606)" style="fill:#818BC5; font-family:'Calibri-Italic'; font-size:18.1932px;">Найти...</text>
						</g>
					</g>
				</g>
				<line class="st26" x1="-547" y1="-462.7" x2="-566.8" y2="-462.7"/>
				<line class="st26" x1="-547.2" y1="-455.1" x2="-567" y2="-455.1"/>
				<line class="st26" x1="-547.2" y1="-448.3" x2="-567" y2="-448.3"/>
				<g class="st32">
					<g>
						<defs>
							<rect id="SVGID_34_" x="-795" y="-349" width="248" height="92"/>
						</defs>
						<clipPath id="SVGID_35_">
							<use xlink:href="#SVGID_34_"  style="overflow:visible;"/>
						</clipPath>
						<rect x="-795" y="-349" class="st33" width="248" height="92"/>
					</g>
				</g>
				<g class="st32">
					<g>
						<defs>
							<rect id="SVGID_36_" x="-795" y="-243" width="248" height="92"/>
						</defs>
						<clipPath id="SVGID_37_">
							<use xlink:href="#SVGID_36_"  style="overflow:visible;"/>
						</clipPath>
						<rect x="-795" y="-243" class="st34" width="248" height="92"/>
					</g>
				</g>
				<path class="st27" d="M-761.4-298.9c-3.2-3.1-5.2-7.5-5.2-12.3c0-9.5,7.7-17.2,17.2-17.2c9.5,0,17.2,7.7,17.2,17.2
					c0,4.8-2,9.2-5.2,12.3c8.3,3.7,14.6,11.3,16.6,20.4l13.6-23.6l-21.1-36.5h-42.1l-21.1,36.5l13.6,23.6
					C-776-287.7-769.7-295.2-761.4-298.9"/>
				<polygon class="st27" points="-776.5,-270 -770.5,-259.7 -728.4,-259.7 -722.5,-270 				"/>
				<path class="st27" d="M-761.4-192.9c-3.2-3.1-5.2-7.5-5.2-12.3c0-9.5,7.7-17.2,17.2-17.2c9.5,0,17.2,7.7,17.2,17.2
					c0,4.8-2,9.2-5.2,12.3c8.3,3.7,14.6,11.3,16.6,20.4l13.6-23.6l-21.1-36.5h-42.1l-21.1,36.5l13.6,23.6
					C-776-181.7-769.7-189.2-761.4-192.9"/>
				<polygon class="st27" points="-776.5,-164 -770.5,-153.7 -728.4,-153.7 -722.5,-164 				"/>
				<g class="st32">
					<g>
						<defs>
							<rect id="SVGID_38_" x="-795" y="-137" width="248" height="92"/>
						</defs>
						<clipPath id="SVGID_39_">
							<use xlink:href="#SVGID_38_"  style="overflow:visible;"/>
						</clipPath>
						<rect x="-795" y="-137" class="st35" width="248" height="92"/>
					</g>
				</g>
				<g class="st32">
					<g>
						<defs>
							<rect id="SVGID_40_" x="-795" y="-31" width="248" height="92"/>
						</defs>
						<clipPath id="SVGID_41_">
							<use xlink:href="#SVGID_40_"  style="overflow:visible;"/>
						</clipPath>
						<rect x="-795" y="-31" class="st36" width="248" height="92"/>
					</g>
				</g>
				<path class="st27" d="M-761.4-86.9c-3.2-3.1-5.2-7.5-5.2-12.3c0-9.5,7.7-17.2,17.2-17.2c9.5,0,17.2,7.7,17.2,17.2
					c0,4.8-2,9.2-5.2,12.3c8.3,3.7,14.6,11.3,16.6,20.4l13.6-23.6l-21.1-36.5h-42.1l-21.1,36.5l13.6,23.6
					C-776-75.7-769.7-83.2-761.4-86.9"/>
				<polygon class="st27" points="-776.5,-58 -770.5,-47.7 -728.4,-47.7 -722.5,-58 				"/>
				<path class="st27" d="M-761.4,19.1c-3.2-3.1-5.2-7.5-5.2-12.3c0-9.5,7.7-17.2,17.2-17.2c9.5,0,17.2,7.7,17.2,17.2
					c0,4.8-2,9.2-5.2,12.3c8.3,3.7,14.6,11.3,16.6,20.4l13.6-23.6l-21.1-36.5h-42.1l-21.1,36.5l13.6,23.6
					C-776,30.3-769.7,22.8-761.4,19.1"/>
				<polygon class="st27" points="-776.5,48 -770.5,58.3 -728.4,58.3 -722.5,48 				"/>
				<g class="st32">
					<g>
						<defs>
							<rect id="SVGID_42_" x="-795" y="75" width="248" height="92"/>
						</defs>
						<clipPath id="SVGID_43_">
							<use xlink:href="#SVGID_42_"  style="overflow:visible;"/>
						</clipPath>
						<rect x="-795" y="75" class="st37" width="248" height="92"/>
					</g>
				</g>
				<g class="st32">
					<g>
						<defs>
							<rect id="SVGID_44_" x="-795" y="181" width="248" height="92"/>
						</defs>
						<clipPath id="SVGID_45_">
							<use xlink:href="#SVGID_44_"  style="overflow:visible;"/>
						</clipPath>
						<rect x="-795" y="181" class="st38" width="248" height="92"/>
					</g>
				</g>
				<path class="st27" d="M-761.4,125.1c-3.2-3.1-5.2-7.5-5.2-12.3c0-9.5,7.7-17.2,17.2-17.2c9.5,0,17.2,7.7,17.2,17.2
					c0,4.8-2,9.2-5.2,12.3c8.3,3.7,14.6,11.3,16.6,20.4l13.6-23.6l-21.1-36.5h-42.1l-21.1,36.5l13.6,23.6
					C-776,136.3-769.7,128.8-761.4,125.1"/>
				<polygon class="st27" points="-776.5,154 -770.5,164.3 -728.4,164.3 -722.5,154 				"/>
				<path class="st27" d="M-761.4,231.1c-3.2-3.1-5.2-7.5-5.2-12.3c0-9.5,7.7-17.2,17.2-17.2c9.5,0,17.2,7.7,17.2,17.2
					c0,4.8-2,9.2-5.2,12.3c8.3,3.7,14.6,11.3,16.6,20.4l13.6-23.6l-21.1-36.5h-42.1l-21.1,36.5l13.6,23.6
					C-776,242.3-769.7,234.8-761.4,231.1"/>
				<polygon class="st27" points="-776.5,260 -770.5,270.3 -728.4,270.3 -722.5,260 				"/>
				<g class="st32">
					<g>
						<defs>
							<rect id="SVGID_46_" x="-795" y="287" width="248" height="92"/>
						</defs>
						<clipPath id="SVGID_47_">
							<use xlink:href="#SVGID_46_"  style="overflow:visible;"/>
						</clipPath>
						<rect x="-795" y="287" class="st39" width="248" height="92"/>
					</g>
				</g>
				<path class="st27" d="M-761.4,337.1c-3.2-3.1-5.2-7.5-5.2-12.3c0-9.5,7.7-17.2,17.2-17.2c9.5,0,17.2,7.7,17.2,17.2
					c0,4.8-2,9.2-5.2,12.3c8.3,3.7,14.6,11.3,16.6,20.4l13.6-23.6l-21.1-36.5h-42.1l-21.1,36.5l13.6,23.6
					C-776,348.3-769.7,340.8-761.4,337.1"/>
				<polygon class="st27" points="-776.5,366 -770.5,376.3 -728.4,376.3 -722.5,366 				"/>
				<polygon class="st27" points="-671,424.7 -770,393 -795,393 -671,432.7 -547,393 -572,393 				"/>
				<polygon class="st27" points="-671,435.7 -770,404 -795,404 -671,443.7 -547,404 -572,404 				"/>
				<line class="st40" x1="-691.1" y1="-329" x2="-590.4" y2="-329"/>
				<line class="st40" x1="-690.2" y1="-303.6" x2="-639.1" y2="-303.6"/>
				<line class="st40" x1="-690.2" y1="-279" x2="-589.5" y2="-279"/>
				<line class="st40" x1="-691.1" y1="-222" x2="-590.4" y2="-222"/>
				<line class="st40" x1="-690.2" y1="-196.6" x2="-639.1" y2="-196.6"/>
				<line class="st40" x1="-690.2" y1="-172" x2="-589.5" y2="-172"/>
				<line class="st40" x1="-690.1" y1="-115" x2="-589.4" y2="-115"/>
				<line class="st40" x1="-689.2" y1="-89.6" x2="-638.1" y2="-89.6"/>
				<line class="st40" x1="-689.2" y1="-65" x2="-588.5" y2="-65"/>
				<line class="st40" x1="-690.1" y1="-8" x2="-589.4" y2="-8"/>
				<line class="st40" x1="-689.2" y1="17.4" x2="-638.1" y2="17.4"/>
				<line class="st40" x1="-689.2" y1="42" x2="-588.5" y2="42"/>
				<line class="st40" x1="-689.1" y1="91" x2="-588.4" y2="91"/>
				<line class="st40" x1="-688.2" y1="116.4" x2="-637.1" y2="116.4"/>
				<line class="st40" x1="-688.2" y1="141" x2="-587.5" y2="141"/>
				<line class="st40" x1="-688.1" y1="198" x2="-587.4" y2="198"/>
				<line class="st40" x1="-687.2" y1="223.4" x2="-636.1" y2="223.4"/>
				<line class="st40" x1="-687.2" y1="248" x2="-586.5" y2="248"/>
				<line class="st40" x1="-688.1" y1="305" x2="-587.4" y2="305"/>
				<line class="st40" x1="-687.2" y1="330.4" x2="-636.1" y2="330.4"/>
				<line class="st40" x1="-687.2" y1="355" x2="-586.5" y2="355"/>
				<polygon class="st27" points="-671,-394.7 -572,-363 -547,-363 -671,-402.7 -795,-363 -770,-363 				"/>
				<polygon class="st27" points="-671,-405.7 -572,-374 -547,-374 -671,-413.7 -795,-374 -770,-374 				"/>
				<path class="st41" d="M969.9-536c-0.1-0.8-0.2-1.5-0.3-2.3c-0.1-0.4-0.3-0.6-0.7-0.6c-1,0-1.9,0-2.9,0c-0.2,0-0.2,0-0.3-0.2
					c-0.4-1.7-1.1-3.2-1.9-4.7c-0.1-0.2,0-0.2,0.1-0.3c0.7-0.7,1.3-1.3,2-2c0.4-0.4,0.4-0.6,0.1-1c-1.8-2.7-4.1-4.9-6.7-6.7
					c-0.4-0.3-0.6-0.2-1,0.1c-0.7,0.7-1.4,1.4-2,2c-0.1,0.1-0.2,0.1-0.3,0c-1.5-0.8-3-1.5-4.7-1.9c-0.2-0.1-0.3-0.1-0.3-0.3
					c0-0.9,0-1.9,0-2.8c0-0.5-0.1-0.7-0.6-0.8c-1.1-0.2-2.2-0.3-3.4-0.4c-0.1,0-0.3,0-0.4,0h-2c-0.5,0-1,0.1-1.5,0.1
					c-0.8,0.1-1.5,0.2-2.3,0.3c-0.4,0.1-0.5,0.3-0.5,0.7c0,1,0,2,0,2.9c0,0.2-0.1,0.2-0.2,0.3c-1.7,0.5-3.2,1.1-4.7,1.9
					c-0.1,0.1-0.2,0.1-0.3,0c-0.7-0.7-1.3-1.4-2-2c-0.4-0.4-0.6-0.4-1-0.1c-2.7,1.8-4.9,4.1-6.7,6.7c-0.3,0.4-0.2,0.6,0.1,0.9
					c0.7,0.7,1.4,1.4,2,2c0.1,0.1,0.1,0.2,0.1,0.4c-0.8,1.5-1.5,3-1.9,4.7c-0.1,0.2-0.1,0.2-0.3,0.2c-1,0-1.9,0-2.9,0
					c-0.5,0-0.7,0.1-0.7,0.6c-0.2,1.1-0.3,2.3-0.4,3.4c0,0.1,0,0.2,0,0.4v2c0,0.5,0.1,1,0.2,1.6c0.1,0.8,0.2,1.5,0.3,2.3
					c0.1,0.4,0.3,0.5,0.7,0.5c1,0,2,0,2.9,0c0.2,0,0.2,0,0.3,0.2c0.4,1.7,1.1,3.2,2,4.7c0.1,0.2,0,0.2-0.1,0.3c-0.7,0.7-1.4,1.4-2,2
					c-0.3,0.3-0.3,0.6-0.1,0.9c1.8,2.7,4.1,4.9,6.7,6.7c0.4,0.3,0.6,0.2,0.9-0.1c0.7-0.7,1.4-1.4,2-2c0.1-0.1,0.2-0.1,0.3,0
					c1.5,0.9,3.1,1.5,4.7,1.9c0.2,0,0.2,0.1,0.2,0.3c0,1,0,1.9,0,2.9c0,0.5,0.2,0.7,0.6,0.7c1.2,0.2,2.4,0.3,3.6,0.4
					c0.1,0,0.1,0,0.2,0h2c0.5,0,1-0.1,1.5-0.1c0.8-0.1,1.5-0.2,2.3-0.3c0.4-0.1,0.5-0.3,0.6-0.7c0-1,0-1.9,0-2.9
					c0-0.2,0.1-0.2,0.2-0.3c1.7-0.5,3.2-1.1,4.7-1.9c0.1-0.1,0.2-0.1,0.3,0c0.7,0.7,1.4,1.4,2,2c0.3,0.3,0.6,0.4,1,0.1
					c2.7-1.8,4.9-4.1,6.8-6.8c0.2-0.4,0.2-0.6-0.1-0.9c-0.7-0.7-1.4-1.4-2.1-2.1c-0.1-0.1-0.1-0.2,0-0.3c0.9-1.5,1.5-3.1,1.9-4.7
					c0-0.2,0.1-0.2,0.3-0.2c1,0,1.9,0,2.9,0c0.5,0,0.7-0.2,0.7-0.6c0.2-1.2,0.3-2.3,0.4-3.5c0-0.1,0-0.2,0-0.3v-2
					C970-535,969.9-535.5,969.9-536 M956.9-533.5c0,6.3-5.1,11.4-11.4,11.4c-6.3,0-11.4-5.1-11.4-11.4c0-6.3,5.1-11.3,11.4-11.3
					C951.8-544.9,956.9-539.8,956.9-533.5"/>
			</g>
			<g class="st13">
				<text transform="matrix(1 0 0 1 819.791 -532.0469)" style="fill:#169CD8; font-family:'Calibri-Italic'; font-size:26px;">User21</text>
			</g>
			<g class="st13">
				<defs>
					<rect id="SVGID_48_" x="-933" y="-576" width="1930" height="1090"/>
				</defs>
				<clipPath id="SVGID_49_">
					<use xlink:href="#SVGID_48_"  style="overflow:visible;"/>
				</clipPath>
				<path class="st42" d="M769.1-531c-2.2-2.1-3.5-5.1-3.5-8.3c0-6.4,5.2-11.6,11.6-11.6c6.4,0,11.6,5.2,11.6,11.6
					c0,3.3-1.4,6.2-3.5,8.3c5.6,2.5,9.9,7.6,11.2,13.8l9.3-16L791.5-558h-28.6l-14.3,24.8l9.3,16C759.2-523.4,763.4-528.5,769.1-531
					"/>
				<polygon class="st42" points="758.9,-511.4 762.9,-504.4 791.5,-504.4 795.5,-511.4 				"/>
			</g>
			<g class="st13">
				<text transform="matrix(1 0 0 1 819.791 -515.8086)" style="fill:#616160; font-family:'Calibri-Italic'; font-size:16px;">Он-лайн</text>
			</g>
			<g class="st13">
				<defs>
					<rect id="SVGID_50_" x="-933" y="-576" width="1930" height="1090"/>
				</defs>
				<clipPath id="SVGID_51_">
					<use xlink:href="#SVGID_50_"  style="overflow:visible;"/>
				</clipPath>
				<line class="st43" x1="485" y1="397" x2="513" y2="425"/>
				<g class="st44">
					<g>
						<defs>
							<rect id="SVGID_52_" x="-519" y="-465" width="1105" height="791"/>
						</defs>
						<clipPath id="SVGID_53_">
							<use xlink:href="#SVGID_52_"  style="overflow:visible;"/>
						</clipPath>
						<path class="st45" d="M574-465H-507c-6.6,0-12,5.4-12,12v767c0,6.6,5.4,12,12,12H574c6.6,0,12-5.4,12-12v-767
							C586-459.6,580.6-465,574-465 M544.1,291.4c-1.8,1.9-3.6,3.6-5.4,5.4c-3.6,3.6-7.3,7.3-10.9,10.9c-0.1,0.1-0.2,0.2-0.4,0.4
							h0.7c2.5,0,4.9,0,7.4,0c1.8,0,3.3,1.2,3.8,2.9c0.5,1.8-0.3,3.6-1.9,4.4c-0.5,0.3-1.2,0.5-1.8,0.5c-7.1,0-14.1,0-21.2,0
							c-0.1,0-0.1,0-0.3,0v-1.3c0-6.7,0-13.3,0-20c0-2.7,2.5-4.6,5-3.8c1.7,0.5,2.7,2,2.8,3.8c0,2.4,0,4.7,0,7.1v0.9
							c0.2-0.2,0.4-0.3,0.5-0.5c5.3-5.3,10.5-10.5,15.8-15.8c1.2-1.2,2.5-1.8,4.2-1.4C545.1,285.7,546.1,289.2,544.1,291.4
							 M576,258.5c0,5.3,0,10.6,0,15.8c0,1.7-0.8,2.9-2.3,3.6c-1.5,0.7-2.9,0.4-4.1-0.6c-0.9-0.8-1.4-1.9-1.3-3.1c0-2.3,0-4.7,0-7
							v-0.8c-0.2,0.2-0.3,0.3-0.4,0.4c-4.8,4.8-9.6,9.6-14.4,14.4c-0.6,0.6-1.2,1.2-1.8,1.8c-1.6,1.6-4,1.6-5.6,0
							c-1.5-1.5-1.5-4,0.1-5.6c5.4-5.4,10.7-10.7,16.1-16.1c0.1-0.1,0.3-0.2,0.5-0.3c0-0.1-0.1-0.1-0.1-0.2h-0.7c-2.4,0-4.9,0-7.3,0
							c-1.8,0-3.3-1.2-3.7-2.9c-0.4-1.7,0.3-3.5,1.9-4.3c0.6-0.3,1.3-0.5,1.9-0.5c7,0,14,0,21,0c0.1,0,0.2,0,0.4,0V258.5z"/>
					</g>
				</g>
				<g class="st46">
					<g>
						<defs>
							<rect id="SVGID_54_" x="-529" y="-474" width="1127" height="942"/>
						</defs>
						<clipPath id="SVGID_55_">
							<use xlink:href="#SVGID_54_"  style="overflow:visible;"/>
						</clipPath>
						<path class="st47" d="M586-474H-517c-6.6,0-12,5.4-12,12v918c0,6.6,5.4,12,12,12H586c6.6,0,12-5.4,12-12v-918
							C598-468.6,592.6-474,586-474 M544.1,291.4c-1.8,1.9-3.6,3.6-5.4,5.4c-3.6,3.6-7.3,7.3-10.9,10.9c-0.1,0.1-0.2,0.2-0.4,0.4
							h0.7c2.5,0,4.9,0,7.4,0c1.8,0,3.3,1.2,3.8,2.9c0.5,1.8-0.3,3.6-1.9,4.4c-0.5,0.3-1.2,0.5-1.8,0.5c-7.1,0-14.1,0-21.2,0
							c-0.1,0-0.1,0-0.3,0v-1.3c0-6.7,0-13.3,0-20c0-2.7,2.5-4.6,5-3.8c1.7,0.5,2.7,2,2.8,3.8c0,2.4,0,4.7,0,7.1v0.9
							c0.2-0.2,0.4-0.3,0.5-0.5c5.3-5.3,10.5-10.5,15.8-15.8c1.2-1.2,2.5-1.8,4.2-1.4C545.1,285.7,546.1,289.2,544.1,291.4
							 M576,258.5c0,5.3,0,10.6,0,15.8c0,1.7-0.8,2.9-2.3,3.6c-1.5,0.7-2.9,0.4-4.1-0.6c-0.9-0.8-1.4-1.9-1.3-3.1c0-2.3,0-4.7,0-7
							v-0.8c-0.2,0.2-0.3,0.3-0.4,0.4c-4.8,4.8-9.6,9.6-14.4,14.4c-0.6,0.6-1.2,1.2-1.8,1.8c-1.6,1.6-4,1.6-5.6,0
							c-1.5-1.5-1.5-4,0.1-5.6c5.4-5.4,10.7-10.7,16.1-16.1c0.1-0.1,0.3-0.2,0.5-0.3c0-0.1-0.1-0.1-0.1-0.2h-0.7c-2.4,0-4.9,0-7.3,0
							c-1.8,0-3.3-1.2-3.7-2.9c-0.4-1.7,0.3-3.5,1.9-4.3c0.6-0.3,1.3-0.5,1.9-0.5c7,0,14,0,21,0c0.1,0,0.2,0,0.4,0V258.5z"/>
					</g>
				</g>
			</g>
			<g class="st13">
				<defs>
					<path id="SVGID_56_" d="M-892.1-548.5l3.1,22.2h-14.2L-892.1-548.5z M-894.5-554.8l-24.3,47.2h6.3l7.5-14.8h16.7l2.4,14.8h6.5
						l-7.8-47.2H-894.5z"/>
				</defs>
				<clipPath id="SVGID_57_">
					<use xlink:href="#SVGID_56_"  style="overflow:visible;"/>
				</clipPath>
				
					<linearGradient id="SVGID_58_" gradientUnits="userSpaceOnUse" x1="2.9309" y1="-31.8649" x2="3.9309" y2="-31.8649" gradientTransform="matrix(-76.0337 12.2329 12.2329 76.0337 -227.3618 1846.2319)">
					<stop  offset="0" style="stop-color:#53C0D6"/>
					<stop  offset="0.153" style="stop-color:#60B4D0"/>
					<stop  offset="0.4855" style="stop-color:#798FBD"/>
					<stop  offset="0.9693" style="stop-color:#8E3E8F"/>
					<stop  offset="1" style="stop-color:#8F388C"/>
				</linearGradient>
				<polygon class="st48" points="-872,-508.8 -917.8,-501.4 -926.2,-553.6 -880.4,-561 				"/>
			</g>
			<g class="st13">
				<defs>
					<polygon id="SVGID_59_" points="-853.8,-529 -853.2,-525.4 -848,-525.4 -848.6,-529 					"/>
				</defs>
				<clipPath id="SVGID_60_">
					<use xlink:href="#SVGID_59_"  style="overflow:visible;"/>
				</clipPath>
				
					<linearGradient id="SVGID_61_" gradientUnits="userSpaceOnUse" x1="2.9309" y1="-31.8398" x2="3.9309" y2="-31.8398" gradientTransform="matrix(-76.0337 12.2329 12.2329 76.0337 -225.8266 1855.774)">
					<stop  offset="0" style="stop-color:#53C0D6"/>
					<stop  offset="0.153" style="stop-color:#60B4D0"/>
					<stop  offset="0.4855" style="stop-color:#798FBD"/>
					<stop  offset="0.9693" style="stop-color:#8E3E8F"/>
					<stop  offset="1" style="stop-color:#8F388C"/>
				</linearGradient>
				<polygon class="st49" points="-847.4,-525.5 -853.7,-524.5 -854.4,-529 -848.1,-530 				"/>
			</g>
			<g class="st13">
				<defs>
					<polygon id="SVGID_62_" points="-855.2,-536.3 -854.5,-532.6 -849.3,-532.6 -849.9,-536.3 					"/>
				</defs>
				<clipPath id="SVGID_63_">
					<use xlink:href="#SVGID_62_"  style="overflow:visible;"/>
				</clipPath>
				
					<linearGradient id="SVGID_64_" gradientUnits="userSpaceOnUse" x1="2.9309" y1="-31.8398" x2="3.9309" y2="-31.8398" gradientTransform="matrix(-76.0337 12.2329 12.2329 76.0337 -226.9955 1848.509)">
					<stop  offset="0" style="stop-color:#53C0D6"/>
					<stop  offset="0.153" style="stop-color:#60B4D0"/>
					<stop  offset="0.4855" style="stop-color:#798FBD"/>
					<stop  offset="0.9693" style="stop-color:#8E3E8F"/>
					<stop  offset="1" style="stop-color:#8F388C"/>
				</linearGradient>
				<polygon class="st50" points="-848.7,-532.7 -855,-531.7 -855.7,-536.2 -849.4,-537.2 				"/>
			</g>
			<g class="st13">
				<defs>
					<polygon id="SVGID_65_" points="-883.8,-555.2 -876,-508 -843.1,-508 -845.6,-521.8 -850.8,-521.8 -849.7,-515.6 
						-871.9,-515.6 -877.2,-547.5 -855.5,-547.5 -854.1,-539.9 -848.9,-539.9 -851.7,-555.2 					"/>
				</defs>
				<clipPath id="SVGID_66_">
					<use xlink:href="#SVGID_65_"  style="overflow:visible;"/>
				</clipPath>
				
					<linearGradient id="SVGID_67_" gradientUnits="userSpaceOnUse" x1="2.9309" y1="-31.8398" x2="3.9309" y2="-31.8398" gradientTransform="matrix(-76.0337 12.2329 12.2329 76.0337 -226.8248 1849.5695)">
					<stop  offset="0" style="stop-color:#53C0D6"/>
					<stop  offset="0.153" style="stop-color:#60B4D0"/>
					<stop  offset="0.4855" style="stop-color:#798FBD"/>
					<stop  offset="0.9693" style="stop-color:#8E3E8F"/>
					<stop  offset="1" style="stop-color:#8F388C"/>
				</linearGradient>
				<polygon class="st51" points="-835.7,-509.2 -882.8,-501.6 -891.2,-554 -844.1,-561.5 				"/>
			</g>
			<g class="st13">
				<defs>
					<polygon id="SVGID_68_" points="-846.9,-532.6 -846.2,-529 -841,-529 -841.7,-532.6 					"/>
				</defs>
				<clipPath id="SVGID_69_">
					<use xlink:href="#SVGID_68_"  style="overflow:visible;"/>
				</clipPath>
				
					<linearGradient id="SVGID_70_" gradientUnits="userSpaceOnUse" x1="2.9309" y1="-31.8398" x2="3.9309" y2="-31.8398" gradientTransform="matrix(-76.0337 12.2329 12.2329 76.0337 -226.2195 1853.3323)">
					<stop  offset="0" style="stop-color:#53C0D6"/>
					<stop  offset="0.153" style="stop-color:#60B4D0"/>
					<stop  offset="0.4855" style="stop-color:#798FBD"/>
					<stop  offset="0.9693" style="stop-color:#8E3E8F"/>
					<stop  offset="1" style="stop-color:#8F388C"/>
				</linearGradient>
				<polygon class="st52" points="-840.5,-529.1 -846.7,-528.1 -847.5,-532.5 -841.2,-533.6 				"/>
			</g>
			<g class="st13">
				<defs>
					<polygon id="SVGID_71_" points="-845.6,-525.4 -844.9,-521.8 -839.7,-521.8 -840.4,-525.4 					"/>
				</defs>
				<clipPath id="SVGID_72_">
					<use xlink:href="#SVGID_71_"  style="overflow:visible;"/>
				</clipPath>
				
					<linearGradient id="SVGID_73_" gradientUnits="userSpaceOnUse" x1="2.9309" y1="-31.8398" x2="3.9309" y2="-31.8398" gradientTransform="matrix(-76.0337 12.2329 12.2329 76.0337 -225.0507 1860.5968)">
					<stop  offset="0" style="stop-color:#53C0D6"/>
					<stop  offset="0.153" style="stop-color:#60B4D0"/>
					<stop  offset="0.4855" style="stop-color:#798FBD"/>
					<stop  offset="0.9693" style="stop-color:#8E3E8F"/>
					<stop  offset="1" style="stop-color:#8F388C"/>
				</linearGradient>
				<polygon class="st53" points="-839.2,-521.9 -845.4,-520.9 -846.1,-525.3 -839.9,-526.3 				"/>
			</g>
			<g class="st13">
				<defs>
					<polygon id="SVGID_74_" points="-848.2,-539.9 -847.6,-536.3 -842.4,-536.3 -843,-539.9 					"/>
				</defs>
				<clipPath id="SVGID_75_">
					<use xlink:href="#SVGID_74_"  style="overflow:visible;"/>
				</clipPath>
				
					<linearGradient id="SVGID_76_" gradientUnits="userSpaceOnUse" x1="2.9309" y1="-31.8398" x2="3.9309" y2="-31.8398" gradientTransform="matrix(-76.0337 12.2329 12.2329 76.0337 -227.3884 1846.067)">
					<stop  offset="0" style="stop-color:#53C0D6"/>
					<stop  offset="0.153" style="stop-color:#60B4D0"/>
					<stop  offset="0.4855" style="stop-color:#798FBD"/>
					<stop  offset="0.9693" style="stop-color:#8E3E8F"/>
					<stop  offset="1" style="stop-color:#8F388C"/>
				</linearGradient>
				<polygon class="st54" points="-841.8,-536.4 -848.1,-535.4 -848.8,-539.8 -842.5,-540.8 				"/>
			</g>
			<g class="st13">
				<defs>
					<rect id="SVGID_77_" x="-933" y="-576" width="1930" height="1090"/>
				</defs>
				<clipPath id="SVGID_78_">
					<use xlink:href="#SVGID_77_"  style="overflow:visible;"/>
				</clipPath>
				<path class="st55" d="M-823.2-538l-2.5,7.4h-3.2l8-23.7h3.7l8.1,23.7h-3.3l-2.5-7.4H-823.2z M-815.5-540.4l-2.3-6.8
					c-0.5-1.5-0.9-3-1.2-4.3h-0.1c-0.4,1.4-0.7,2.8-1.2,4.3l-2.3,6.9H-815.5z"/>
				<path class="st55" d="M-805.8-543c0-1.8,0-3.2-0.1-4.6h2.7l0.1,2.7h0.1c0.9-1.6,2.5-3.1,5.3-3.1c2.3,0,4.1,1.4,4.8,3.4h0.1
					c0.5-0.9,1.2-1.7,1.9-2.2c1-0.8,2.1-1.2,3.8-1.2c2.2,0,5.6,1.5,5.6,7.4v10h-3v-9.6c0-3.3-1.2-5.2-3.7-5.2
					c-1.8,0-3.1,1.3-3.7,2.8c-0.1,0.4-0.2,1-0.2,1.5v10.5h-3v-10.2c0-2.7-1.2-4.7-3.5-4.7c-1.9,0-3.3,1.5-3.8,3.1
					c-0.2,0.5-0.2,1-0.2,1.5v10.3h-3V-543z"/>
				<path class="st55" d="M-773-552.4c0,1.1-0.7,1.9-2,1.9c-1.1,0-1.9-0.8-1.9-1.9c0-1.1,0.8-1.9,1.9-1.9
					C-773.8-554.3-773-553.5-773-552.4 M-776.5-547.6h3.1v17h-3.1V-547.6z"/>
				<path class="st55" d="M-756.1-531.2c-0.8,0.4-2.6,1-4.9,1c-5.1,0-8.5-3.5-8.5-8.7c0-5.2,3.6-9,9.1-9c1.8,0,3.4,0.5,4.3,0.9
					l-0.7,2.4c-0.7-0.4-1.9-0.8-3.6-0.8c-3.9,0-6,2.9-6,6.4c0,3.9,2.5,6.4,5.9,6.4c1.8,0,2.9-0.5,3.8-0.8L-756.1-531.2z"/>
				<path class="st55" d="M-738.3-535.2c0,1.8,0,3.3,0.1,4.6h-2.7l-0.2-2.8h-0.1c-0.8,1.4-2.6,3.2-5.6,3.2c-2.7,0-5.9-1.5-5.9-7.4
					v-9.9h3.1v9.4c0,3.2,1,5.4,3.8,5.4c2.1,0,3.5-1.4,4.1-2.8c0.2-0.5,0.3-1,0.3-1.6v-10.4h3.1V-535.2z"/>
				<path class="st55" d="M-733.6-533.7c0.9,0.6,2.5,1.2,4.1,1.2c2.2,0,3.3-1.1,3.3-2.5c0-1.5-0.9-2.3-3.2-3.1
					c-3.1-1.1-4.5-2.8-4.5-4.8c0-2.7,2.2-5,5.9-5c1.7,0,3.2,0.5,4.2,1.1l-0.8,2.2c-0.7-0.4-1.9-1-3.5-1c-1.8,0-2.8,1.1-2.8,2.3
					c0,1.4,1,2,3.2,2.9c3,1.1,4.5,2.6,4.5,5.1c0,3-2.3,5.1-6.4,5.1c-1.9,0-3.6-0.5-4.8-1.2L-733.6-533.7z"/>
				<path class="st55" d="M-691.4-542.7c0,8.2-5,12.5-11,12.5c-6.3,0-10.6-4.9-10.6-12c0-7.5,4.7-12.4,11-12.4
					C-695.6-554.7-691.4-549.7-691.4-542.7 M-709.8-542.3c0,5.1,2.7,9.6,7.6,9.6c4.8,0,7.6-4.5,7.6-9.8c0-4.7-2.5-9.6-7.6-9.6
					C-707.3-552.2-709.8-547.5-709.8-542.3"/>
				<path class="st55" d="M-687.6-543c0-1.8,0-3.2-0.1-4.6h2.7l0.2,2.8h0.1c0.8-1.6,2.8-3.2,5.6-3.2c2.4,0,6,1.4,6,7.2v10.2h-3.1
					v-9.8c0-2.7-1-5-3.9-5c-2,0-3.6,1.4-4.1,3.2c-0.1,0.4-0.2,0.9-0.2,1.4v10.2h-3.1V-543z"/>
				<rect x="-668.1" y="-555.5" class="st55" width="3.1" height="24.9"/>
				<path class="st55" d="M-656.3-552.4c0,1.1-0.7,1.9-2,1.9c-1.1,0-1.9-0.8-1.9-1.9c0-1.1,0.8-1.9,1.9-1.9
					C-657.1-554.3-656.3-553.5-656.3-552.4 M-659.8-547.6h3.1v17h-3.1V-547.6z"/>
				<path class="st55" d="M-651.5-543c0-1.8,0-3.2-0.1-4.6h2.7l0.2,2.8h0.1c0.8-1.6,2.8-3.2,5.6-3.2c2.4,0,6,1.4,6,7.2v10.2h-3.1
					v-9.8c0-2.7-1-5-3.9-5c-2,0-3.6,1.4-4.1,3.2c-0.1,0.4-0.2,0.9-0.2,1.4v10.2h-3.1V-543z"/>
				<path class="st55" d="M-630.3-538.5c0.1,4.2,2.7,5.9,5.8,5.9c2.2,0,3.5-0.4,4.7-0.9l0.5,2.2c-1.1,0.5-3,1.1-5.7,1.1
					c-5.2,0-8.4-3.4-8.4-8.6c0-5.1,3-9.2,8-9.2c5.6,0,7,4.9,7,8c0,0.6-0.1,1.1-0.1,1.4H-630.3z M-621.3-540.7c0-2-0.8-5-4.3-5
					c-3.1,0-4.5,2.9-4.7,5H-621.3z"/>
				<path class="st56" d="M-828.5-518.8c0.7-0.1,1.5-0.2,2.6-0.2c1.4,0,2.4,0.3,3,0.9c0.6,0.5,0.9,1.3,0.9,2.2c0,1-0.3,1.7-0.8,2.3
					c-0.7,0.8-1.9,1.2-3.3,1.2c-0.4,0-0.8,0-1.1-0.1v4.3h-1.4V-518.8z M-827.2-513.7c0.3,0.1,0.7,0.1,1.1,0.1c1.7,0,2.7-0.8,2.7-2.3
					c0-1.4-1-2.1-2.5-2.1c-0.6,0-1.1,0-1.3,0.1V-513.7z"/>
				<rect x="-820.2" y="-519.5" class="st56" width="1.4" height="11.2"/>
				<path class="st56" d="M-812.3-508.3l-0.1-1h0c-0.4,0.6-1.3,1.1-2.3,1.1c-1.6,0-2.3-1.1-2.3-2.2c0-1.9,1.6-2.9,4.6-2.8v-0.2
					c0-0.6-0.2-1.8-1.7-1.8c-0.7,0-1.5,0.2-2,0.6l-0.3-0.9c0.6-0.4,1.6-0.7,2.5-0.7c2.3,0,2.9,1.6,2.9,3.1v2.9c0,0.7,0,1.3,0.1,1.8
					H-812.3z M-812.5-512.2c-1.5,0-3.2,0.2-3.2,1.7c0,0.9,0.6,1.3,1.3,1.3c1,0,1.6-0.6,1.9-1.3c0-0.1,0.1-0.3,0.1-0.4V-512.2z"/>
				<path class="st56" d="M-807.3-518.2v2.2h2v1.1h-2v4.1c0,0.9,0.3,1.5,1,1.5c0.4,0,0.6,0,0.8-0.1l0.1,1c-0.3,0.1-0.7,0.2-1.2,0.2
					c-0.6,0-1.2-0.2-1.5-0.6c-0.4-0.4-0.5-1.1-0.5-2v-4.2h-1.2v-1.1h1.2v-1.8L-807.3-518.2z"/>
				<path class="st56" d="M-803.6-508.3v-6.6h-1.1v-1.1h1.1v-0.4c0-1.1,0.2-2.1,0.9-2.7c0.5-0.5,1.2-0.7,1.9-0.7
					c0.5,0,0.9,0.1,1.2,0.2l-0.2,1.1c-0.2-0.1-0.5-0.2-0.9-0.2c-1.2,0-1.5,1-1.5,2.2v0.4h1.9v1.1h-1.9v6.6H-803.6z"/>
				<path class="st56" d="M-792.4-512.2c0,2.8-2,4.1-3.8,4.1c-2.1,0-3.7-1.5-3.7-3.9c0-2.6,1.7-4.1,3.8-4.1
					C-793.8-516.1-792.4-514.5-792.4-512.2 M-798.4-512.1c0,1.7,1,2.9,2.3,2.9c1.3,0,2.3-1.2,2.3-3c0-1.3-0.6-2.9-2.3-2.9
					C-797.7-515.1-798.4-513.6-798.4-512.1"/>
				<path class="st56" d="M-790.6-513.6c0-0.9,0-1.7-0.1-2.4h1.2l0,1.5h0.1c0.3-1,1.2-1.7,2.1-1.7c0.2,0,0.3,0,0.4,0v1.3
					c-0.1,0-0.3,0-0.5,0c-1,0-1.7,0.7-1.9,1.8c0,0.2-0.1,0.4-0.1,0.6v4.1h-1.4V-513.6z"/>
				<path class="st56" d="M-785.4-513.9c0-0.8,0-1.4-0.1-2.1h1.2l0.1,1.2h0c0.4-0.7,1.1-1.4,2.4-1.4c1,0,1.8,0.6,2.2,1.5h0
					c0.2-0.4,0.5-0.8,0.9-1c0.5-0.3,1-0.5,1.7-0.5c1,0,2.5,0.7,2.5,3.3v4.5h-1.4v-4.3c0-1.5-0.5-2.4-1.7-2.4c-0.8,0-1.4,0.6-1.6,1.3
					c-0.1,0.2-0.1,0.4-0.1,0.7v4.7h-1.4v-4.6c0-1.2-0.5-2.1-1.6-2.1c-0.9,0-1.5,0.7-1.7,1.4c-0.1,0.2-0.1,0.4-0.1,0.7v4.6h-1.4
					V-513.9z"/>
				<polygon class="st56" points="-768.8,-519 -763,-519 -763,-517.8 -767.4,-517.8 -767.4,-514.3 -763.3,-514.3 -763.3,-513.1 
					-767.4,-513.1 -767.4,-508.3 -768.8,-508.3 				"/>
				<path class="st56" d="M-754.7-512.2c0,2.8-2,4.1-3.8,4.1c-2.1,0-3.7-1.5-3.7-3.9c0-2.6,1.7-4.1,3.8-4.1
					C-756.1-516.1-754.7-514.5-754.7-512.2 M-760.7-512.1c0,1.7,1,2.9,2.3,2.9c1.3,0,2.3-1.2,2.3-3c0-1.3-0.6-2.9-2.3-2.9
					C-760-515.1-760.7-513.6-760.7-512.1"/>
				<path class="st56" d="M-752.9-513.6c0-0.9,0-1.7-0.1-2.4h1.2l0,1.5h0.1c0.3-1,1.2-1.7,2.1-1.7c0.2,0,0.3,0,0.4,0v1.3
					c-0.1,0-0.3,0-0.5,0c-1,0-1.7,0.7-1.9,1.8c0,0.2-0.1,0.4-0.1,0.6v4.1h-1.4V-513.6z"/>
				<path class="st56" d="M-736.9-508.7c-0.5,0.3-1.5,0.5-2.8,0.5c-3,0-5.3-1.9-5.3-5.4c0-3.3,2.3-5.6,5.6-5.6
					c1.3,0,2.2,0.3,2.5,0.5l-0.3,1.1c-0.5-0.3-1.3-0.4-2.2-0.4c-2.5,0-4.2,1.6-4.2,4.4c0,2.6,1.5,4.3,4.1,4.3c0.8,0,1.7-0.2,2.2-0.4
					L-736.9-508.7z"/>
				<path class="st56" d="M-728.4-512.2c0,2.8-2,4.1-3.8,4.1c-2.1,0-3.7-1.5-3.7-3.9c0-2.6,1.7-4.1,3.8-4.1
					C-729.9-516.1-728.4-514.5-728.4-512.2 M-734.5-512.1c0,1.7,1,2.9,2.3,2.9c1.3,0,2.3-1.2,2.3-3c0-1.3-0.6-2.9-2.3-2.9
					C-733.8-515.1-734.5-513.6-734.5-512.1"/>
				<path class="st56" d="M-726.7-513.9c0-0.8,0-1.4-0.1-2.1h1.2l0.1,1.3h0c0.4-0.7,1.3-1.4,2.5-1.4c1.1,0,2.7,0.6,2.7,3.3v4.6h-1.4
					v-4.4c0-1.2-0.5-2.3-1.8-2.3c-0.9,0-1.6,0.6-1.9,1.4c-0.1,0.2-0.1,0.4-0.1,0.6v4.6h-1.4V-513.9z"/>
				<path class="st56" d="M-717.8-508.3v-6.6h-1.1v-1.1h1.1v-0.4c0-1.1,0.2-2.1,0.9-2.7c0.5-0.5,1.2-0.7,1.9-0.7
					c0.5,0,0.9,0.1,1.2,0.2l-0.2,1.1c-0.2-0.1-0.5-0.2-0.9-0.2c-1.2,0-1.5,1-1.5,2.2v0.4h1.9v1.1h-1.9v6.6H-717.8z"/>
				<path class="st56" d="M-712.7-511.9c0,1.9,1.2,2.7,2.6,2.7c1,0,1.6-0.2,2.1-0.4l0.2,1c-0.5,0.2-1.3,0.5-2.5,0.5
					c-2.4,0-3.8-1.6-3.8-3.9c0-2.3,1.4-4.1,3.6-4.1c2.5,0,3.2,2.2,3.2,3.6c0,0.3,0,0.5,0,0.6H-712.7z M-708.6-512.9
					c0-0.9-0.4-2.3-1.9-2.3c-1.4,0-2,1.3-2.1,2.3H-708.6z"/>
				<path class="st56" d="M-705.6-513.6c0-0.9,0-1.7-0.1-2.4h1.2l0,1.5h0.1c0.3-1,1.2-1.7,2.1-1.7c0.2,0,0.3,0,0.4,0v1.3
					c-0.1,0-0.3,0-0.5,0c-1,0-1.7,0.7-1.9,1.8c0,0.2-0.1,0.4-0.1,0.6v4.1h-1.4V-513.6z"/>
				<path class="st56" d="M-699.8-511.9c0,1.9,1.2,2.7,2.6,2.7c1,0,1.6-0.2,2.1-0.4l0.2,1c-0.5,0.2-1.3,0.5-2.5,0.5
					c-2.4,0-3.8-1.6-3.8-3.9c0-2.3,1.4-4.1,3.6-4.1c2.5,0,3.2,2.2,3.2,3.6c0,0.3,0,0.5,0,0.6H-699.8z M-695.7-512.9
					c0-0.9-0.4-2.3-1.9-2.3c-1.4,0-2,1.3-2.1,2.3H-695.7z"/>
				<path class="st56" d="M-692.6-513.9c0-0.8,0-1.4-0.1-2.1h1.2l0.1,1.3h0c0.4-0.7,1.3-1.4,2.5-1.4c1.1,0,2.7,0.6,2.7,3.3v4.6h-1.4
					v-4.4c0-1.2-0.5-2.3-1.8-2.3c-0.9,0-1.6,0.6-1.9,1.4c-0.1,0.2-0.1,0.4-0.1,0.6v4.6h-1.4V-513.9z"/>
				<path class="st56" d="M-678.4-508.6c-0.4,0.2-1.2,0.4-2.2,0.4c-2.3,0-3.8-1.6-3.8-3.9c0-2.4,1.6-4.1,4.1-4.1
					c0.8,0,1.6,0.2,1.9,0.4l-0.3,1.1c-0.3-0.2-0.9-0.4-1.6-0.4c-1.8,0-2.7,1.3-2.7,2.9c0,1.8,1.1,2.9,2.7,2.9c0.8,0,1.3-0.2,1.7-0.4
					L-678.4-508.6z"/>
				<path class="st56" d="M-676.1-511.9c0,1.9,1.2,2.7,2.6,2.7c1,0,1.6-0.2,2.1-0.4l0.2,1c-0.5,0.2-1.3,0.5-2.5,0.5
					c-2.4,0-3.8-1.6-3.8-3.9c0-2.3,1.4-4.1,3.6-4.1c2.5,0,3.2,2.2,3.2,3.6c0,0.3,0,0.5,0,0.6H-676.1z M-672-512.9
					c0-0.9-0.4-2.3-1.9-2.3c-1.4,0-2,1.3-2.1,2.3H-672z"/>
				<path class="st56" d="M-669.1-509.7c0.4,0.3,1.1,0.6,1.8,0.6c1,0,1.5-0.5,1.5-1.1c0-0.7-0.4-1-1.4-1.4c-1.4-0.5-2-1.3-2-2.2
					c0-1.2,1-2.2,2.6-2.2c0.8,0,1.5,0.2,1.9,0.5l-0.3,1c-0.3-0.2-0.9-0.4-1.6-0.4c-0.8,0-1.3,0.5-1.3,1c0,0.6,0.5,0.9,1.5,1.3
					c1.3,0.5,2,1.2,2,2.3c0,1.3-1,2.3-2.9,2.3c-0.8,0-1.6-0.2-2.2-0.5L-669.1-509.7z"/>
			</g>
		</g>
	</g>
</g>
</svg>
