<?xml version="1.0" encoding="utf-8"?>
<!-- Generator: Adobe Illustrator 22.0.1, SVG Export Plug-In . SVG Version: 6.00 Build 0)  -->
<svg version="1.1" id="Слой_1" xmlns="http://www.w3.org/2000/svg" xmlns:xlink="http://www.w3.org/1999/xlink" x="0px" y="0px"
	 viewBox="0 0 95.3 80.7" style="enable-background:new 0 0 95.3 80.7;" xml:space="preserve">
<style type="text/css">
	.st0{fill:#8591F9;}
	.st1{fill:none;stroke:#8591F9;stroke-width:5;stroke-linecap:round;stroke-miterlimit:10;}
</style>
<g>
	<path class="st0" d="M70.3,1.4H25l-22.7,39l22.7,39h45.3l22.7-39L70.3,1.4z M73,52.4c0,2.6-1.9,4.5-4.5,4.5c-7.9,0-15.7,0-23.6,0
		c-1,0-1.8,0.3-2.5,1.1c-2,2.3-4.1,4.6-6.2,6.9c-0.2,0.2-0.4,0.5-0.7,0.7c-0.1,0-0.1,0-0.2-0.1c0-1.6,0-3.2,0-4.9c0-0.6,0-1.3,0-1.9
		c-0.1-1.2-0.9-1.9-2-1.9c-2.1,0-4.3,0-6.4,0c-2.9,0-4.7-1.8-4.7-4.6c0-8.4,0-16.8,0-25.1c0-2.7,1.9-4.5,4.7-4.5
		c13.1,0,26.2,0,39.3,0c0.7,0,1.4,0,2.1,0c2.7,0,4.6,1.9,4.6,4.6c0,6.9,0,13.9,0,20.8C73,49.5,73,51,73,52.4z"/>
	<g>
		<line class="st1" x1="30.6" y1="30.5" x2="64.1" y2="30.5"/>
		<line class="st1" x1="30.9" y1="39" x2="47.9" y2="39"/>
		<line class="st1" x1="30.9" y1="47.2" x2="64.4" y2="47.2"/>
	</g>
</g>
</svg>
