<?xml version="1.0" encoding="utf-8"?>
<!-- Generator: Adobe Illustrator 22.0.1, SVG Export Plug-In . SVG Version: 6.00 Build 0)  -->
<svg version="1.1" id="Слой_1" xmlns="http://www.w3.org/2000/svg" xmlns:xlink="http://www.w3.org/1999/xlink" x="0px" y="0px"
	 viewBox="0 0 58.6 56.4" style="enable-background:new 0 0 58.6 56.4;" xml:space="preserve">
<style type="text/css">
	.st0{clip-path:url(#SVGID_2_);fill:#8591F9;}
	.st1{clip-path:url(#SVGID_2_);}
	.st2{fill:none;stroke:#8591F9;stroke-width:2;stroke-linecap:round;stroke-miterlimit:10;}
</style>
<g>
	<defs>
		<circle id="SVGID_1_" cx="29.3" cy="28.2" r="27.6"/>
	</defs>
	<clipPath id="SVGID_2_">
		<use xlink:href="#SVGID_1_"  style="overflow:visible;"/>
	</clipPath>
	<path class="st0" d="M46.8-1.9H11.8l-17.5,30l17.5,30h34.9l17.5-30L46.8-1.9z M48.9,37.5c0,2-1.4,3.5-3.5,3.5c-6.1,0-12.1,0-18.2,0
		c-0.8,0-1.4,0.3-1.9,0.9c-1.6,1.8-3.2,3.6-4.8,5.3c-0.2,0.2-0.3,0.4-0.5,0.6c0,0-0.1,0-0.1,0c0-1.2,0-2.5,0-3.7c0-0.5,0-1,0-1.5
		c-0.1-0.9-0.7-1.5-1.6-1.5c-1.6,0-3.3,0-4.9,0c-2.2,0-3.6-1.4-3.6-3.6c0-6.5,0-12.9,0-19.4c0-2.1,1.4-3.5,3.6-3.5
		c10.1,0,20.2,0,30.3,0c0.5,0,1.1,0,1.6,0c2.1,0,3.6,1.4,3.6,3.5c0,5.3,0,10.7,0,16C48.9,35.2,48.9,36.4,48.9,37.5z"/>
	<g class="st1">
		<line class="st2" x1="16.2" y1="20.6" x2="42" y2="20.6"/>
		<line class="st2" x1="16.4" y1="27.1" x2="29.5" y2="27.1"/>
		<line class="st2" x1="16.4" y1="33.4" x2="42.2" y2="33.4"/>
	</g>
</g>
</svg>
