<?xml version="1.0" encoding="utf-8"?>
<!-- Generator: Adobe Illustrator 22.0.1, SVG Export Plug-In . SVG Version: 6.00 Build 0)  -->
<svg version="1.1" id="Слой_1" xmlns="http://www.w3.org/2000/svg" xmlns:xlink="http://www.w3.org/1999/xlink" x="0px" y="0px"
	 viewBox="0 0 58.6 56.4" style="enable-background:new 0 0 58.6 56.4;" xml:space="preserve">
<style type="text/css">
	.st0{fill:#606060;}
</style>
<g>
	<g>
		<path class="st0" d="M56.3,25.4c-0.1-0.9-0.2-1.7-0.4-2.5c-0.1-0.4-0.3-0.6-0.8-0.6c-1.1,0-2.2,0-3.2,0c-0.2,0-0.3,0-0.3-0.2
			c-0.5-1.8-1.2-3.6-2.2-5.2c-0.1-0.2,0-0.3,0.1-0.4c0.7-0.7,1.5-1.5,2.2-2.2c0.4-0.4,0.4-0.6,0.1-1.1c-2-2.9-4.5-5.4-7.5-7.5
			c-0.4-0.3-0.7-0.3-1.1,0.1c-0.8,0.8-1.5,1.5-2.3,2.3C41,8.1,40.9,8.1,40.7,8c-1.6-0.9-3.4-1.7-5.2-2.2c-0.2-0.1-0.3-0.1-0.3-0.4
			c0-1,0-2.1,0-3.1c0-0.6-0.1-0.8-0.7-0.9c-1.2-0.2-2.5-0.3-3.7-0.5c-0.1,0-0.3,0-0.4-0.1c-0.7,0-1.5,0-2.2,0
			c-0.6,0.1-1.1,0.1-1.7,0.2c-0.9,0.1-1.7,0.2-2.5,0.4c-0.4,0.1-0.6,0.3-0.6,0.7c0,1.1,0,2.2,0,3.3c0,0.2-0.1,0.3-0.2,0.3
			c-1.8,0.5-3.6,1.2-5.2,2.2c-0.2,0.1-0.2,0.1-0.4-0.1c-0.7-0.8-1.5-1.5-2.2-2.3c-0.4-0.4-0.6-0.4-1.1-0.1c-2.9,2-5.4,4.5-7.5,7.5
			c-0.3,0.4-0.3,0.7,0.1,1c0.8,0.8,1.5,1.5,2.3,2.3c0.1,0.1,0.2,0.2,0.1,0.4C8.2,18.4,7.5,20.1,7,22c-0.1,0.2-0.1,0.3-0.4,0.3
			c-1.1,0-2.1,0-3.2,0c-0.5,0-0.7,0.2-0.8,0.7c-0.2,1.3-0.3,2.5-0.5,3.8c0,0.1,0,0.3-0.1,0.4c0,0.7,0,1.5,0,2.2
			c0.1,0.6,0.1,1.2,0.2,1.7c0.1,0.8,0.2,1.7,0.4,2.5C2.7,34,3,34.1,3.4,34.1c1.1,0,2.2,0,3.3,0c0.2,0,0.3,0.1,0.3,0.2
			c0.5,1.8,1.2,3.6,2.2,5.2c0.1,0.2,0,0.3-0.1,0.4c-0.8,0.8-1.5,1.5-2.3,2.3c-0.4,0.4-0.4,0.6-0.1,1c2,3,4.5,5.4,7.5,7.5
			c0.4,0.3,0.7,0.3,1.1-0.1c0.8-0.8,1.5-1.5,2.3-2.3c0.1-0.1,0.2-0.1,0.4-0.1c1.7,0.9,3.4,1.7,5.2,2.2c0.2,0.1,0.3,0.1,0.2,0.3
			c0,1.1,0,2.1,0,3.2c0,0.5,0.2,0.7,0.7,0.8c1.3,0.2,2.6,0.3,3.9,0.5c0.1,0,0.2,0,0.2,0c0.7,0,1.5,0,2.2,0c0.6-0.1,1.1-0.1,1.7-0.2
			c0.8-0.1,1.7-0.2,2.5-0.4c0.4-0.1,0.6-0.3,0.6-0.8c0-1.1,0-2.2,0-3.2c0-0.2,0.1-0.3,0.3-0.3c1.8-0.5,3.6-1.2,5.2-2.2
			c0.2-0.1,0.2-0.1,0.4,0.1c0.8,0.8,1.5,1.5,2.3,2.3c0.4,0.4,0.6,0.4,1.1,0.1c3-2,5.5-4.5,7.5-7.5c0.3-0.4,0.2-0.7-0.1-1
			c-0.8-0.8-1.5-1.5-2.3-2.3c-0.1-0.1-0.1-0.2-0.1-0.4c0.9-1.7,1.7-3.4,2.2-5.2c0.1-0.2,0.1-0.2,0.3-0.2c1.1,0,2.1,0,3.2,0
			c0.5,0,0.7-0.2,0.8-0.7c0.2-1.3,0.3-2.6,0.5-3.9c0-0.1,0-0.2,0-0.3c0-0.7,0-1.5,0-2.2C56.4,26.5,56.4,25.9,56.3,25.4z M41.9,28.2
			c0,7-5.6,12.6-12.6,12.6c-7,0-12.6-5.6-12.6-12.6c0-7,5.6-12.6,12.6-12.6C36.3,15.6,41.9,21.2,41.9,28.2z"/>
	</g>
</g>
</svg>
