<?xml version="1.0" encoding="utf-8"?>
<!-- Generator: Adobe Illustrator 22.0.1, SVG Export Plug-In . SVG Version: 6.00 Build 0)  -->
<svg version="1.1" id="Слой_1" xmlns="http://www.w3.org/2000/svg" xmlns:xlink="http://www.w3.org/1999/xlink" x="0px" y="0px"
	 viewBox="0 0 577.2 95.1" style="enable-background:new 0 0 577.2 95.1;" xml:space="preserve">
<style type="text/css">
	.st0{fill:#818CC5;}
</style>
<g>
	<g>
		<g>
			<path class="st0" d="M28.3,33.1c0,0.3,0.1,0.5,0,0.7c0,0.2-0.1,0.3-0.2,0.4c-0.1,0.1-0.3,0.2-0.6,0.2c-0.3,0-0.6,0-1.1,0
				c-0.3,0-0.6,0-0.8,0c-0.2,0-0.4-0.1-0.5-0.1s-0.2-0.1-0.3-0.2c-0.1-0.1-0.1-0.2-0.1-0.3l-1-6.5H12.6l-3.5,6.5
				C9,33.9,8.9,34,8.8,34.1s-0.2,0.2-0.4,0.2c-0.2,0.1-0.4,0.1-0.6,0.1s-0.6,0-0.9,0c-0.4,0-0.7,0-1-0.1c-0.2,0-0.4-0.1-0.5-0.2
				c-0.1-0.1-0.1-0.2-0.1-0.4c0-0.2,0.1-0.4,0.3-0.7l14-24.9c0.1-0.2,0.2-0.3,0.3-0.4c0.1-0.1,0.3-0.2,0.4-0.2s0.4-0.1,0.7-0.1
				c0.3,0,0.6,0,1,0c0.5,0,0.8,0,1.1,0c0.3,0,0.5,0.1,0.7,0.1s0.3,0.1,0.4,0.2c0.1,0.1,0.1,0.2,0.1,0.4L28.3,33.1z M21.3,11.1
				L21.3,11.1l-7.3,13.4h9.3L21.3,11.1z"/>
			<path class="st0" d="M59.6,33.8c0,0.1-0.1,0.2-0.1,0.3c-0.1,0.1-0.2,0.1-0.3,0.2c-0.1,0.1-0.3,0.1-0.6,0.1c-0.2,0-0.5,0-0.8,0
				c-0.3,0-0.6,0-0.8,0c-0.2,0-0.4-0.1-0.5-0.1s-0.2-0.1-0.2-0.2c0-0.1,0-0.2,0-0.3l2.3-11.5c0.1-0.4,0.1-0.8,0.2-1.1
				s0.1-0.7,0.1-1.1c0-0.9-0.2-1.6-0.5-2.1c-0.3-0.5-0.9-0.8-1.8-0.8c-0.7,0-1.4,0.2-2.1,0.6s-1.4,1-2.1,1.7
				c-0.7,0.7-1.3,1.6-1.8,2.6c-0.5,1-0.9,2.1-1.1,3.3l-1.7,8.3c0,0.1-0.1,0.2-0.1,0.3c-0.1,0.1-0.2,0.1-0.3,0.2
				c-0.1,0.1-0.3,0.1-0.6,0.1c-0.2,0-0.5,0-0.8,0c-0.3,0-0.6,0-0.8,0c-0.2,0-0.4-0.1-0.5-0.1s-0.2-0.1-0.2-0.2c0-0.1-0.1-0.2,0-0.3
				l2.3-11.5c0.1-0.4,0.2-0.8,0.2-1.2c0-0.4,0.1-0.8,0.1-1.1c0-0.8-0.2-1.5-0.5-2s-0.9-0.8-1.8-0.8c-0.7,0-1.4,0.2-2.2,0.6
				s-1.4,1-2.1,1.7c-0.7,0.7-1.3,1.6-1.8,2.6c-0.5,1-0.9,2.1-1.1,3.3l-1.7,8.3c0,0.1-0.1,0.2-0.1,0.3c-0.1,0.1-0.2,0.1-0.3,0.2
				c-0.1,0.1-0.3,0.1-0.5,0.1c-0.2,0-0.5,0-0.8,0c-0.3,0-0.6,0-0.8,0c-0.2,0-0.4-0.1-0.5-0.1c-0.1-0.1-0.2-0.1-0.2-0.2
				c0-0.1,0-0.2,0-0.3L36,15.1c0-0.1,0.1-0.2,0.1-0.3c0.1-0.1,0.2-0.2,0.3-0.2c0.1-0.1,0.3-0.1,0.5-0.1c0.2,0,0.4,0,0.7,0
				c0.3,0,0.5,0,0.7,0c0.2,0,0.3,0.1,0.4,0.1c0.1,0.1,0.2,0.1,0.2,0.2c0,0.1,0,0.2,0,0.3l-0.7,3.6c0.2-0.5,0.5-1,1-1.5
				c0.5-0.5,1-1,1.7-1.5c0.6-0.4,1.3-0.8,2.1-1.1s1.5-0.4,2.3-0.4c0.8,0,1.5,0.1,2.1,0.3c0.6,0.2,1.1,0.5,1.5,0.9
				c0.4,0.4,0.7,0.9,0.8,1.4c0.2,0.5,0.3,1.1,0.3,1.8c0.3-0.5,0.7-1,1.1-1.5c0.5-0.5,1-1,1.7-1.4c0.6-0.4,1.3-0.8,2.1-1.1
				s1.5-0.4,2.3-0.4c0.9,0,1.7,0.1,2.3,0.4c0.6,0.3,1.1,0.6,1.5,1.1c0.4,0.5,0.7,1,0.8,1.6c0.2,0.6,0.2,1.3,0.2,2c0,0.5,0,1-0.1,1.4
				c-0.1,0.5-0.1,1-0.2,1.5L59.6,33.8z"/>
			<path class="st0" d="M69.3,33.8c0,0.1-0.1,0.2-0.1,0.3c-0.1,0.1-0.2,0.1-0.3,0.2c-0.1,0.1-0.3,0.1-0.5,0.1c-0.2,0-0.5,0-0.8,0
				c-0.3,0-0.6,0-0.8,0c-0.2,0-0.4-0.1-0.5-0.1c-0.1-0.1-0.2-0.1-0.2-0.2c0-0.1,0-0.2,0-0.3l3.7-18.7c0-0.1,0.1-0.2,0.1-0.3
				c0.1-0.1,0.2-0.2,0.3-0.2s0.3-0.1,0.5-0.1c0.2,0,0.5,0,0.9,0c0.3,0,0.6,0,0.8,0c0.2,0,0.4,0.1,0.5,0.1s0.2,0.1,0.2,0.2
				c0,0.1,0,0.2,0,0.3L69.3,33.8z M74.6,8.9c-0.1,0.4-0.2,0.7-0.3,1c-0.1,0.3-0.3,0.5-0.5,0.6c-0.2,0.2-0.4,0.3-0.7,0.3
				s-0.6,0.1-1.1,0.1c-0.4,0-0.7,0-1-0.1s-0.5-0.2-0.6-0.3c-0.1-0.2-0.2-0.4-0.2-0.6c0-0.3,0-0.6,0.1-1c0.1-0.4,0.2-0.7,0.3-1
				c0.1-0.3,0.3-0.5,0.5-0.6c0.2-0.2,0.4-0.3,0.7-0.4c0.3-0.1,0.6-0.1,1.1-0.1c0.4,0,0.7,0,1,0.1c0.3,0.1,0.4,0.2,0.6,0.4
				c0.1,0.2,0.2,0.4,0.2,0.6C74.7,8.2,74.7,8.5,74.6,8.9z"/>
			<path class="st0" d="M91.9,16.8c0,0.2,0,0.5-0.1,0.8c0,0.3-0.1,0.5-0.2,0.7c-0.1,0.2-0.2,0.4-0.3,0.6c-0.1,0.2-0.3,0.2-0.4,0.2
				c-0.2,0-0.4-0.1-0.6-0.3c-0.2-0.2-0.5-0.4-0.8-0.7c-0.3-0.2-0.8-0.5-1.3-0.7c-0.5-0.2-1.2-0.3-2-0.3c-0.9,0-1.7,0.2-2.4,0.5
				c-0.7,0.4-1.3,0.8-1.8,1.4c-0.5,0.6-0.9,1.3-1.3,2c-0.3,0.7-0.6,1.5-0.8,2.3s-0.4,1.5-0.4,2.2c-0.1,0.7-0.1,1.3-0.1,1.9
				c0,1.4,0.3,2.5,0.9,3.2c0.6,0.7,1.5,1.1,2.8,1.1c0.9,0,1.7-0.1,2.3-0.3c0.6-0.2,1.2-0.5,1.6-0.8c0.4-0.3,0.8-0.5,1.1-0.8
				c0.3-0.2,0.5-0.3,0.8-0.3c0.1,0,0.2,0.1,0.3,0.2c0.1,0.1,0.1,0.3,0.1,0.4c0,0.2,0,0.4,0,0.6c0,0.2-0.1,0.5-0.1,0.7
				c-0.1,0.2-0.1,0.5-0.2,0.7c-0.1,0.2-0.2,0.4-0.4,0.6c-0.2,0.2-0.5,0.4-0.9,0.6c-0.4,0.2-0.9,0.5-1.4,0.7s-1.1,0.4-1.8,0.5
				c-0.6,0.1-1.3,0.2-2,0.2c-2.2,0-3.9-0.6-5-1.7s-1.6-2.8-1.6-5.1c0-0.8,0.1-1.8,0.2-2.8c0.1-1,0.4-2,0.7-3s0.8-2,1.3-3
				c0.5-1,1.2-1.8,2-2.5c0.8-0.7,1.7-1.3,2.7-1.8c1-0.4,2.2-0.7,3.6-0.7c0.6,0,1.1,0,1.6,0.1c0.5,0.1,1,0.2,1.4,0.4
				c0.4,0.2,0.9,0.3,1.2,0.6s0.6,0.4,0.8,0.6c0.2,0.2,0.3,0.3,0.4,0.5C91.9,16.5,91.9,16.6,91.9,16.8z"/>
			<path class="st0" d="M108.7,33.8c0,0.1-0.1,0.2-0.1,0.3s-0.2,0.1-0.3,0.2c-0.1,0-0.3,0.1-0.5,0.1c-0.2,0-0.4,0-0.7,0
				c-0.3,0-0.5,0-0.7,0c-0.2,0-0.3-0.1-0.4-0.1c-0.1,0-0.2-0.1-0.2-0.2c0-0.1,0-0.2,0-0.3l0.7-3.5c-0.2,0.5-0.6,1-1,1.5
				s-1,1-1.7,1.4c-0.6,0.4-1.3,0.8-2.1,1.1c-0.8,0.3-1.5,0.4-2.3,0.4c-0.9,0-1.7-0.1-2.4-0.4c-0.6-0.3-1.2-0.6-1.6-1.1
				c-0.4-0.4-0.7-1-0.8-1.6c-0.2-0.6-0.3-1.3-0.3-2c0-0.5,0-0.9,0.1-1.4c0.1-0.5,0.1-1,0.2-1.4l2.3-11.7c0-0.1,0.1-0.2,0.1-0.3
				c0.1-0.1,0.2-0.2,0.3-0.2c0.1-0.1,0.3-0.1,0.6-0.1c0.2,0,0.5,0,0.8,0c0.3,0,0.6,0,0.8,0c0.2,0,0.4,0.1,0.5,0.1
				c0.1,0.1,0.2,0.1,0.2,0.2c0,0.1,0,0.2,0,0.3L98,26.7c-0.1,0.4-0.1,0.7-0.2,1.1c0,0.4-0.1,0.8-0.1,1.2c0,0.4,0,0.8,0.1,1.1
				c0.1,0.3,0.2,0.6,0.4,0.9c0.2,0.2,0.4,0.4,0.7,0.6c0.3,0.1,0.7,0.2,1.1,0.2c0.7,0,1.5-0.2,2.2-0.6s1.5-1,2.1-1.8
				c0.7-0.7,1.3-1.6,1.8-2.7c0.5-1,0.9-2.2,1.2-3.4l1.6-8.2c0-0.1,0.1-0.2,0.1-0.3c0.1-0.1,0.2-0.2,0.3-0.2c0.1-0.1,0.3-0.1,0.6-0.1
				c0.2,0,0.5,0,0.8,0c0.3,0,0.6,0,0.8,0c0.2,0,0.4,0.1,0.5,0.1c0.1,0.1,0.2,0.1,0.2,0.2c0,0.1,0,0.2,0,0.3L108.7,33.8z"/>
			<path class="st0" d="M129.2,16.2c0,0.1,0,0.3-0.1,0.5c0,0.2-0.1,0.5-0.2,0.7c-0.1,0.2-0.2,0.4-0.3,0.6c-0.1,0.2-0.2,0.2-0.3,0.2
				c-0.2,0-0.4-0.1-0.6-0.2c-0.2-0.1-0.5-0.3-0.8-0.4c-0.3-0.2-0.7-0.3-1.2-0.5c-0.5-0.1-1-0.2-1.6-0.2c-0.6,0-1.1,0.1-1.6,0.3
				s-0.9,0.4-1.2,0.7c-0.3,0.3-0.6,0.6-0.7,1c-0.2,0.4-0.2,0.8-0.2,1.2c0,0.6,0.2,1,0.5,1.4c0.4,0.4,0.8,0.7,1.4,1s1.2,0.6,1.8,0.9
				s1.2,0.6,1.8,1c0.5,0.4,1,0.9,1.4,1.5c0.4,0.6,0.5,1.3,0.5,2.2c0,1-0.2,1.9-0.6,2.7s-0.9,1.6-1.6,2.2c-0.7,0.6-1.6,1.1-2.6,1.4
				c-1,0.3-2.1,0.5-3.4,0.5c-0.6,0-1.3,0-1.8-0.1c-0.6-0.1-1.1-0.2-1.6-0.4s-0.9-0.3-1.2-0.5c-0.3-0.2-0.6-0.4-0.8-0.5
				c-0.1-0.1-0.2-0.2-0.2-0.3c0-0.1-0.1-0.3-0.1-0.4c0-0.1,0-0.2,0-0.4c0-0.2,0-0.3,0.1-0.5c0-0.2,0.1-0.3,0.1-0.5
				c0-0.2,0.1-0.3,0.2-0.4c0.1-0.1,0.1-0.2,0.2-0.3c0.1-0.1,0.2-0.1,0.2-0.1c0.2,0,0.4,0.1,0.6,0.3c0.2,0.2,0.5,0.4,0.9,0.6
				s0.9,0.4,1.4,0.6c0.6,0.2,1.3,0.3,2.1,0.3c0.8,0,1.4-0.1,2-0.3c0.5-0.2,1-0.4,1.4-0.7c0.4-0.3,0.6-0.7,0.8-1.1
				c0.2-0.4,0.3-0.8,0.3-1.3c0-0.6-0.2-1.1-0.5-1.4c-0.4-0.4-0.8-0.7-1.4-1c-0.5-0.3-1.1-0.6-1.8-0.9c-0.6-0.3-1.2-0.6-1.8-1
				c-0.5-0.4-1-0.9-1.4-1.5c-0.4-0.6-0.5-1.3-0.5-2.2c0-0.9,0.2-1.8,0.5-2.5c0.4-0.8,0.9-1.5,1.5-2s1.4-1,2.4-1.3s1.9-0.5,3.1-0.5
				c0.5,0,1,0,1.5,0.1c0.5,0.1,0.9,0.2,1.4,0.3c0.4,0.1,0.8,0.3,1.1,0.4c0.3,0.2,0.5,0.3,0.7,0.5C129.1,15.7,129.2,15.9,129.2,16.2z
				"/>
			<path class="st0" d="M166.7,16.5c0,1.1-0.1,2.3-0.3,3.6c-0.2,1.3-0.5,2.6-1,4c-0.5,1.4-1.1,2.7-1.8,3.9c-0.8,1.3-1.7,2.4-2.8,3.4
				c-1.1,1-2.4,1.8-3.9,2.4s-3.3,0.9-5.2,0.9c-1.6,0-3-0.2-4.1-0.6c-1.2-0.4-2.2-1-3-1.8c-0.8-0.8-1.4-1.7-1.8-2.9
				c-0.4-1.1-0.6-2.5-0.6-4c0-1.2,0.1-2.5,0.3-3.8c0.2-1.4,0.5-2.7,1-4.1c0.5-1.4,1.1-2.7,1.9-3.9c0.8-1.3,1.7-2.4,2.8-3.3
				s2.4-1.7,3.9-2.3c1.5-0.6,3.2-0.9,5.1-0.9c1.6,0,2.9,0.2,4.1,0.6c1.2,0.4,2.2,1,3,1.8c0.8,0.8,1.4,1.8,1.8,2.9
				C166.5,13.6,166.7,15,166.7,16.5z M162.9,16.7c0-1-0.1-1.9-0.3-2.7s-0.6-1.5-1.1-2.1c-0.5-0.6-1.1-1-1.9-1.4
				c-0.8-0.3-1.8-0.5-2.9-0.5c-1.4,0-2.7,0.3-3.8,0.8c-1.1,0.5-2,1.2-2.8,2.1c-0.8,0.9-1.5,1.8-2,2.9c-0.5,1.1-0.9,2.2-1.2,3.3
				c-0.3,1.1-0.5,2.2-0.7,3.2c-0.1,1-0.2,1.9-0.2,2.7c0,1,0.1,1.9,0.3,2.7c0.2,0.8,0.6,1.5,1.1,2c0.5,0.6,1.1,1,1.9,1.3
				s1.8,0.5,2.9,0.5c1.4,0,2.7-0.3,3.8-0.8c1.1-0.5,2-1.2,2.8-2c0.8-0.8,1.4-1.8,2-2.9c0.5-1.1,0.9-2.2,1.3-3.3
				c0.3-1.1,0.5-2.2,0.7-3.2C162.9,18.4,162.9,17.5,162.9,16.7z"/>
			<path class="st0" d="M187.2,19.3c0,0.5,0,1-0.1,1.4c-0.1,0.5-0.1,1-0.2,1.5l-2.3,11.6c0,0.1-0.1,0.2-0.1,0.3
				c-0.1,0.1-0.2,0.1-0.3,0.2c-0.1,0.1-0.3,0.1-0.5,0.1c-0.2,0-0.5,0-0.8,0c-0.3,0-0.6,0-0.8,0c-0.2,0-0.4-0.1-0.5-0.1
				c-0.1-0.1-0.2-0.1-0.2-0.2c0-0.1,0-0.2,0-0.3l2.3-11.5c0.1-0.4,0.2-0.8,0.2-1.2c0-0.4,0.1-0.8,0.1-1.1c0-0.8-0.2-1.5-0.5-2
				s-1-0.8-1.8-0.8c-0.7,0-1.5,0.2-2.2,0.6s-1.5,1-2.1,1.7c-0.7,0.7-1.2,1.6-1.8,2.6c-0.5,1-0.9,2.1-1.1,3.3l-1.7,8.3
				c0,0.1-0.1,0.2-0.1,0.3c-0.1,0.1-0.2,0.1-0.3,0.2c-0.1,0.1-0.3,0.1-0.5,0.1c-0.2,0-0.5,0-0.8,0c-0.3,0-0.6,0-0.8,0
				c-0.2,0-0.4-0.1-0.5-0.1c-0.1-0.1-0.2-0.1-0.2-0.2c0-0.1,0-0.2,0-0.3l3.8-18.7c0-0.1,0.1-0.2,0.1-0.3c0.1-0.1,0.2-0.2,0.3-0.2
				c0.1-0.1,0.3-0.1,0.5-0.1c0.2,0,0.4,0,0.7,0c0.3,0,0.5,0,0.7,0c0.2,0,0.3,0.1,0.4,0.1c0.1,0.1,0.2,0.1,0.2,0.2c0,0.1,0,0.2,0,0.3
				l-0.7,3.6c0.2-0.5,0.5-1,1-1.5c0.5-0.5,1-1,1.7-1.5c0.6-0.4,1.4-0.8,2.1-1.1s1.6-0.4,2.4-0.4c0.9,0,1.7,0.1,2.3,0.4
				s1.1,0.7,1.5,1.1c0.4,0.5,0.7,1,0.8,1.6S187.2,18.6,187.2,19.3z"/>
			<path class="st0" d="M201.2,23.1c0,0.1,0,0.2,0,0.3s0,0.3-0.1,0.4c0,0.2-0.1,0.3-0.1,0.5c-0.1,0.2-0.1,0.3-0.2,0.4
				c-0.1,0.1-0.2,0.2-0.3,0.3c-0.1,0.1-0.2,0.1-0.4,0.1h-8.7c-0.2,0-0.3-0.1-0.4-0.2c-0.1-0.1-0.1-0.3-0.1-0.6c0-0.1,0-0.2,0-0.3
				s0-0.3,0.1-0.4c0-0.2,0.1-0.3,0.1-0.5c0.1-0.2,0.1-0.3,0.2-0.4c0.1-0.1,0.2-0.2,0.3-0.3c0.1-0.1,0.2-0.1,0.4-0.1h8.7
				c0.2,0,0.3,0.1,0.4,0.2S201.2,22.9,201.2,23.1z"/>
			<path class="st0" d="M207.2,33.8c0,0.1-0.1,0.2-0.1,0.3c-0.1,0.1-0.2,0.1-0.3,0.2c-0.1,0.1-0.3,0.1-0.5,0.1c-0.2,0-0.5,0-0.8,0
				c-0.3,0-0.6,0-0.8,0c-0.2,0-0.4-0.1-0.5-0.1c-0.1-0.1-0.2-0.1-0.2-0.2c0-0.1,0-0.2,0-0.3l5.5-27.7c0-0.1,0.1-0.2,0.1-0.3
				s0.2-0.2,0.3-0.2c0.1-0.1,0.3-0.1,0.6-0.1c0.2,0,0.5,0,0.9,0c0.3,0,0.6,0,0.8,0c0.2,0,0.4,0.1,0.5,0.1c0.1,0.1,0.2,0.1,0.2,0.2
				c0,0.1,0,0.2,0,0.3L207.2,33.8z"/>
			<path class="st0" d="M216.9,33.8c0,0.1-0.1,0.2-0.1,0.3c-0.1,0.1-0.2,0.1-0.3,0.2c-0.1,0.1-0.3,0.1-0.5,0.1c-0.2,0-0.5,0-0.8,0
				c-0.3,0-0.6,0-0.8,0c-0.2,0-0.4-0.1-0.5-0.1c-0.1-0.1-0.2-0.1-0.2-0.2c0-0.1,0-0.2,0-0.3l3.7-18.7c0-0.1,0.1-0.2,0.1-0.3
				c0.1-0.1,0.2-0.2,0.3-0.2s0.3-0.1,0.5-0.1c0.2,0,0.5,0,0.9,0c0.3,0,0.6,0,0.8,0c0.2,0,0.4,0.1,0.5,0.1s0.2,0.1,0.2,0.2
				c0,0.1,0,0.2,0,0.3L216.9,33.8z M222.3,8.9c-0.1,0.4-0.2,0.7-0.3,1c-0.1,0.3-0.3,0.5-0.5,0.6c-0.2,0.2-0.4,0.3-0.7,0.3
				s-0.6,0.1-1.1,0.1c-0.4,0-0.7,0-1-0.1s-0.5-0.2-0.6-0.3c-0.1-0.2-0.2-0.4-0.2-0.6c0-0.3,0-0.6,0.1-1c0.1-0.4,0.2-0.7,0.3-1
				c0.1-0.3,0.3-0.5,0.5-0.6c0.2-0.2,0.4-0.3,0.7-0.4c0.3-0.1,0.6-0.1,1.1-0.1c0.4,0,0.7,0,1,0.1c0.3,0.1,0.4,0.2,0.6,0.4
				c0.1,0.2,0.2,0.4,0.2,0.6C222.4,8.2,222.4,8.5,222.3,8.9z"/>
			<path class="st0" d="M241.5,19.3c0,0.5,0,1-0.1,1.4c-0.1,0.5-0.1,1-0.2,1.5l-2.3,11.6c0,0.1-0.1,0.2-0.1,0.3
				c-0.1,0.1-0.2,0.1-0.3,0.2c-0.1,0.1-0.3,0.1-0.5,0.1c-0.2,0-0.5,0-0.8,0c-0.3,0-0.6,0-0.8,0c-0.2,0-0.4-0.1-0.5-0.1
				c-0.1-0.1-0.2-0.1-0.2-0.2c0-0.1,0-0.2,0-0.3l2.3-11.5c0.1-0.4,0.2-0.8,0.2-1.2c0-0.4,0.1-0.8,0.1-1.1c0-0.8-0.2-1.5-0.5-2
				s-1-0.8-1.8-0.8c-0.7,0-1.5,0.2-2.2,0.6s-1.5,1-2.1,1.7c-0.7,0.7-1.2,1.6-1.8,2.6c-0.5,1-0.9,2.1-1.1,3.3l-1.7,8.3
				c0,0.1-0.1,0.2-0.1,0.3c-0.1,0.1-0.2,0.1-0.3,0.2c-0.1,0.1-0.3,0.1-0.5,0.1c-0.2,0-0.5,0-0.8,0c-0.3,0-0.6,0-0.8,0
				c-0.2,0-0.4-0.1-0.5-0.1c-0.1-0.1-0.2-0.1-0.2-0.2c0-0.1,0-0.2,0-0.3l3.8-18.7c0-0.1,0.1-0.2,0.1-0.3c0.1-0.1,0.2-0.2,0.3-0.2
				c0.1-0.1,0.3-0.1,0.5-0.1c0.2,0,0.4,0,0.7,0c0.3,0,0.5,0,0.7,0c0.2,0,0.3,0.1,0.4,0.1c0.1,0.1,0.2,0.1,0.2,0.2c0,0.1,0,0.2,0,0.3
				l-0.7,3.6c0.2-0.5,0.5-1,1-1.5c0.5-0.5,1-1,1.7-1.5c0.6-0.4,1.4-0.8,2.1-1.1s1.6-0.4,2.4-0.4c0.9,0,1.7,0.1,2.3,0.4
				s1.1,0.7,1.5,1.1c0.4,0.5,0.7,1,0.8,1.6S241.5,18.6,241.5,19.3z"/>
			<path class="st0" d="M262.9,19c0,1-0.2,1.8-0.7,2.6c-0.4,0.8-1.1,1.4-2.1,1.9c-0.9,0.5-2.1,1-3.6,1.2s-3.2,0.4-5.3,0.4h-2.2
				c-0.1,0.5-0.2,0.9-0.2,1.3c0,0.4-0.1,0.8-0.1,1.2c0,1.4,0.3,2.4,1,3.2c0.7,0.7,1.8,1.1,3.3,1.1c0.9,0,1.7-0.1,2.4-0.2
				c0.7-0.1,1.3-0.3,1.8-0.4s0.9-0.3,1.3-0.4c0.3-0.1,0.6-0.2,0.7-0.2c0.1,0,0.2,0,0.3,0.1c0.1,0.1,0.1,0.2,0.1,0.4
				c0,0.1,0,0.3,0,0.5c0,0.2-0.1,0.4-0.1,0.6c-0.1,0.2-0.1,0.4-0.2,0.6c-0.1,0.2-0.2,0.3-0.3,0.5c-0.2,0.2-0.5,0.3-0.9,0.5
				s-0.9,0.3-1.5,0.4c-0.6,0.1-1.2,0.2-1.9,0.3c-0.7,0.1-1.4,0.1-2.1,0.1c-1.2,0-2.3-0.1-3.2-0.4c-0.9-0.3-1.7-0.7-2.3-1.3
				c-0.6-0.6-1.1-1.3-1.4-2.1c-0.3-0.9-0.5-1.9-0.5-3c0-0.9,0.1-1.9,0.3-2.9c0.2-1,0.4-2,0.8-3.1c0.4-1,0.9-2,1.5-2.9
				c0.6-0.9,1.3-1.7,2.1-2.4c0.8-0.7,1.8-1.3,2.8-1.7s2.3-0.6,3.6-0.6c1.2,0,2.1,0.1,3,0.4c0.8,0.3,1.5,0.7,2,1.1
				c0.5,0.5,0.9,1,1.1,1.5C262.8,17.8,262.9,18.4,262.9,19z M259.4,19.3c0-0.7-0.3-1.3-0.8-1.7s-1.3-0.7-2.4-0.7
				c-0.9,0-1.7,0.2-2.4,0.5c-0.7,0.3-1.3,0.7-1.8,1.3c-0.5,0.5-1,1.1-1.4,1.8c-0.4,0.7-0.7,1.4-0.9,2.2h2.1c1.5,0,2.7-0.1,3.6-0.3
				c1-0.2,1.8-0.4,2.3-0.7c0.6-0.3,1-0.7,1.2-1.1C259.3,20.2,259.4,19.7,259.4,19.3z"/>
			<path class="st0" d="M305,21.8c0,0.1,0,0.2,0,0.4c0,0.1,0,0.3-0.1,0.5c0,0.2-0.1,0.3-0.1,0.5c-0.1,0.2-0.1,0.3-0.2,0.5
				s-0.2,0.3-0.3,0.3c-0.1,0.1-0.3,0.1-0.4,0.1h-19.9c-0.2,0-0.4-0.1-0.4-0.2c-0.1-0.1-0.1-0.3-0.1-0.5c0-0.1,0-0.2,0-0.3
				c0-0.1,0-0.3,0.1-0.5c0-0.2,0.1-0.3,0.1-0.5c0.1-0.2,0.1-0.3,0.2-0.5c0.1-0.1,0.2-0.3,0.3-0.3s0.2-0.1,0.4-0.1h20
				c0.2,0,0.3,0.1,0.4,0.2S305,21.6,305,21.8z"/>
		</g>
	</g>
	<g>
		<g>
			<path class="st0" d="M101.4,59.9c0,0.8-0.1,1.6-0.3,2.4c-0.2,0.8-0.6,1.4-1,2.1c-0.4,0.6-0.9,1.2-1.5,1.7c-0.6,0.5-1.3,0.9-2,1.2
				c0.6,0.1,1.1,0.3,1.6,0.6c0.5,0.3,0.9,0.7,1.3,1.1c0.4,0.4,0.6,1,0.8,1.5c0.2,0.6,0.3,1.3,0.3,2c0,0.7-0.1,1.5-0.3,2.2
				c-0.2,0.7-0.5,1.4-0.9,2.1c-0.4,0.7-0.9,1.3-1.5,1.9c-0.6,0.6-1.3,1.1-2.1,1.5c-0.8,0.4-1.7,0.8-2.6,1c-1,0.2-2.1,0.4-3.4,0.4
				h-7.1c-0.5,0-0.8-0.1-1-0.3c-0.2-0.2-0.3-0.6-0.2-1.1l4.8-23.9c0.1-0.5,0.3-0.9,0.7-1.1c0.3-0.2,0.7-0.3,1.1-0.3h5.8
				c1.4,0,2.5,0.1,3.4,0.3c0.9,0.2,1.7,0.6,2.3,1c0.6,0.4,1.1,1,1.4,1.6C101.3,58.4,101.4,59.1,101.4,59.9z M96.8,72.8
				c0-1.1-0.4-2-1.2-2.7c-0.8-0.6-2.1-0.9-3.8-0.9h-4.6l-1.9,9.5h5c1.1,0,2.1-0.2,2.9-0.5c0.8-0.3,1.4-0.8,2-1.3
				c0.5-0.5,0.9-1.1,1.2-1.9C96.7,74.3,96.8,73.5,96.8,72.8z M97.6,60.6c0-0.5-0.1-0.9-0.2-1.2c-0.2-0.4-0.4-0.7-0.7-0.9
				c-0.3-0.3-0.8-0.5-1.3-0.6s-1.2-0.2-2-0.2h-3.8l-1.7,8.7h4c1.1,0,2-0.2,2.7-0.5c0.7-0.4,1.3-0.8,1.7-1.4c0.4-0.6,0.8-1.2,1-1.9
				C97.5,61.9,97.6,61.2,97.6,60.6z"/>
			<path class="st0" d="M123.9,71.5l4.1,9.1c0.1,0.2,0.1,0.4,0.1,0.5c0,0.1-0.1,0.2-0.3,0.3s-0.4,0.1-0.6,0.2c-0.3,0-0.6,0.1-1,0.1
				c-0.4,0-0.7,0-0.9,0c-0.2,0-0.4-0.1-0.5-0.1s-0.2-0.1-0.2-0.2c0-0.1-0.1-0.2-0.1-0.3l-3.1-7.4l-5.9,7.4c-0.1,0.1-0.2,0.2-0.3,0.3
				c-0.1,0.1-0.2,0.1-0.4,0.2c-0.2,0-0.4,0.1-0.6,0.1c-0.3,0-0.6,0-1,0c-0.4,0-0.7,0-1-0.1c-0.2,0-0.4-0.1-0.5-0.2s-0.2-0.2-0.1-0.3
				s0.1-0.3,0.2-0.5l7.8-9.2l-3.8-8.7c-0.1-0.2-0.1-0.4-0.1-0.5c0-0.1,0.1-0.2,0.2-0.3c0.1-0.1,0.3-0.1,0.6-0.2c0.3,0,0.6,0,1,0
				c0.4,0,0.7,0,0.9,0c0.2,0,0.4,0.1,0.5,0.1s0.2,0.1,0.2,0.2c0,0.1,0.1,0.2,0.1,0.2l3,7l5.6-7c0.1-0.1,0.2-0.2,0.2-0.2
				c0.1-0.1,0.2-0.1,0.4-0.2s0.3-0.1,0.6-0.1c0.2,0,0.5,0,0.9,0c0.4,0,0.8,0,1,0c0.3,0,0.5,0.1,0.6,0.1c0.1,0.1,0.2,0.2,0.2,0.3
				c0,0.1-0.1,0.3-0.3,0.5L123.9,71.5z"/>
			<path class="st0" d="M150.3,68.5c0,1-0.1,2.1-0.3,3.1c-0.2,1.1-0.5,2.1-0.9,3.1s-0.9,1.9-1.5,2.8c-0.6,0.9-1.3,1.6-2.1,2.3
				c-0.8,0.6-1.8,1.2-2.8,1.5c-1,0.4-2.2,0.6-3.5,0.6c-1.3,0-2.5-0.2-3.4-0.5c-0.9-0.3-1.7-0.8-2.3-1.4c-0.6-0.6-1.1-1.4-1.3-2.2
				s-0.4-1.9-0.4-3c0-1,0.1-2.1,0.3-3.1s0.5-2.1,0.9-3.1c0.4-1,0.9-1.9,1.5-2.8c0.6-0.9,1.3-1.6,2.1-2.3c0.8-0.6,1.8-1.2,2.8-1.5
				c1-0.4,2.2-0.6,3.5-0.6c1.3,0,2.5,0.2,3.4,0.5c0.9,0.3,1.7,0.8,2.3,1.4c0.6,0.6,1.1,1.4,1.4,2.2
				C150.2,66.4,150.3,67.4,150.3,68.5z M146.7,68.8c0-0.7-0.1-1.3-0.2-1.9c-0.1-0.6-0.4-1-0.7-1.4c-0.3-0.4-0.8-0.7-1.3-0.9
				c-0.5-0.2-1.2-0.3-2-0.3c-0.8,0-1.6,0.1-2.3,0.4c-0.7,0.3-1.3,0.7-1.8,1.2s-1,1.1-1.4,1.8c-0.4,0.7-0.7,1.4-1,2.2
				c-0.3,0.8-0.4,1.6-0.6,2.4c-0.1,0.8-0.2,1.6-0.2,2.4c0,0.7,0.1,1.3,0.2,1.9c0.2,0.6,0.4,1,0.7,1.4c0.3,0.4,0.8,0.7,1.3,0.9
				c0.5,0.2,1.2,0.3,2,0.3c0.8,0,1.6-0.1,2.3-0.4c0.7-0.3,1.3-0.7,1.8-1.2s1-1.1,1.4-1.8c0.4-0.7,0.7-1.4,1-2.2
				c0.3-0.8,0.4-1.6,0.6-2.4C146.7,70.3,146.7,69.5,146.7,68.8z"/>
			<path class="st0" d="M172.1,68.2c0,0.8-0.1,1.7-0.2,2.7c-0.2,1-0.4,2-0.7,3c-0.3,1-0.8,2-1.3,3c-0.5,1-1.1,1.8-1.9,2.6
				c-0.7,0.7-1.6,1.3-2.5,1.8c-1,0.4-2,0.7-3.3,0.7c-0.6,0-1.2-0.1-1.7-0.2c-0.5-0.1-1-0.3-1.4-0.5c-0.4-0.2-0.8-0.5-1.2-0.8
				c-0.4-0.3-0.7-0.6-1-1l-1.8,9c0,0.1-0.1,0.2-0.1,0.3c-0.1,0.1-0.2,0.2-0.3,0.2c-0.1,0.1-0.3,0.1-0.5,0.1c-0.2,0-0.5,0-0.9,0
				c-0.3,0-0.6,0-0.8,0c-0.2,0-0.4-0.1-0.5-0.1c-0.1-0.1-0.2-0.1-0.2-0.2c0-0.1,0-0.2,0-0.3l5.2-26.1c0-0.2,0.2-0.4,0.4-0.5
				c0.2-0.1,0.7-0.1,1.2-0.1c0.3,0,0.5,0,0.7,0c0.2,0,0.3,0.1,0.4,0.1s0.2,0.1,0.2,0.2s0,0.2,0,0.3l-0.7,3.5c0.2-0.5,0.5-0.9,1-1.5
				c0.5-0.5,1-1,1.7-1.5c0.6-0.4,1.4-0.8,2.1-1.1c0.8-0.3,1.6-0.4,2.4-0.4c1.1,0,1.9,0.2,2.6,0.5c0.7,0.4,1.3,0.8,1.7,1.4
				c0.4,0.6,0.8,1.3,1,2.1C172,66.4,172.1,67.3,172.1,68.2z M168.5,68.4c0-0.6-0.1-1.1-0.2-1.6s-0.3-0.9-0.5-1.3
				c-0.2-0.4-0.5-0.6-0.9-0.8c-0.4-0.2-0.8-0.3-1.4-0.3c-0.7,0-1.5,0.2-2.3,0.6c-0.8,0.4-1.5,1-2.2,1.7s-1.3,1.6-1.8,2.6
				c-0.5,1-0.9,2.1-1.1,3.3l-0.7,3.4c0.6,1,1.3,1.7,2.1,2.2s1.6,0.7,2.5,0.7c0.7,0,1.4-0.2,2-0.5c0.6-0.3,1.1-0.8,1.6-1.4
				c0.5-0.6,0.9-1.2,1.2-2c0.3-0.7,0.6-1.5,0.8-2.3c0.2-0.8,0.4-1.6,0.5-2.3C168.5,69.7,168.5,69,168.5,68.4z"/>
			<path class="st0" d="M193.9,68.5c0,1-0.1,2.1-0.3,3.1c-0.2,1.1-0.5,2.1-0.9,3.1s-0.9,1.9-1.5,2.8c-0.6,0.9-1.3,1.6-2.1,2.3
				c-0.8,0.6-1.8,1.2-2.8,1.5c-1,0.4-2.2,0.6-3.5,0.6c-1.3,0-2.5-0.2-3.4-0.5c-0.9-0.3-1.7-0.8-2.3-1.4c-0.6-0.6-1.1-1.4-1.3-2.2
				s-0.4-1.9-0.4-3c0-1,0.1-2.1,0.3-3.1s0.5-2.1,0.9-3.1c0.4-1,0.9-1.9,1.5-2.8c0.6-0.9,1.3-1.6,2.1-2.3c0.8-0.6,1.8-1.2,2.8-1.5
				c1-0.4,2.2-0.6,3.5-0.6c1.3,0,2.5,0.2,3.4,0.5c0.9,0.3,1.7,0.8,2.3,1.4c0.6,0.6,1.1,1.4,1.4,2.2
				C193.8,66.4,193.9,67.4,193.9,68.5z M190.3,68.8c0-0.7-0.1-1.3-0.2-1.9c-0.1-0.6-0.4-1-0.7-1.4c-0.3-0.4-0.8-0.7-1.3-0.9
				c-0.5-0.2-1.2-0.3-2-0.3c-0.8,0-1.6,0.1-2.3,0.4c-0.7,0.3-1.3,0.7-1.8,1.2s-1,1.1-1.4,1.8c-0.4,0.7-0.7,1.4-1,2.2
				c-0.3,0.8-0.4,1.6-0.6,2.4c-0.1,0.8-0.2,1.6-0.2,2.4c0,0.7,0.1,1.3,0.2,1.9c0.2,0.6,0.4,1,0.7,1.4c0.3,0.4,0.8,0.7,1.3,0.9
				c0.5,0.2,1.2,0.3,2,0.3c0.8,0,1.6-0.1,2.3-0.4c0.7-0.3,1.3-0.7,1.8-1.2s1-1.1,1.4-1.8c0.4-0.7,0.7-1.4,1-2.2
				c0.3-0.8,0.4-1.6,0.6-2.4C190.3,70.3,190.3,69.5,190.3,68.8z"/>
			<path class="st0" d="M200.5,62.4c0-0.1,0.1-0.2,0.1-0.3c0.1-0.1,0.2-0.1,0.3-0.2c0.1-0.1,0.3-0.1,0.6-0.1c0.2,0,0.5,0,0.8,0
				c0.3,0,0.6,0,0.8,0c0.2,0,0.4,0.1,0.5,0.1c0.1,0.1,0.2,0.1,0.2,0.2c0,0.1,0,0.2,0,0.3l-2.3,11.5c-0.1,0.4-0.1,0.8-0.2,1.2
				c0,0.4-0.1,0.7-0.1,1.1c0,0.9,0.2,1.6,0.5,2.1c0.3,0.5,0.9,0.8,1.6,0.8c0.7,0,1.4-0.2,2.1-0.6s1.4-1,2-1.8s1.2-1.6,1.7-2.6
				c0.5-1,0.9-2.1,1.1-3.3l1.7-8.3c0-0.1,0.1-0.2,0.1-0.3c0.1-0.1,0.2-0.1,0.3-0.2c0.1-0.1,0.3-0.1,0.5-0.1c0.2,0,0.5,0,0.9,0
				c0.3,0,0.6,0,0.8,0c0.2,0,0.4,0.1,0.5,0.1c0.1,0.1,0.2,0.1,0.2,0.2c0,0.1,0,0.2,0,0.3l-2.3,11.5c-0.1,0.4-0.1,0.8-0.2,1.2
				c0,0.4-0.1,0.8-0.1,1.1c0,0.8,0.2,1.5,0.5,2c0.3,0.5,0.9,0.8,1.6,0.8c0.7,0,1.4-0.2,2.1-0.6c0.7-0.4,1.4-1,2-1.8s1.2-1.6,1.7-2.6
				c0.5-1,0.9-2.1,1.1-3.3l1.7-8.3c0-0.1,0.1-0.2,0.1-0.3c0.1-0.1,0.2-0.1,0.3-0.2c0.1-0.1,0.3-0.1,0.6-0.1c0.2,0,0.5,0,0.8,0
				c0.3,0,0.6,0,0.8,0c0.2,0,0.4,0.1,0.5,0.1c0.1,0.1,0.2,0.1,0.2,0.2c0,0.1,0,0.2,0,0.3L223.4,81c0,0.1-0.1,0.2-0.1,0.3
				c-0.1,0.1-0.2,0.1-0.3,0.2c-0.1,0-0.3,0.1-0.5,0.1c-0.2,0-0.4,0-0.7,0c-0.3,0-0.5,0-0.7,0c-0.2,0-0.3-0.1-0.4-0.1
				c-0.1,0-0.2-0.1-0.2-0.2c0-0.1,0-0.2,0-0.3l0.7-3.6c-0.2,0.5-0.6,1-1,1.5c-0.5,0.5-1,1-1.7,1.5c-0.6,0.4-1.3,0.8-2,1.1
				s-1.5,0.4-2.2,0.4c-0.8,0-1.5-0.1-2.1-0.3c-0.6-0.2-1-0.5-1.4-0.9c-0.4-0.4-0.6-0.9-0.8-1.4s-0.3-1.1-0.3-1.8
				c-0.3,0.5-0.7,1-1.2,1.5c-0.5,0.5-1.1,1-1.7,1.5c-0.6,0.4-1.3,0.8-2,1.1c-0.7,0.3-1.5,0.4-2.2,0.4c-0.9,0-1.6-0.1-2.2-0.4
				c-0.6-0.3-1.1-0.6-1.5-1.1c-0.4-0.5-0.6-1-0.8-1.6c-0.2-0.6-0.2-1.3-0.2-2c0-0.5,0-1,0.1-1.4s0.1-1,0.2-1.5L200.5,62.4z"/>
			<path class="st0" d="M247.6,66.2c0,1-0.2,1.8-0.7,2.6c-0.4,0.8-1.1,1.4-2.1,1.9c-0.9,0.5-2.1,1-3.6,1.2s-3.2,0.4-5.3,0.4h-2.2
				c-0.1,0.5-0.2,0.9-0.2,1.3c0,0.4-0.1,0.8-0.1,1.2c0,1.4,0.3,2.4,1,3.2c0.7,0.7,1.8,1.1,3.3,1.1c0.9,0,1.7-0.1,2.4-0.2
				c0.7-0.1,1.3-0.3,1.8-0.4s0.9-0.3,1.3-0.4c0.3-0.1,0.6-0.2,0.7-0.2c0.1,0,0.2,0,0.3,0.1c0.1,0.1,0.1,0.2,0.1,0.4
				c0,0.1,0,0.3,0,0.5c0,0.2-0.1,0.4-0.1,0.6c-0.1,0.2-0.1,0.4-0.2,0.6c-0.1,0.2-0.2,0.3-0.3,0.5c-0.2,0.2-0.5,0.3-0.9,0.5
				s-0.9,0.3-1.5,0.4c-0.6,0.1-1.2,0.2-1.9,0.3c-0.7,0.1-1.4,0.1-2.1,0.1c-1.2,0-2.3-0.1-3.2-0.4c-0.9-0.3-1.7-0.7-2.3-1.3
				c-0.6-0.6-1.1-1.3-1.4-2.1c-0.3-0.9-0.5-1.9-0.5-3c0-0.9,0.1-1.9,0.3-2.9c0.2-1,0.4-2,0.8-3.1c0.4-1,0.9-2,1.5-2.9
				c0.6-0.9,1.3-1.7,2.1-2.4c0.8-0.7,1.8-1.3,2.8-1.7s2.3-0.6,3.6-0.6c1.2,0,2.1,0.1,3,0.4c0.8,0.3,1.5,0.7,2,1.1
				c0.5,0.5,0.9,1,1.1,1.5C247.5,65.1,247.6,65.6,247.6,66.2z M244.1,66.5c0-0.7-0.3-1.3-0.8-1.7s-1.3-0.7-2.4-0.7
				c-0.9,0-1.7,0.2-2.4,0.5c-0.7,0.3-1.3,0.7-1.8,1.3c-0.5,0.5-1,1.1-1.4,1.8c-0.4,0.7-0.7,1.4-0.9,2.2h2.1c1.5,0,2.7-0.1,3.6-0.3
				c1-0.2,1.8-0.4,2.3-0.7c0.6-0.3,1-0.7,1.2-1.1C244,67.4,244.1,67,244.1,66.5z"/>
			<path class="st0" d="M265.5,81c0,0.1-0.1,0.2-0.1,0.3s-0.2,0.1-0.3,0.2c-0.1,0-0.3,0.1-0.5,0.1c-0.2,0-0.4,0-0.7,0
				c-0.3,0-0.5,0-0.7,0c-0.2,0-0.3-0.1-0.4-0.1c-0.1,0-0.2-0.1-0.2-0.2c0-0.1,0-0.2,0-0.3l0.7-3.5c-0.2,0.5-0.6,1-1,1.5
				s-1,1-1.7,1.4c-0.6,0.4-1.3,0.8-2.1,1.1c-0.8,0.3-1.5,0.4-2.3,0.4c-0.9,0-1.7-0.1-2.4-0.4c-0.6-0.3-1.2-0.6-1.6-1.1
				c-0.4-0.4-0.7-1-0.8-1.6c-0.2-0.6-0.3-1.3-0.3-2c0-0.5,0-0.9,0.1-1.4c0.1-0.5,0.1-1,0.2-1.4l2.3-11.7c0-0.1,0.1-0.2,0.1-0.3
				c0.1-0.1,0.2-0.2,0.3-0.2c0.1-0.1,0.3-0.1,0.6-0.1c0.2,0,0.5,0,0.8,0c0.3,0,0.6,0,0.8,0c0.2,0,0.4,0.1,0.5,0.1
				c0.1,0.1,0.2,0.1,0.2,0.2c0,0.1,0,0.2,0,0.3l-2.3,11.6c-0.1,0.4-0.1,0.7-0.2,1.1c0,0.4-0.1,0.8-0.1,1.2c0,0.4,0,0.8,0.1,1.1
				c0.1,0.3,0.2,0.6,0.4,0.9c0.2,0.2,0.4,0.4,0.7,0.6c0.3,0.1,0.7,0.2,1.1,0.2c0.7,0,1.5-0.2,2.2-0.6s1.5-1,2.1-1.8
				c0.7-0.7,1.3-1.6,1.8-2.7c0.5-1,0.9-2.2,1.2-3.4l1.6-8.2c0-0.1,0.1-0.2,0.1-0.3c0.1-0.1,0.2-0.2,0.3-0.2c0.1-0.1,0.3-0.1,0.6-0.1
				c0.2,0,0.5,0,0.8,0c0.3,0,0.6,0,0.8,0c0.2,0,0.4,0.1,0.5,0.1c0.1,0.1,0.2,0.1,0.2,0.2c0,0.1,0,0.2,0,0.3L265.5,81z M269.2,53.4
				c0,0.2,0,0.6-0.1,1c-0.1,0.4-0.2,0.8-0.5,1.2c-0.2,0.4-0.5,0.9-0.9,1.3c-0.4,0.4-0.8,0.8-1.3,1.2c-0.5,0.4-1.2,0.6-1.9,0.8
				c-0.7,0.2-1.6,0.3-2.5,0.3c-1,0-1.9-0.1-2.6-0.3c-0.7-0.2-1.3-0.5-1.7-0.9c-0.4-0.4-0.8-0.9-1-1.4c-0.2-0.5-0.3-1.1-0.3-1.7
				c0-0.2,0-0.4,0-0.5s0-0.4,0.1-0.5c0-0.2,0.1-0.3,0.1-0.4c0-0.1,0.1-0.2,0.1-0.3c0.1-0.1,0.3-0.2,0.5-0.2s0.6-0.1,1-0.1
				c0.3,0,0.5,0,0.7,0c0.2,0,0.3,0.1,0.4,0.1s0.2,0.1,0.2,0.2c0,0.1,0,0.2,0,0.3c0,0.1,0,0.3-0.1,0.4c0,0.1-0.1,0.3-0.1,0.6
				c0,0.6,0.2,1.2,0.6,1.6c0.4,0.4,1.1,0.7,2.1,0.7c0.5,0,0.9-0.1,1.4-0.2s0.8-0.3,1.2-0.6c0.3-0.3,0.6-0.6,0.9-1
				c0.2-0.4,0.4-0.9,0.5-1.4c0-0.1,0.1-0.2,0.1-0.3c0.1-0.1,0.2-0.2,0.3-0.2c0.1-0.1,0.3-0.1,0.5-0.1c0.2,0,0.5-0.1,0.8-0.1
				c0.3,0,0.6,0,0.8,0c0.2,0,0.3,0.1,0.4,0.1c0.1,0,0.2,0.1,0.2,0.2C269.2,53.3,269.2,53.3,269.2,53.4z"/>
			<path class="st0" d="M297.8,64c0,0.2,0,0.5-0.1,0.8c0,0.3-0.1,0.5-0.2,0.7c-0.1,0.2-0.2,0.4-0.3,0.6c-0.1,0.2-0.3,0.2-0.4,0.2
				c-0.2,0-0.4-0.1-0.6-0.3c-0.2-0.2-0.5-0.4-0.8-0.7c-0.3-0.2-0.8-0.5-1.3-0.7c-0.5-0.2-1.2-0.3-2-0.3c-0.9,0-1.7,0.2-2.4,0.5
				c-0.7,0.4-1.3,0.8-1.8,1.4c-0.5,0.6-0.9,1.3-1.3,2c-0.3,0.7-0.6,1.5-0.8,2.3s-0.4,1.5-0.4,2.2c-0.1,0.7-0.1,1.3-0.1,1.9
				c0,1.4,0.3,2.5,0.9,3.2c0.6,0.7,1.5,1.1,2.8,1.1c0.9,0,1.7-0.1,2.3-0.3c0.6-0.2,1.2-0.5,1.6-0.8c0.4-0.3,0.8-0.5,1.1-0.8
				c0.3-0.2,0.5-0.3,0.8-0.3c0.1,0,0.2,0.1,0.3,0.2c0.1,0.1,0.1,0.3,0.1,0.4c0,0.2,0,0.4,0,0.6c0,0.2-0.1,0.5-0.1,0.7
				c-0.1,0.2-0.1,0.5-0.2,0.7c-0.1,0.2-0.2,0.4-0.4,0.6c-0.2,0.2-0.5,0.4-0.9,0.6c-0.4,0.2-0.9,0.5-1.4,0.7s-1.1,0.4-1.8,0.5
				c-0.6,0.1-1.3,0.2-2,0.2c-2.2,0-3.9-0.6-5-1.7s-1.6-2.8-1.6-5.1c0-0.8,0.1-1.8,0.2-2.8c0.1-1,0.4-2,0.7-3s0.8-2,1.3-3
				c0.5-1,1.2-1.8,2-2.5c0.8-0.7,1.7-1.3,2.7-1.8c1-0.4,2.2-0.7,3.6-0.7c0.6,0,1.1,0,1.6,0.1c0.5,0.1,1,0.2,1.4,0.4
				c0.4,0.2,0.9,0.3,1.2,0.6s0.6,0.4,0.8,0.6c0.2,0.2,0.3,0.3,0.4,0.5C297.8,63.7,297.8,63.9,297.8,64z"/>
			<path class="st0" d="M315.6,74.8c0,0.6-0.1,1.2-0.2,1.8c-0.2,0.6-0.4,1.1-0.7,1.7c-0.3,0.5-0.7,1-1.3,1.5
				c-0.5,0.5-1.1,0.9-1.8,1.2s-1.5,0.6-2.3,0.8c-0.9,0.2-1.8,0.3-2.9,0.3c-1.4,0-2.5-0.2-3.4-0.5s-1.6-0.8-2.2-1.4
				c-0.5-0.6-0.9-1.3-1.2-2c-0.2-0.8-0.3-1.6-0.3-2.5c0-0.6,0.1-1.4,0.2-2.3c0.1-0.9,0.3-1.9,0.6-3c0.3-1.1,0.7-2.1,1.2-3.2
				c0.5-1.1,1.2-2,2-2.8c0.8-0.8,1.8-1.5,2.9-2.1c1.1-0.5,2.5-0.8,4.1-0.8c1.1,0,2.1,0.1,2.9,0.4c0.8,0.3,1.5,0.6,2,1
				c0.5,0.4,0.9,0.9,1.2,1.4c0.2,0.5,0.4,1.1,0.4,1.7c0,0.6-0.1,1.2-0.3,1.8c-0.2,0.5-0.5,1-0.9,1.4c-0.4,0.4-0.8,0.8-1.3,1.1
				c-0.5,0.3-1.1,0.5-1.7,0.7c0.6,0.2,1.2,0.4,1.6,0.6s0.8,0.6,1,0.9c0.2,0.4,0.4,0.7,0.5,1.1C315.6,74,315.6,74.4,315.6,74.8z
				 M312.1,75c0-0.3-0.1-0.7-0.2-1c-0.1-0.3-0.4-0.6-0.7-0.9c-0.3-0.2-0.8-0.4-1.4-0.6c-0.6-0.2-1.3-0.2-2.2-0.2h-4.4
				c-0.1,0.6-0.2,1.1-0.2,1.6c-0.1,0.5-0.1,1-0.1,1.4c0,1.4,0.3,2.4,0.9,3c0.6,0.7,1.6,1,3,1c1,0,1.8-0.1,2.4-0.4
				c0.7-0.3,1.2-0.6,1.7-1c0.4-0.4,0.7-0.9,0.9-1.4C312,76,312.1,75.5,312.1,75z M313.2,66.3c0-0.3-0.1-0.6-0.2-0.9
				c-0.1-0.3-0.3-0.5-0.6-0.7c-0.3-0.2-0.6-0.4-1-0.5c-0.4-0.1-0.9-0.2-1.5-0.2c-0.7,0-1.4,0.1-2,0.3c-0.6,0.2-1.2,0.6-1.8,1.1
				c-0.5,0.5-1,1.1-1.5,1.8c-0.4,0.7-0.8,1.6-1.1,2.6h4.5c0.9,0,1.6-0.1,2.2-0.3s1.2-0.4,1.6-0.7c0.4-0.3,0.7-0.7,0.9-1.1
				C313.1,67.3,313.2,66.9,313.2,66.3z"/>
			<path class="st0" d="M333.2,81c0,0.1-0.1,0.2-0.1,0.3s-0.2,0.1-0.3,0.2c-0.1,0-0.3,0.1-0.5,0.1c-0.2,0-0.5,0-0.9,0
				c-0.3,0-0.6,0-0.8,0c-0.2,0-0.4-0.1-0.5-0.1c-0.1,0-0.2-0.1-0.2-0.2c0-0.1,0-0.2,0-0.3l1.6-7.9H329c-0.7,0-1.4,0.1-1.9,0.3
				c-0.5,0.2-1,0.4-1.4,0.8c-0.4,0.3-0.8,0.7-1.1,1.2c-0.3,0.4-0.6,0.9-0.9,1.4l-2.3,4c-0.1,0.2-0.2,0.3-0.3,0.4
				c-0.1,0.1-0.2,0.2-0.4,0.3c-0.2,0.1-0.4,0.1-0.6,0.1s-0.6,0-1,0c-0.3,0-0.5,0-0.7,0s-0.3-0.1-0.5-0.1c-0.1,0-0.2-0.1-0.2-0.2
				c0-0.1-0.1-0.1-0.1-0.2c0,0,0-0.1,0-0.2c0-0.1,0.1-0.2,0.1-0.3c0.1-0.1,0.1-0.3,0.2-0.5s0.2-0.4,0.4-0.7l2.2-3.6
				c0.6-1.1,1.3-1.9,1.9-2.5c0.6-0.6,1.3-0.9,2.1-1.1c-1.2-0.3-2-0.7-2.6-1.4c-0.5-0.7-0.8-1.5-0.8-2.5c0-0.5,0.1-1,0.2-1.5
				c0.1-0.5,0.3-1,0.6-1.5s0.7-1,1.2-1.4c0.5-0.4,1.1-0.8,1.8-1.2c0.7-0.3,1.5-0.6,2.5-0.8s2-0.3,3.3-0.3c0.4,0,0.9,0,1.3,0
				s0.9,0,1.3,0.1c0.4,0,0.8,0.1,1.3,0.1c0.4,0,0.8,0.1,1.2,0.1c0.3,0,0.6,0.2,0.8,0.4s0.2,0.6,0.2,1L333.2,81z M333.1,64.4
				c-0.5-0.1-1-0.1-1.5-0.1c-0.5,0-1,0-1.3,0c-1.2,0-2.2,0.1-2.9,0.4c-0.7,0.3-1.3,0.6-1.7,1c-0.4,0.4-0.7,0.8-0.8,1.3
				c-0.1,0.5-0.2,0.9-0.2,1.3c0,0.4,0.1,0.8,0.2,1.1c0.2,0.3,0.4,0.6,0.7,0.8c0.3,0.2,0.7,0.4,1.2,0.5c0.5,0.1,1.1,0.2,1.8,0.2h3.3
				L333.1,64.4z"/>
			<path class="st0" d="M354.7,65.9c0,0.6-0.1,1.1-0.3,1.7c-0.2,0.5-0.5,1.1-1,1.5s-0.9,0.9-1.5,1.2c-0.6,0.4-1.2,0.6-1.8,0.8l0,0.1
				c0.4,0,0.9,0.2,1.3,0.3s0.8,0.4,1.1,0.8c0.3,0.3,0.6,0.7,0.8,1.1c0.2,0.4,0.3,0.9,0.3,1.5c0,1-0.2,1.9-0.6,2.7
				c-0.4,0.9-1,1.6-1.8,2.2c-0.8,0.6-1.8,1.1-2.9,1.5c-1.2,0.4-2.5,0.6-4,0.6c-0.6,0-1.3-0.1-1.9-0.2c-0.6-0.1-1.2-0.2-1.7-0.4
				c-0.5-0.2-0.9-0.3-1.3-0.5c-0.4-0.2-0.7-0.4-0.9-0.6c-0.2-0.1-0.2-0.3-0.2-0.7c0-0.2,0-0.3,0.1-0.6c0-0.2,0.1-0.4,0.2-0.7
				c0.1-0.2,0.2-0.4,0.3-0.5c0.1-0.2,0.2-0.2,0.4-0.2c0.2,0,0.4,0.1,0.6,0.3c0.2,0.2,0.6,0.4,1,0.6c0.4,0.2,0.9,0.4,1.5,0.6
				c0.6,0.2,1.3,0.3,2.1,0.3c0.9,0,1.7-0.1,2.4-0.3c0.7-0.2,1.3-0.5,1.8-0.8c0.5-0.4,0.9-0.8,1.1-1.3c0.3-0.5,0.4-1,0.4-1.7
				c0-0.3-0.1-0.6-0.2-0.9c-0.2-0.3-0.4-0.6-0.8-0.8s-0.9-0.4-1.5-0.6c-0.6-0.1-1.3-0.2-2.2-0.2H343c-0.2,0-0.3,0-0.4-0.1
				s-0.1-0.2-0.1-0.4c0-0.1,0-0.2,0-0.5c0-0.2,0.1-0.5,0.2-0.7c0.1-0.2,0.2-0.5,0.3-0.6c0.1-0.2,0.3-0.3,0.5-0.3h1.8
				c0.9,0,1.8-0.1,2.5-0.2c0.7-0.2,1.3-0.4,1.9-0.7c0.5-0.3,0.9-0.7,1.2-1.1c0.3-0.4,0.4-1,0.4-1.5c0-0.8-0.3-1.4-0.9-1.7
				c-0.6-0.4-1.4-0.6-2.5-0.6c-0.8,0-1.5,0.1-2.2,0.3c-0.7,0.2-1.3,0.4-1.8,0.6c-0.5,0.2-0.9,0.4-1.3,0.6c-0.3,0.2-0.6,0.3-0.7,0.3
				c-0.2,0-0.4-0.2-0.4-0.6c0-0.2,0-0.3,0.1-0.5s0.1-0.4,0.2-0.6c0.1-0.2,0.1-0.4,0.2-0.6c0.1-0.2,0.2-0.3,0.3-0.4
				c0.1-0.2,0.4-0.3,0.8-0.5c0.4-0.2,0.9-0.4,1.5-0.6c0.6-0.2,1.2-0.3,1.9-0.5c0.7-0.1,1.4-0.2,2-0.2c1,0,1.9,0.1,2.7,0.3
				c0.8,0.2,1.4,0.5,2,0.9c0.5,0.4,0.9,0.9,1.2,1.4S354.7,65.2,354.7,65.9z"/>
			<path class="st0" d="M373,81c0,0.1-0.1,0.2-0.1,0.3s-0.2,0.1-0.3,0.2c-0.1,0-0.3,0.1-0.5,0.1c-0.2,0-0.4,0-0.7,0
				c-0.3,0-0.5,0-0.7,0c-0.2,0-0.3-0.1-0.4-0.1c-0.1,0-0.2-0.1-0.2-0.2c0-0.1,0-0.2,0-0.3l0.7-3.5c-0.2,0.5-0.6,1-1,1.5
				s-1,1-1.7,1.4c-0.6,0.4-1.3,0.8-2.1,1.1c-0.8,0.3-1.5,0.4-2.3,0.4c-0.9,0-1.7-0.1-2.4-0.4c-0.6-0.3-1.2-0.6-1.6-1.1
				c-0.4-0.4-0.7-1-0.8-1.6c-0.2-0.6-0.3-1.3-0.3-2c0-0.5,0-0.9,0.1-1.4c0.1-0.5,0.1-1,0.2-1.4l2.3-11.7c0-0.1,0.1-0.2,0.1-0.3
				c0.1-0.1,0.2-0.2,0.3-0.2c0.1-0.1,0.3-0.1,0.6-0.1c0.2,0,0.5,0,0.8,0c0.3,0,0.6,0,0.8,0c0.2,0,0.4,0.1,0.5,0.1
				c0.1,0.1,0.2,0.1,0.2,0.2c0,0.1,0,0.2,0,0.3l-2.3,11.6c-0.1,0.4-0.1,0.7-0.2,1.1c0,0.4-0.1,0.8-0.1,1.2c0,0.4,0,0.8,0.1,1.1
				c0.1,0.3,0.2,0.6,0.4,0.9c0.2,0.2,0.4,0.4,0.7,0.6c0.3,0.1,0.7,0.2,1.1,0.2c0.7,0,1.5-0.2,2.2-0.6s1.5-1,2.1-1.8
				c0.7-0.7,1.3-1.6,1.8-2.7c0.5-1,0.9-2.2,1.2-3.4l1.6-8.2c0-0.1,0.1-0.2,0.1-0.3c0.1-0.1,0.2-0.2,0.3-0.2c0.1-0.1,0.3-0.1,0.6-0.1
				c0.2,0,0.5,0,0.8,0c0.3,0,0.6,0,0.8,0c0.2,0,0.4,0.1,0.5,0.1c0.1,0.1,0.2,0.1,0.2,0.2c0,0.1,0,0.2,0,0.3L373,81z"/>
			<path class="st0" d="M405,81c0,0.1-0.1,0.2-0.1,0.3c-0.1,0.1-0.2,0.1-0.3,0.2c-0.1,0.1-0.3,0.1-0.5,0.1c-0.2,0-0.5,0-0.8,0
				c-0.3,0-0.6,0-0.8,0c-0.2,0-0.4-0.1-0.5-0.1c-0.1-0.1-0.2-0.1-0.2-0.2c0-0.1,0-0.2,0-0.3l1.6-8.2H394l-1.6,8.2
				c0,0.1-0.1,0.2-0.1,0.3c-0.1,0.1-0.2,0.1-0.3,0.2c-0.1,0.1-0.3,0.1-0.5,0.1c-0.2,0-0.5,0-0.8,0c-0.3,0-0.6,0-0.8,0
				c-0.2,0-0.4-0.1-0.5-0.1c-0.1-0.1-0.2-0.1-0.2-0.2c0-0.1,0-0.2,0-0.3l3.7-18.7c0-0.1,0.1-0.2,0.1-0.3c0.1-0.1,0.2-0.1,0.3-0.2
				c0.1-0.1,0.3-0.1,0.6-0.1c0.2,0,0.5,0,0.8,0c0.3,0,0.6,0,0.8,0c0.2,0,0.4,0.1,0.5,0.1c0.1,0.1,0.2,0.1,0.2,0.2c0,0.1,0,0.2,0,0.3
				l-1.5,7.6h9.2l1.5-7.6c0-0.1,0.1-0.2,0.1-0.3c0.1-0.1,0.2-0.1,0.3-0.2c0.1-0.1,0.3-0.1,0.6-0.1c0.2,0,0.5,0,0.8,0
				c0.3,0,0.6,0,0.8,0c0.2,0,0.4,0.1,0.5,0.1c0.1,0.1,0.2,0.1,0.2,0.2c0,0.1,0,0.2,0,0.3L405,81z"/>
			<path class="st0" d="M429.1,66.2c0,1-0.2,1.8-0.7,2.6c-0.4,0.8-1.1,1.4-2.1,1.9c-0.9,0.5-2.1,1-3.6,1.2s-3.2,0.4-5.3,0.4h-2.2
				c-0.1,0.5-0.2,0.9-0.2,1.3c0,0.4-0.1,0.8-0.1,1.2c0,1.4,0.3,2.4,1,3.2c0.7,0.7,1.8,1.1,3.3,1.1c0.9,0,1.7-0.1,2.4-0.2
				c0.7-0.1,1.3-0.3,1.8-0.4s0.9-0.3,1.3-0.4c0.3-0.1,0.6-0.2,0.7-0.2c0.1,0,0.2,0,0.3,0.1c0.1,0.1,0.1,0.2,0.1,0.4
				c0,0.1,0,0.3,0,0.5c0,0.2-0.1,0.4-0.1,0.6c-0.1,0.2-0.1,0.4-0.2,0.6c-0.1,0.2-0.2,0.3-0.3,0.5c-0.2,0.2-0.5,0.3-0.9,0.5
				s-0.9,0.3-1.5,0.4c-0.6,0.1-1.2,0.2-1.9,0.3c-0.7,0.1-1.4,0.1-2.1,0.1c-1.2,0-2.3-0.1-3.2-0.4c-0.9-0.3-1.7-0.7-2.3-1.3
				c-0.6-0.6-1.1-1.3-1.4-2.1c-0.3-0.9-0.5-1.9-0.5-3c0-0.9,0.1-1.9,0.3-2.9c0.2-1,0.4-2,0.8-3.1c0.4-1,0.9-2,1.5-2.9
				c0.6-0.9,1.3-1.7,2.1-2.4c0.8-0.7,1.8-1.3,2.8-1.7s2.3-0.6,3.6-0.6c1.2,0,2.1,0.1,3,0.4c0.8,0.3,1.5,0.7,2,1.1
				c0.5,0.5,0.9,1,1.1,1.5C429,65.1,429.1,65.6,429.1,66.2z M425.6,66.5c0-0.7-0.3-1.3-0.8-1.7s-1.3-0.7-2.4-0.7
				c-0.9,0-1.7,0.2-2.4,0.5c-0.7,0.3-1.3,0.7-1.8,1.3c-0.5,0.5-1,1.1-1.4,1.8c-0.4,0.7-0.7,1.4-0.9,2.2h2.1c1.5,0,2.7-0.1,3.6-0.3
				c1-0.2,1.8-0.4,2.3-0.7c0.6-0.3,1-0.7,1.2-1.1C425.5,67.4,425.6,67,425.6,66.5z"/>
			<path class="st0" d="M458.9,81c0,0.1-0.1,0.2-0.1,0.3c-0.1,0.1-0.2,0.1-0.3,0.2c-0.1,0.1-0.3,0.1-0.6,0.1c-0.2,0-0.5,0-0.8,0
				c-0.3,0-0.6,0-0.8,0c-0.2,0-0.4-0.1-0.5-0.1s-0.2-0.1-0.2-0.2c0-0.1,0-0.2,0-0.3l2.3-11.5c0.1-0.4,0.1-0.8,0.2-1.1
				s0.1-0.7,0.1-1.1c0-0.9-0.2-1.6-0.5-2.1c-0.3-0.5-0.9-0.8-1.8-0.8c-0.7,0-1.4,0.2-2.1,0.6s-1.4,1-2.1,1.7
				c-0.7,0.7-1.3,1.6-1.8,2.6c-0.5,1-0.9,2.1-1.1,3.3L447,81c0,0.1-0.1,0.2-0.1,0.3c-0.1,0.1-0.2,0.1-0.3,0.2
				c-0.1,0.1-0.3,0.1-0.6,0.1c-0.2,0-0.5,0-0.8,0c-0.3,0-0.6,0-0.8,0c-0.2,0-0.4-0.1-0.5-0.1s-0.2-0.1-0.2-0.2c0-0.1-0.1-0.2,0-0.3
				l2.3-11.5c0.1-0.4,0.2-0.8,0.2-1.2c0-0.4,0.1-0.8,0.1-1.1c0-0.8-0.2-1.5-0.5-2s-0.9-0.8-1.8-0.8c-0.7,0-1.4,0.2-2.2,0.6
				s-1.4,1-2.1,1.7c-0.7,0.7-1.3,1.6-1.8,2.6c-0.5,1-0.9,2.1-1.1,3.3L435,81c0,0.1-0.1,0.2-0.1,0.3c-0.1,0.1-0.2,0.1-0.3,0.2
				c-0.1,0.1-0.3,0.1-0.5,0.1c-0.2,0-0.5,0-0.8,0c-0.3,0-0.6,0-0.8,0c-0.2,0-0.4-0.1-0.5-0.1c-0.1-0.1-0.2-0.1-0.2-0.2
				c0-0.1,0-0.2,0-0.3l3.8-18.7c0-0.1,0.1-0.2,0.1-0.3c0.1-0.1,0.2-0.2,0.3-0.2c0.1-0.1,0.3-0.1,0.5-0.1c0.2,0,0.4,0,0.7,0
				c0.3,0,0.5,0,0.7,0c0.2,0,0.3,0.1,0.4,0.1c0.1,0.1,0.2,0.1,0.2,0.2c0,0.1,0,0.2,0,0.3l-0.7,3.6c0.2-0.5,0.5-1,1-1.5
				c0.5-0.5,1-1,1.7-1.5c0.6-0.4,1.3-0.8,2.1-1.1s1.5-0.4,2.3-0.4c0.8,0,1.5,0.1,2.1,0.3c0.6,0.2,1.1,0.5,1.5,0.9
				c0.4,0.4,0.7,0.9,0.8,1.4c0.2,0.5,0.3,1.1,0.3,1.8c0.3-0.5,0.7-1,1.1-1.5c0.5-0.5,1-1,1.7-1.4c0.6-0.4,1.3-0.8,2.1-1.1
				s1.5-0.4,2.3-0.4c0.9,0,1.7,0.1,2.3,0.4c0.6,0.3,1.1,0.6,1.5,1.1c0.4,0.5,0.7,1,0.8,1.6c0.2,0.6,0.2,1.3,0.2,2c0,0.5,0,1-0.1,1.4
				c-0.1,0.5-0.1,1-0.2,1.5L458.9,81z"/>
			<path class="st0" d="M502.1,81c0,0.1-0.1,0.2-0.1,0.3c-0.1,0.1-0.2,0.1-0.3,0.2c-0.1,0.1-0.3,0.1-0.6,0.1c-0.2,0-0.5,0-0.8,0
				c-0.3,0-0.6,0-0.8,0c-0.2,0-0.4-0.1-0.5-0.1s-0.2-0.1-0.2-0.2c0-0.1,0-0.2,0-0.3l2.3-11.5c0.1-0.4,0.1-0.8,0.2-1.1
				s0.1-0.7,0.1-1.1c0-0.9-0.2-1.6-0.5-2.1c-0.3-0.5-0.9-0.8-1.8-0.8c-0.7,0-1.4,0.2-2.1,0.6s-1.4,1-2.1,1.7
				c-0.7,0.7-1.3,1.6-1.8,2.6c-0.5,1-0.9,2.1-1.1,3.3l-1.7,8.3c0,0.1-0.1,0.2-0.1,0.3c-0.1,0.1-0.2,0.1-0.3,0.2
				c-0.1,0.1-0.3,0.1-0.6,0.1c-0.2,0-0.5,0-0.8,0c-0.3,0-0.6,0-0.8,0c-0.2,0-0.4-0.1-0.5-0.1s-0.2-0.1-0.2-0.2c0-0.1-0.1-0.2,0-0.3
				l2.3-11.5c0.1-0.4,0.2-0.8,0.2-1.2c0-0.4,0.1-0.8,0.1-1.1c0-0.8-0.2-1.5-0.5-2s-0.9-0.8-1.8-0.8c-0.7,0-1.4,0.2-2.2,0.6
				s-1.4,1-2.1,1.7c-0.7,0.7-1.3,1.6-1.8,2.6c-0.5,1-0.9,2.1-1.1,3.3l-1.7,8.3c0,0.1-0.1,0.2-0.1,0.3c-0.1,0.1-0.2,0.1-0.3,0.2
				c-0.1,0.1-0.3,0.1-0.5,0.1c-0.2,0-0.5,0-0.8,0c-0.3,0-0.6,0-0.8,0c-0.2,0-0.4-0.1-0.5-0.1c-0.1-0.1-0.2-0.1-0.2-0.2
				c0-0.1,0-0.2,0-0.3l3.8-18.7c0-0.1,0.1-0.2,0.1-0.3c0.1-0.1,0.2-0.2,0.3-0.2c0.1-0.1,0.3-0.1,0.5-0.1c0.2,0,0.4,0,0.7,0
				c0.3,0,0.5,0,0.7,0c0.2,0,0.3,0.1,0.4,0.1c0.1,0.1,0.2,0.1,0.2,0.2c0,0.1,0,0.2,0,0.3l-0.7,3.6c0.2-0.5,0.5-1,1-1.5
				c0.5-0.5,1-1,1.7-1.5c0.6-0.4,1.3-0.8,2.1-1.1s1.5-0.4,2.3-0.4c0.8,0,1.5,0.1,2.1,0.3c0.6,0.2,1.1,0.5,1.5,0.9
				c0.4,0.4,0.7,0.9,0.8,1.4c0.2,0.5,0.3,1.1,0.3,1.8c0.3-0.5,0.7-1,1.1-1.5c0.5-0.5,1-1,1.7-1.4c0.6-0.4,1.3-0.8,2.1-1.1
				s1.5-0.4,2.3-0.4c0.9,0,1.7,0.1,2.3,0.4c0.6,0.3,1.1,0.6,1.5,1.1c0.4,0.5,0.7,1,0.8,1.6c0.2,0.6,0.2,1.3,0.2,2c0,0.5,0,1-0.1,1.4
				c-0.1,0.5-0.1,1-0.2,1.5L502.1,81z"/>
			<path class="st0" d="M523.8,81c-0.1,0.2-0.2,0.4-0.5,0.5c-0.2,0.1-0.7,0.1-1.2,0.1c-0.3,0-0.5,0-0.7,0c-0.2,0-0.3-0.1-0.4-0.1
				c-0.1,0-0.2-0.1-0.2-0.2c0-0.1,0-0.2,0-0.3l0.7-3.5c-0.2,0.4-0.5,0.9-1,1.5c-0.5,0.5-1,1-1.7,1.5c-0.6,0.4-1.4,0.8-2.1,1.1
				c-0.8,0.3-1.6,0.4-2.4,0.4c-1.1,0-2-0.2-2.7-0.6s-1.3-0.9-1.7-1.5c-0.4-0.6-0.7-1.4-0.9-2.2c-0.2-0.8-0.2-1.6-0.2-2.5
				c0-0.8,0.1-1.7,0.2-2.6c0.1-1,0.4-2,0.7-3c0.3-1,0.7-2,1.3-3c0.5-1,1.1-1.8,1.9-2.6c0.7-0.8,1.6-1.4,2.5-1.8
				c1-0.5,2.1-0.7,3.3-0.7c1.2,0,2.3,0.2,3.2,0.7c0.9,0.5,1.7,1.2,2.4,2.1l0.4-1.9c0.1-0.2,0.2-0.4,0.5-0.5c0.3-0.1,0.7-0.1,1.2-0.1
				c0.3,0,0.5,0,0.7,0c0.2,0,0.3,0.1,0.4,0.1c0.1,0.1,0.2,0.1,0.2,0.2c0,0.1,0,0.2,0,0.3L523.8,81z M523.2,67.2
				c-0.6-1-1.4-1.7-2.1-2.1c-0.8-0.5-1.6-0.7-2.5-0.7c-0.7,0-1.4,0.2-2,0.5c-0.6,0.4-1.1,0.8-1.6,1.4c-0.5,0.6-0.9,1.2-1.2,2
				c-0.3,0.7-0.6,1.5-0.8,2.3c-0.2,0.8-0.4,1.6-0.5,2.3s-0.2,1.4-0.2,2.1c0,0.5,0,1,0.1,1.4c0.1,0.5,0.2,0.9,0.4,1.3
				c0.2,0.4,0.5,0.7,0.9,1s0.9,0.4,1.5,0.4c0.8,0,1.5-0.2,2.3-0.6s1.5-1,2.1-1.8c0.7-0.7,1.3-1.6,1.8-2.6c0.5-1,0.9-2.1,1.1-3.3
				L523.2,67.2z"/>
			<path class="st0" d="M545.6,81c0,0.1-0.1,0.2-0.1,0.3s-0.2,0.1-0.3,0.2c-0.1,0-0.3,0.1-0.5,0.1c-0.2,0-0.4,0-0.7,0
				c-0.3,0-0.5,0-0.7,0c-0.2,0-0.3-0.1-0.4-0.1c-0.1,0-0.2-0.1-0.2-0.2c0-0.1,0-0.2,0-0.3l0.7-3.5c-0.2,0.5-0.6,1-1,1.5
				s-1,1-1.7,1.4c-0.6,0.4-1.3,0.8-2.1,1.1c-0.8,0.3-1.5,0.4-2.3,0.4c-0.9,0-1.7-0.1-2.4-0.4c-0.6-0.3-1.2-0.6-1.6-1.1
				c-0.4-0.4-0.7-1-0.8-1.6c-0.2-0.6-0.3-1.3-0.3-2c0-0.5,0-0.9,0.1-1.4c0.1-0.5,0.1-1,0.2-1.4l2.3-11.7c0-0.1,0.1-0.2,0.1-0.3
				c0.1-0.1,0.2-0.2,0.3-0.2c0.1-0.1,0.3-0.1,0.6-0.1c0.2,0,0.5,0,0.8,0c0.3,0,0.6,0,0.8,0c0.2,0,0.4,0.1,0.5,0.1
				c0.1,0.1,0.2,0.1,0.2,0.2c0,0.1,0,0.2,0,0.3l-2.3,11.6c-0.1,0.4-0.1,0.7-0.2,1.1c0,0.4-0.1,0.8-0.1,1.2c0,0.4,0,0.8,0.1,1.1
				c0.1,0.3,0.2,0.6,0.4,0.9c0.2,0.2,0.4,0.4,0.7,0.6c0.3,0.1,0.7,0.2,1.1,0.2c0.7,0,1.5-0.2,2.2-0.6s1.5-1,2.1-1.8
				c0.7-0.7,1.3-1.6,1.8-2.7c0.5-1,0.9-2.2,1.2-3.4l1.6-8.2c0-0.1,0.1-0.2,0.1-0.3c0.1-0.1,0.2-0.2,0.3-0.2c0.1-0.1,0.3-0.1,0.6-0.1
				c0.2,0,0.5,0,0.8,0c0.3,0,0.6,0,0.8,0c0.2,0,0.4,0.1,0.5,0.1c0.1,0.1,0.2,0.1,0.2,0.2c0,0.1,0,0.2,0,0.3L545.6,81z M549.3,53.4
				c0,0.2,0,0.6-0.1,1c-0.1,0.4-0.2,0.8-0.5,1.2c-0.2,0.4-0.5,0.9-0.9,1.3c-0.4,0.4-0.8,0.8-1.3,1.2c-0.5,0.4-1.2,0.6-1.9,0.8
				c-0.7,0.2-1.6,0.3-2.5,0.3c-1,0-1.9-0.1-2.6-0.3c-0.7-0.2-1.3-0.5-1.7-0.9c-0.4-0.4-0.8-0.9-1-1.4c-0.2-0.5-0.3-1.1-0.3-1.7
				c0-0.2,0-0.4,0-0.5s0-0.4,0.1-0.5c0-0.2,0.1-0.3,0.1-0.4c0-0.1,0.1-0.2,0.1-0.3c0.1-0.1,0.3-0.2,0.5-0.2s0.6-0.1,1-0.1
				c0.3,0,0.5,0,0.7,0c0.2,0,0.3,0.1,0.4,0.1s0.2,0.1,0.2,0.2c0,0.1,0,0.2,0,0.3c0,0.1,0,0.3-0.1,0.4c0,0.1-0.1,0.3-0.1,0.6
				c0,0.6,0.2,1.2,0.6,1.6c0.4,0.4,1.1,0.7,2.1,0.7c0.5,0,0.9-0.1,1.4-0.2s0.8-0.3,1.2-0.6c0.3-0.3,0.6-0.6,0.9-1
				c0.2-0.4,0.4-0.9,0.5-1.4c0-0.1,0.1-0.2,0.1-0.3c0.1-0.1,0.2-0.2,0.3-0.2c0.1-0.1,0.3-0.1,0.5-0.1c0.2,0,0.5-0.1,0.8-0.1
				c0.3,0,0.6,0,0.8,0c0.2,0,0.3,0.1,0.4,0.1c0.1,0,0.2,0.1,0.2,0.2C549.3,53.3,549.3,53.3,549.3,53.4z"/>
			<path class="st0" d="M568,81c0,0.1-0.1,0.2-0.1,0.3c-0.1,0.1-0.2,0.1-0.3,0.2c-0.1,0.1-0.3,0.1-0.5,0.1c-0.2,0-0.5,0-0.8,0
				c-0.3,0-0.6,0-0.8,0c-0.2,0-0.4-0.1-0.5-0.1c-0.1-0.1-0.2-0.1-0.2-0.2c0-0.1,0-0.2,0-0.3l1.6-8.2H557l-1.6,8.2
				c0,0.1-0.1,0.2-0.1,0.3c-0.1,0.1-0.2,0.1-0.3,0.2c-0.1,0.1-0.3,0.1-0.5,0.1c-0.2,0-0.5,0-0.8,0c-0.3,0-0.6,0-0.8,0
				c-0.2,0-0.4-0.1-0.5-0.1c-0.1-0.1-0.2-0.1-0.2-0.2c0-0.1,0-0.2,0-0.3l3.7-18.7c0-0.1,0.1-0.2,0.1-0.3c0.1-0.1,0.2-0.1,0.3-0.2
				c0.1-0.1,0.3-0.1,0.6-0.1c0.2,0,0.5,0,0.8,0c0.3,0,0.6,0,0.8,0c0.2,0,0.4,0.1,0.5,0.1c0.1,0.1,0.2,0.1,0.2,0.2c0,0.1,0,0.2,0,0.3
				l-1.5,7.6h9.2l1.5-7.6c0-0.1,0.1-0.2,0.1-0.3c0.1-0.1,0.2-0.1,0.3-0.2c0.1-0.1,0.3-0.1,0.6-0.1c0.2,0,0.5,0,0.8,0
				c0.3,0,0.6,0,0.8,0c0.2,0,0.4,0.1,0.5,0.1c0.1,0.1,0.2,0.1,0.2,0.2c0,0.1,0,0.2,0,0.3L568,81z"/>
		</g>
	</g>
</g>
</svg>
